;TYPE=PLATED
;Layer: PTH_Through_Via
;EasyEDA Pro v2.2.32.3, 2024-12-23 12:01:24
;Gerber Generator version 0.3
M48
METRIC,LZ,000.00000
;Hole size 1 = 0.20320 METRIC
T01C0.20320
;Hole size 2 = 0.30480 METRIC
T02C0.30480
;Hole size 3 = 0.30500 METRIC
T03C0.30500
%
G05
G90
T01
X60.44603Y34.53701
X61.24613Y34.53701
X62.04598Y34.53701
X62.84608Y34.53701
X62.84608Y33.73691
X62.04598Y33.73691
X60.44603Y33.73691
X59.64619Y33.73691
X59.64619Y35.33686
X60.44603Y35.33686
X61.24613Y35.33686
X62.04598Y35.33686
X62.84608Y35.33686
X62.84608Y32.93681
X62.04598Y32.93681
X61.24613Y32.93681
X60.44603Y32.93681
X62.84608Y29.73692
X58.84609Y32.13697
X60.44603Y32.13697
X61.24613Y32.13697
X61.24613Y30.53702
X62.04598Y32.13697
X62.04598Y30.53702
X62.84608Y32.13697
X62.84608Y30.53702
X62.04598Y31.33687
X60.44603Y31.33687
X60.44603Y29.73692
X61.24613Y29.73692
X62.04598Y29.73692
X58.04599Y23.33714
X58.84609Y23.33714
X57.24614Y24.93709
X59.64619Y23.33714
X58.04599Y24.93709
X60.44603Y23.33714
X58.84609Y24.93709
X58.04599Y26.53703
X59.64619Y24.93709
X58.84609Y26.53703
X60.44603Y24.93709
X59.64619Y26.53703
X61.24613Y24.93709
X58.04599Y28.13698
X60.44603Y26.53703
X61.24613Y26.53703
X62.84608Y24.93709
X62.04598Y26.53703
X62.84608Y26.53703
X61.24613Y28.13698
X62.84608Y28.13698
X57.24614Y24.13699
X58.04599Y24.13699
X57.24614Y25.73719
X59.64619Y24.13699
X58.04599Y25.73719
X60.44603Y24.13699
X58.84609Y25.73719
X61.24613Y24.13699
X59.64619Y25.73719
X62.04598Y24.13699
X62.84608Y24.13699
X61.24613Y25.73719
X60.44603Y27.33713
X62.04598Y25.73719
X62.84608Y25.73719
X62.04598Y27.33713
X67.64592Y33.73691
X66.84582Y33.73691
X65.24587Y33.73691
X64.44602Y34.53701
X66.84582Y34.53701
X67.64592Y34.53701
X68.44601Y34.53701
X66.84582Y35.33686
X67.64592Y35.33686
X69.24586Y32.93681
X66.84582Y32.93681
X64.44602Y32.93681
X64.44602Y31.33687
X66.04597Y29.73692
X66.84582Y29.73692
X67.64592Y29.73692
X69.24586Y29.73692
X65.24587Y30.53702
X66.04597Y32.13697
X66.84582Y30.53702
X67.64592Y30.53702
X68.44601Y30.53702
X69.24586Y32.13697
X66.84582Y25.73719
X68.44601Y24.13699
X67.64592Y25.73719
X69.24586Y24.13699
X66.04597Y27.33713
X66.84582Y27.33713
X69.24586Y25.73719
X67.64592Y27.33713
X64.44602Y23.33714
X65.24587Y23.33714
X67.64592Y23.33714
X64.44602Y26.53703
X66.04597Y24.93709
X68.44601Y23.33714
X65.24587Y26.53703
X66.84582Y24.93709
X66.04597Y26.53703
X67.64592Y24.93709
X66.84582Y26.53703
X68.44601Y24.93709
X65.24587Y28.13698
X67.64592Y26.53703
X69.24586Y24.93709
X68.44601Y26.53703
X66.84582Y28.13698
X69.24586Y26.53703
X67.64592Y28.13698
X68.44601Y28.13698
X63.59525Y24.13699
X65.24587Y24.13699
X66.84582Y24.13699
X65.24587Y25.73719
X67.64592Y24.13699
X64.44602Y27.33713
X66.04597Y25.73719
X70.993Y26.5877
X72.644Y28.13698
X82.55Y28.575
X74.295Y27.305
X72.39Y27.305
X75.819Y27.051
X75.946Y29.73692
X70.739Y24.511
X57.531Y36.195
X59.309Y38.23482
X65.151Y38.735
X56.134Y23.368
X53.467Y33.38906
X53.34Y38.42858
X54.991Y29.972
X54.102Y29.337
X65.08598Y20.28563
X55.372Y23.14194
X66.84977Y38.7492
X104.15711Y25.527
X100.076Y25.4
X95.42691Y25.527
X70.993Y23.72106
X65.278Y31.369
X68.453Y32.893
X63.627Y32.893
X61.214Y33.782
X61.214Y31.369
X62.103Y25.019
X66.04597Y24.19359
X68.453Y25.781
X51.181Y28.09494
X44.704Y21.59
X54.53199Y31.65094
X46.45523Y44.35329
X46.02785Y43.92591
X57.39953Y35.3112
X35.687Y26.797
X36.322Y26.76143
X32.131Y25.65757
X74.28309Y23.77694
X30.734Y30.734
X58.801Y24.13
X52.959Y23.368
X60.452Y25.781
X68.44601Y29.71811
T02
X142.31897Y13.07513
X139.77897Y13.07513
X127.07897Y13.07513
X129.61897Y13.07513
X132.15897Y13.07513
X134.69897Y13.07513
X137.23897Y13.07513
X119.45897Y13.07513
X121.99897Y13.07513
X124.53897Y13.07513
X124.81682Y26.5877
X122.14982Y26.5877
X119.73682Y26.5877
X117.19682Y26.5877
X114.52982Y26.5877
X112.11682Y26.5877
X109.44982Y26.5877
X132.30982Y26.5877
X129.89682Y26.5877
X127.22982Y26.5877
X123.698Y29.98927
X126.238Y29.98927
X128.778Y29.98927
X131.318Y29.98927
X133.858Y29.98927
X136.398Y29.98927
X138.938Y29.98927
X141.478Y29.98927
X118.60936Y29.98064
X121.16664Y29.99791
X131.76079Y42.31891
X126.619Y42.30827
X129.159Y42.30827
X113.919Y42.30827
X116.459Y42.30827
X118.999Y42.30827
X121.539Y42.30827
X124.079Y42.30827
X108.839Y42.30827
X111.379Y42.30827
X9.18597Y42.80442
X19.09197Y42.93142
X29.12497Y42.93142
X39.03097Y42.93142
T03
X29.464Y33.274
X28.194Y33.274
X26.924Y33.274
X30.734Y28.194
X26.924Y29.464
X26.924Y26.924
X30.734Y32.004
X28.194Y29.464
X28.194Y26.924
X29.464Y32.004
X29.464Y30.734
X29.464Y28.194
X29.464Y26.924
X31.953Y23.063
X30.734Y23.114
X26.924Y24.384
X26.924Y21.844
X26.924Y20.574
X28.194Y24.384
X28.194Y21.844
X28.194Y20.574
X29.464Y23.114
X29.464Y19.304
X30.734Y19.304
X33.274Y32.004
X33.274Y28.194
X34.544Y26.924
X33.274Y23.114
X33.274Y19.304
X34.544Y24.384
X33.325Y24.333
X34.544Y20.574
X35.814Y19.304
X35.814Y20.574
X35.814Y23.114
X24.05606Y41.402
X22.987Y23.241
X22.987Y22.479
X22.987Y21.717
X22.987Y20.955
X22.987Y20.193
X17.78Y34.417
X16.891Y37.592
X33.655Y14.097
X41.529Y11.938
X54.483Y18.415
X56.007Y18.415
X59.817Y18.415
X63.373Y18.415
X65.024Y18.415
X44.71419Y33.782
X47.25419Y33.782
X49.784Y33.782
X52.07Y47.752
X50.038Y43.688
X54.483Y43.942
X54.85633Y35.9057
X50.546Y35.052
X72.136Y18.415
X76.2Y18.542
X77.851Y18.542
X81.28Y18.542
X84.82736Y18.542
X83.058Y18.542
X77.34346Y38.735
X79.37546Y38.735
X81.40746Y38.735
X83.31246Y38.735
X91.313Y36.83
X92.964Y36.83
X94.67741Y36.83
X96.393Y36.83
X98.044Y36.83
X99.695Y36.83
X101.346Y36.83
X102.997Y36.83
X92.329Y18.415
X93.98Y18.415
X95.63964Y18.415
X97.282Y18.415
X98.933Y18.415
X100.711Y18.415
X102.489Y18.415
X104.267Y18.415
X73.15514Y27.051
X77.724Y27.051
X82.55314Y27.051
X87.03763Y27.051
X91.82414Y27.051
X96.95091Y27.051
X101.727Y27.051
X105.68111Y27.051
X46.863Y38.481
M30