G04 Layer: BottomPasteMaskLayer*
G04 EasyEDA Pro v2.2.32.3, 2024-12-23 12:01:23*
G04 Gerber Generator version 0.3*
G04 Scale: 100 percent, Rotated: No, Reflected: No*
G04 Dimensions in millimeters*
G04 Leading zeros omitted, absolute positions, 3 integers and 5 decimals*
%FSLAX35Y35*%
%MOMM*%
%ADD10R,0.8X0.9*%
%ADD11R,0.8X0.9*%
%ADD12R,0.9X0.8*%
%ADD13R,0.9X0.8*%
G75*


G04 PolygonModel Start*
G36*
G01X2964498Y3466600D02*
G01X2964498Y3594598D01*
G01X2959496Y3599599D01*
G01X2844495Y3599599D01*
G01X2839496Y3594598D01*
G01X2838994Y3553595D01*
G01X2883995Y3553595D01*
G01X2883995Y3508596D01*
G01X2839994Y3508596D01*
G01X2839496Y3466600D01*
G01X2844495Y3461598D01*
G01X2959496Y3461598D01*
G01X2964498Y3466600D01*
G37*
G36*
G01X2623503Y3594600D02*
G01X2623503Y3466602D01*
G01X2628504Y3461601D01*
G01X2743505Y3461601D01*
G01X2748504Y3466602D01*
G01X2749006Y3507605D01*
G01X2704005Y3507605D01*
G01X2704005Y3552604D01*
G01X2748006Y3552604D01*
G01X2748504Y3594600D01*
G01X2743505Y3599602D01*
G01X2628504Y3599602D01*
G01X2623503Y3594600D01*
G37*
G36*
G01X2433003Y3175500D02*
G01X2433003Y3047502D01*
G01X2438004Y3042501D01*
G01X2553005Y3042501D01*
G01X2558004Y3047502D01*
G01X2558506Y3088505D01*
G01X2513505Y3088505D01*
G01X2513505Y3133504D01*
G01X2557506Y3133504D01*
G01X2558004Y3175500D01*
G01X2553005Y3180502D01*
G01X2438004Y3180502D01*
G01X2433003Y3175500D01*
G37*
G36*
G01X2773998Y3047500D02*
G01X2773998Y3175498D01*
G01X2768996Y3180499D01*
G01X2653995Y3180499D01*
G01X2648996Y3175498D01*
G01X2648494Y3134495D01*
G01X2693495Y3134495D01*
G01X2693495Y3089496D01*
G01X2649494Y3089496D01*
G01X2648996Y3047500D01*
G01X2653995Y3042498D01*
G01X2768996Y3042498D01*
G01X2773998Y3047500D01*
G37*
G36*
G01X2578600Y2951798D02*
G01X2450602Y2951798D01*
G01X2445601Y2946796D01*
G01X2445601Y2831795D01*
G01X2450602Y2826796D01*
G01X2491605Y2826294D01*
G01X2491605Y2871295D01*
G01X2536604Y2871295D01*
G01X2536604Y2827294D01*
G01X2578600Y2826796D01*
G01X2583602Y2831795D01*
G01X2583602Y2946796D01*
G01X2578600Y2951798D01*
G37*
G36*
G01X2450600Y2610803D02*
G01X2578598Y2610803D01*
G01X2583599Y2615804D01*
G01X2583599Y2730805D01*
G01X2578598Y2735804D01*
G01X2537595Y2736306D01*
G01X2537595Y2691305D01*
G01X2492596Y2691305D01*
G01X2492596Y2735306D01*
G01X2450600Y2735804D01*
G01X2445598Y2730805D01*
G01X2445598Y2615804D01*
G01X2450600Y2610803D01*
G37*
G36*
G01X2450600Y2191703D02*
G01X2578598Y2191703D01*
G01X2583599Y2196704D01*
G01X2583599Y2311705D01*
G01X2578598Y2316704D01*
G01X2537595Y2317206D01*
G01X2537595Y2272205D01*
G01X2492596Y2272205D01*
G01X2492596Y2316206D01*
G01X2450600Y2316704D01*
G01X2445598Y2311705D01*
G01X2445598Y2196704D01*
G01X2450600Y2191703D01*
G37*
G36*
G01X2578600Y2532698D02*
G01X2450602Y2532698D01*
G01X2445601Y2527696D01*
G01X2445601Y2412695D01*
G01X2450602Y2407696D01*
G01X2491605Y2407194D01*
G01X2491605Y2452195D01*
G01X2536604Y2452195D01*
G01X2536604Y2408194D01*
G01X2578600Y2407696D01*
G01X2583602Y2412695D01*
G01X2583602Y2527696D01*
G01X2578600Y2532698D01*
G37*
G36*
G01X2804701Y3867000D02*
G01X2735600Y3867000D01*
G01X2725600Y3857000D01*
G01X2725600Y3821410D01*
G01X2715600Y3811410D01*
G01X2643800Y3811410D01*
G01X2633800Y3821410D01*
G01X2633800Y3857000D01*
G01X2623800Y3867000D01*
G01X2554699Y3867000D01*
G01X2544699Y3857000D01*
G01X2544699Y3713500D01*
G01X2554699Y3703500D01*
G01X2804701Y3703500D01*
G01X2814701Y3713500D01*
G01X2814701Y3857000D01*
G01X2804701Y3867000D01*
G37*
G36*
G01X2804701Y4007000D02*
G01X2735600Y4007000D01*
G01X2725600Y4017000D01*
G01X2725600Y4052590D01*
G01X2715600Y4062590D01*
G01X2643800Y4062590D01*
G01X2633800Y4052590D01*
G01X2633800Y4017000D01*
G01X2623800Y4007000D01*
G01X2554699Y4007000D01*
G01X2544699Y4017000D01*
G01X2544699Y4160500D01*
G01X2554699Y4170500D01*
G01X2804701Y4170500D01*
G01X2814701Y4160500D01*
G01X2814701Y4017000D01*
G01X2804701Y4007000D01*
G37*
G36*
G01X1983199Y3130700D02*
G01X2052300Y3130700D01*
G01X2062300Y3140700D01*
G01X2062300Y3176290D01*
G01X2072300Y3186290D01*
G01X2144100Y3186290D01*
G01X2154100Y3176290D01*
G01X2154100Y3140700D01*
G01X2164100Y3130700D01*
G01X2233201Y3130700D01*
G01X2243201Y3140700D01*
G01X2243201Y3284200D01*
G01X2233201Y3294200D01*
G01X1983199Y3294200D01*
G01X1973199Y3284200D01*
G01X1973199Y3140700D01*
G01X1983199Y3130700D01*
G37*
G36*
G01X1983199Y2990700D02*
G01X2052300Y2990700D01*
G01X2062300Y2980700D01*
G01X2062300Y2945110D01*
G01X2072300Y2935110D01*
G01X2144100Y2935110D01*
G01X2154100Y2945110D01*
G01X2154100Y2980700D01*
G01X2164100Y2990700D01*
G01X2233201Y2990700D01*
G01X2243201Y2980700D01*
G01X2243201Y2837200D01*
G01X2233201Y2827200D01*
G01X1983199Y2827200D01*
G01X1973199Y2837200D01*
G01X1973199Y2980700D01*
G01X1983199Y2990700D01*
G37*
G36*
G01X2851000Y1475199D02*
G01X2851000Y1544300D01*
G01X2841000Y1554300D01*
G01X2805410Y1554300D01*
G01X2795410Y1564300D01*
G01X2795410Y1636100D01*
G01X2805410Y1646100D01*
G01X2841000Y1646100D01*
G01X2851000Y1656100D01*
G01X2851000Y1725201D01*
G01X2841000Y1735201D01*
G01X2697500Y1735201D01*
G01X2687500Y1725201D01*
G01X2687500Y1475199D01*
G01X2697500Y1465199D01*
G01X2841000Y1465199D01*
G01X2851000Y1475199D01*
G37*
G36*
G01X2991000Y1475199D02*
G01X2991000Y1544300D01*
G01X3001000Y1554300D01*
G01X3036590Y1554300D01*
G01X3046590Y1564300D01*
G01X3046590Y1636100D01*
G01X3036590Y1646100D01*
G01X3001000Y1646100D01*
G01X2991000Y1656100D01*
G01X2991000Y1725201D01*
G01X3001000Y1735201D01*
G01X3144500Y1735201D01*
G01X3154500Y1725201D01*
G01X3154500Y1475199D01*
G01X3144500Y1465199D01*
G01X3001000Y1465199D01*
G01X2991000Y1475199D01*
G37*
G36*
G01X3287301Y3867000D02*
G01X3218200Y3867000D01*
G01X3208200Y3857000D01*
G01X3208200Y3821410D01*
G01X3198200Y3811410D01*
G01X3126400Y3811410D01*
G01X3116400Y3821410D01*
G01X3116400Y3857000D01*
G01X3106400Y3867000D01*
G01X3037299Y3867000D01*
G01X3027299Y3857000D01*
G01X3027299Y3713500D01*
G01X3037299Y3703500D01*
G01X3287301Y3703500D01*
G01X3297301Y3713500D01*
G01X3297301Y3857000D01*
G01X3287301Y3867000D01*
G37*
G36*
G01X3287301Y4007000D02*
G01X3218200Y4007000D01*
G01X3208200Y4017000D01*
G01X3208200Y4052590D01*
G01X3198200Y4062590D01*
G01X3126400Y4062590D01*
G01X3116400Y4052590D01*
G01X3116400Y4017000D01*
G01X3106400Y4007000D01*
G01X3037299Y4007000D01*
G01X3027299Y4017000D01*
G01X3027299Y4160500D01*
G01X3037299Y4170500D01*
G01X3287301Y4170500D01*
G01X3297301Y4160500D01*
G01X3297301Y4017000D01*
G01X3287301Y4007000D01*
G37*
G36*
G01X7137639Y3783002D02*
G01X7137639Y3810653D01*
G01X7110219Y3840028D01*
G01X7059892Y3840028D01*
G01X7053491Y3833627D01*
G01X7053491Y3760028D01*
G01X7059892Y3753627D01*
G01X7110219Y3753627D01*
G01X7137639Y3783002D01*
G37*
G36*
G01X7189203Y3781877D02*
G01X7189203Y3809528D01*
G01X7216623Y3838903D01*
G01X7266950Y3838903D01*
G01X7273351Y3832502D01*
G01X7273351Y3758903D01*
G01X7266950Y3752502D01*
G01X7216623Y3752502D01*
G01X7189203Y3781877D01*
G37*
G36*
G01X5259398Y2756139D02*
G01X5231747Y2756139D01*
G01X5202372Y2728719D01*
G01X5202372Y2678392D01*
G01X5208773Y2671991D01*
G01X5282372Y2671991D01*
G01X5288773Y2678392D01*
G01X5288773Y2728719D01*
G01X5259398Y2756139D01*
G37*
G36*
G01X5260523Y2807703D02*
G01X5232872Y2807703D01*
G01X5203497Y2835123D01*
G01X5203497Y2885450D01*
G01X5209898Y2891851D01*
G01X5283497Y2891851D01*
G01X5289898Y2885450D01*
G01X5289898Y2835123D01*
G01X5260523Y2807703D01*
G37*
G36*
G01X5580502Y2647401D02*
G01X5500502Y2647401D01*
G01X5495501Y2652403D01*
G01X5495501Y2675199D01*
G01X5532501Y2675199D01*
G01X5532501Y2708199D01*
G01X5495501Y2708199D01*
G01X5495501Y2732402D01*
G01X5500502Y2737401D01*
G01X5580502Y2737401D01*
G01X5585501Y2732402D01*
G01X5585501Y2652403D01*
G01X5580502Y2647401D01*
G37*
G36*
G01X5341498Y2737399D02*
G01X5421498Y2737399D01*
G01X5426499Y2732397D01*
G01X5426499Y2709601D01*
G01X5389499Y2709601D01*
G01X5389499Y2676601D01*
G01X5426499Y2676601D01*
G01X5426499Y2652398D01*
G01X5421498Y2647399D01*
G01X5341498Y2647399D01*
G01X5336499Y2652398D01*
G01X5336499Y2732397D01*
G01X5341498Y2737399D01*
G37*
G36*
G01X5378999Y4120002D02*
G01X5378999Y4040002D01*
G01X5373997Y4035001D01*
G01X5351201Y4035001D01*
G01X5351201Y4072001D01*
G01X5318201Y4072001D01*
G01X5318201Y4035001D01*
G01X5293998Y4035001D01*
G01X5288999Y4040002D01*
G01X5288999Y4120002D01*
G01X5293998Y4125001D01*
G01X5373997Y4125001D01*
G01X5378999Y4120002D01*
G37*
G36*
G01X5289001Y3880998D02*
G01X5289001Y3960998D01*
G01X5294003Y3965999D01*
G01X5316799Y3965999D01*
G01X5316799Y3928999D01*
G01X5349799Y3928999D01*
G01X5349799Y3965999D01*
G01X5374002Y3965999D01*
G01X5379001Y3960998D01*
G01X5379001Y3880998D01*
G01X5374002Y3875999D01*
G01X5294003Y3875999D01*
G01X5289001Y3880998D01*
G37*
G36*
G01X5582199Y2189602D02*
G01X5582199Y2109602D01*
G01X5577197Y2104601D01*
G01X5554401Y2104601D01*
G01X5554401Y2141601D01*
G01X5521401Y2141601D01*
G01X5521401Y2104601D01*
G01X5497198Y2104601D01*
G01X5492199Y2109602D01*
G01X5492199Y2189602D01*
G01X5497198Y2194601D01*
G01X5577197Y2194601D01*
G01X5582199Y2189602D01*
G37*
G36*
G01X5492201Y1950598D02*
G01X5492201Y2030598D01*
G01X5497203Y2035599D01*
G01X5519999Y2035599D01*
G01X5519999Y1998599D01*
G01X5552999Y1998599D01*
G01X5552999Y2035599D01*
G01X5577202Y2035599D01*
G01X5582201Y2030598D01*
G01X5582201Y1950598D01*
G01X5577202Y1945599D01*
G01X5497203Y1945599D01*
G01X5492201Y1950598D01*
G37*
G36*
G01X5378999Y3789802D02*
G01X5378999Y3709802D01*
G01X5373997Y3704801D01*
G01X5351201Y3704801D01*
G01X5351201Y3741801D01*
G01X5318201Y3741801D01*
G01X5318201Y3704801D01*
G01X5293998Y3704801D01*
G01X5288999Y3709802D01*
G01X5288999Y3789802D01*
G01X5293998Y3794801D01*
G01X5373997Y3794801D01*
G01X5378999Y3789802D01*
G37*
G36*
G01X5289001Y3550798D02*
G01X5289001Y3630798D01*
G01X5294003Y3635799D01*
G01X5316799Y3635799D01*
G01X5316799Y3598799D01*
G01X5349799Y3598799D01*
G01X5349799Y3635799D01*
G01X5374002Y3635799D01*
G01X5379001Y3630798D01*
G01X5379001Y3550798D01*
G01X5374002Y3545799D01*
G01X5294003Y3545799D01*
G01X5289001Y3550798D01*
G37*
G36*
G01X13848801Y3030098D02*
G01X13848801Y3110098D01*
G01X13853803Y3115099D01*
G01X13876599Y3115099D01*
G01X13876599Y3078099D01*
G01X13909599Y3078099D01*
G01X13909599Y3115099D01*
G01X13933802Y3115099D01*
G01X13938801Y3110098D01*
G01X13938801Y3030098D01*
G01X13933802Y3025099D01*
G01X13853803Y3025099D01*
G01X13848801Y3030098D01*
G37*
G36*
G01X13938799Y3269102D02*
G01X13938799Y3189102D01*
G01X13933797Y3184101D01*
G01X13911001Y3184101D01*
G01X13911001Y3221101D01*
G01X13878001Y3221101D01*
G01X13878001Y3184101D01*
G01X13853798Y3184101D01*
G01X13848799Y3189102D01*
G01X13848799Y3269102D01*
G01X13853798Y3274101D01*
G01X13933797Y3274101D01*
G01X13938799Y3269102D01*
G37*
G36*
G01X14102801Y3030098D02*
G01X14102801Y3110098D01*
G01X14107803Y3115099D01*
G01X14130599Y3115099D01*
G01X14130599Y3078099D01*
G01X14163599Y3078099D01*
G01X14163599Y3115099D01*
G01X14187802Y3115099D01*
G01X14192801Y3110098D01*
G01X14192801Y3030098D01*
G01X14187802Y3025099D01*
G01X14107803Y3025099D01*
G01X14102801Y3030098D01*
G37*
G36*
G01X14192799Y3269102D02*
G01X14192799Y3189102D01*
G01X14187797Y3184101D01*
G01X14165001Y3184101D01*
G01X14165001Y3221101D01*
G01X14132001Y3221101D01*
G01X14132001Y3184101D01*
G01X14107798Y3184101D01*
G01X14102799Y3189102D01*
G01X14102799Y3269102D01*
G01X14107798Y3274101D01*
G01X14187797Y3274101D01*
G01X14192799Y3269102D01*
G37*
G36*
G01X13594801Y3030098D02*
G01X13594801Y3110098D01*
G01X13599803Y3115099D01*
G01X13622599Y3115099D01*
G01X13622599Y3078099D01*
G01X13655599Y3078099D01*
G01X13655599Y3115099D01*
G01X13679802Y3115099D01*
G01X13684801Y3110098D01*
G01X13684801Y3030098D01*
G01X13679802Y3025099D01*
G01X13599803Y3025099D01*
G01X13594801Y3030098D01*
G37*
G36*
G01X13684799Y3269102D02*
G01X13684799Y3189102D01*
G01X13679797Y3184101D01*
G01X13657001Y3184101D01*
G01X13657001Y3221101D01*
G01X13624001Y3221101D01*
G01X13624001Y3184101D01*
G01X13599798Y3184101D01*
G01X13594799Y3189102D01*
G01X13594799Y3269102D01*
G01X13599798Y3274101D01*
G01X13679797Y3274101D01*
G01X13684799Y3269102D01*
G37*
G36*
G01X13086801Y3030098D02*
G01X13086801Y3110098D01*
G01X13091803Y3115099D01*
G01X13114599Y3115099D01*
G01X13114599Y3078099D01*
G01X13147599Y3078099D01*
G01X13147599Y3115099D01*
G01X13171802Y3115099D01*
G01X13176801Y3110098D01*
G01X13176801Y3030098D01*
G01X13171802Y3025099D01*
G01X13091803Y3025099D01*
G01X13086801Y3030098D01*
G37*
G36*
G01X13176799Y3269102D02*
G01X13176799Y3189102D01*
G01X13171797Y3184101D01*
G01X13149001Y3184101D01*
G01X13149001Y3221101D01*
G01X13116001Y3221101D01*
G01X13116001Y3184101D01*
G01X13091798Y3184101D01*
G01X13086799Y3189102D01*
G01X13086799Y3269102D01*
G01X13091798Y3274101D01*
G01X13171797Y3274101D01*
G01X13176799Y3269102D01*
G37*
G36*
G01X13340801Y3030098D02*
G01X13340801Y3110098D01*
G01X13345803Y3115099D01*
G01X13368599Y3115099D01*
G01X13368599Y3078099D01*
G01X13401599Y3078099D01*
G01X13401599Y3115099D01*
G01X13425802Y3115099D01*
G01X13430801Y3110098D01*
G01X13430801Y3030098D01*
G01X13425802Y3025099D01*
G01X13345803Y3025099D01*
G01X13340801Y3030098D01*
G37*
G36*
G01X13430799Y3269102D02*
G01X13430799Y3189102D01*
G01X13425797Y3184101D01*
G01X13403001Y3184101D01*
G01X13403001Y3221101D01*
G01X13370001Y3221101D01*
G01X13370001Y3184101D01*
G01X13345798Y3184101D01*
G01X13340799Y3189102D01*
G01X13340799Y3269102D01*
G01X13345798Y3274101D01*
G01X13425797Y3274101D01*
G01X13430799Y3269102D01*
G37*
G36*
G01X12578801Y3030098D02*
G01X12578801Y3110098D01*
G01X12583803Y3115099D01*
G01X12606599Y3115099D01*
G01X12606599Y3078099D01*
G01X12639599Y3078099D01*
G01X12639599Y3115099D01*
G01X12663802Y3115099D01*
G01X12668801Y3110098D01*
G01X12668801Y3030098D01*
G01X12663802Y3025099D01*
G01X12583803Y3025099D01*
G01X12578801Y3030098D01*
G37*
G36*
G01X12668799Y3269102D02*
G01X12668799Y3189102D01*
G01X12663797Y3184101D01*
G01X12641001Y3184101D01*
G01X12641001Y3221101D01*
G01X12608001Y3221101D01*
G01X12608001Y3184101D01*
G01X12583798Y3184101D01*
G01X12578799Y3189102D01*
G01X12578799Y3269102D01*
G01X12583798Y3274101D01*
G01X12663797Y3274101D01*
G01X12668799Y3269102D01*
G37*
G36*
G01X12832801Y3030098D02*
G01X12832801Y3110098D01*
G01X12837803Y3115099D01*
G01X12860599Y3115099D01*
G01X12860599Y3078099D01*
G01X12893599Y3078099D01*
G01X12893599Y3115099D01*
G01X12917802Y3115099D01*
G01X12922801Y3110098D01*
G01X12922801Y3030098D01*
G01X12917802Y3025099D01*
G01X12837803Y3025099D01*
G01X12832801Y3030098D01*
G37*
G36*
G01X12922799Y3269102D02*
G01X12922799Y3189102D01*
G01X12917797Y3184101D01*
G01X12895001Y3184101D01*
G01X12895001Y3221101D01*
G01X12862001Y3221101D01*
G01X12862001Y3184101D01*
G01X12837798Y3184101D01*
G01X12832799Y3189102D01*
G01X12832799Y3269102D01*
G01X12837798Y3274101D01*
G01X12917797Y3274101D01*
G01X12922799Y3269102D01*
G37*
G36*
G01X7396602Y2317201D02*
G01X7316602Y2317201D01*
G01X7311601Y2322203D01*
G01X7311601Y2344999D01*
G01X7348601Y2344999D01*
G01X7348601Y2377999D01*
G01X7311601Y2377999D01*
G01X7311601Y2402202D01*
G01X7316602Y2407201D01*
G01X7396602Y2407201D01*
G01X7401601Y2402202D01*
G01X7401601Y2322203D01*
G01X7396602Y2317201D01*
G37*
G36*
G01X7157598Y2407199D02*
G01X7237598Y2407199D01*
G01X7242599Y2402197D01*
G01X7242599Y2379401D01*
G01X7205599Y2379401D01*
G01X7205599Y2346401D01*
G01X7242599Y2346401D01*
G01X7242599Y2322198D01*
G01X7237598Y2317199D01*
G01X7157598Y2317199D01*
G01X7152599Y2322198D01*
G01X7152599Y2402197D01*
G01X7157598Y2407199D01*
G37*
G36*
G01X7396602Y2469601D02*
G01X7316602Y2469601D01*
G01X7311601Y2474603D01*
G01X7311601Y2497399D01*
G01X7348601Y2497399D01*
G01X7348601Y2530399D01*
G01X7311601Y2530399D01*
G01X7311601Y2554602D01*
G01X7316602Y2559601D01*
G01X7396602Y2559601D01*
G01X7401601Y2554602D01*
G01X7401601Y2474603D01*
G01X7396602Y2469601D01*
G37*
G36*
G01X7157598Y2559599D02*
G01X7237598Y2559599D01*
G01X7242599Y2554597D01*
G01X7242599Y2531801D01*
G01X7205599Y2531801D01*
G01X7205599Y2498801D01*
G01X7242599Y2498801D01*
G01X7242599Y2474598D01*
G01X7237598Y2469599D01*
G01X7157598Y2469599D01*
G01X7152599Y2474598D01*
G01X7152599Y2554597D01*
G01X7157598Y2559599D01*
G37*
G36*
G01X12324801Y3030098D02*
G01X12324801Y3110098D01*
G01X12329803Y3115099D01*
G01X12352599Y3115099D01*
G01X12352599Y3078099D01*
G01X12385599Y3078099D01*
G01X12385599Y3115099D01*
G01X12409802Y3115099D01*
G01X12414801Y3110098D01*
G01X12414801Y3030098D01*
G01X12409802Y3025099D01*
G01X12329803Y3025099D01*
G01X12324801Y3030098D01*
G37*
G36*
G01X12414799Y3269102D02*
G01X12414799Y3189102D01*
G01X12409797Y3184101D01*
G01X12387001Y3184101D01*
G01X12387001Y3221101D01*
G01X12354001Y3221101D01*
G01X12354001Y3184101D01*
G01X12329798Y3184101D01*
G01X12324799Y3189102D01*
G01X12324799Y3269102D01*
G01X12329798Y3274101D01*
G01X12409797Y3274101D01*
G01X12414799Y3269102D01*
G37*
G36*
G01X11815938Y3029234D02*
G01X11815938Y3109234D01*
G01X11820939Y3114236D01*
G01X11843736Y3114236D01*
G01X11843736Y3077235D01*
G01X11876735Y3077235D01*
G01X11876735Y3114236D01*
G01X11900939Y3114236D01*
G01X11905938Y3109234D01*
G01X11905938Y3029234D01*
G01X11900939Y3024236D01*
G01X11820939Y3024236D01*
G01X11815938Y3029234D01*
G37*
G36*
G01X11905935Y3268238D02*
G01X11905935Y3188238D01*
G01X11900934Y3183237D01*
G01X11878137Y3183237D01*
G01X11878137Y3220237D01*
G01X11845138Y3220237D01*
G01X11845138Y3183237D01*
G01X11820934Y3183237D01*
G01X11815935Y3188238D01*
G01X11815935Y3268238D01*
G01X11820934Y3273237D01*
G01X11900934Y3273237D01*
G01X11905935Y3268238D01*
G37*
G36*
G01X12071665Y3030962D02*
G01X12071665Y3110962D01*
G01X12076666Y3115963D01*
G01X12099463Y3115963D01*
G01X12099463Y3078963D01*
G01X12132462Y3078963D01*
G01X12132462Y3115963D01*
G01X12156666Y3115963D01*
G01X12161665Y3110962D01*
G01X12161665Y3030962D01*
G01X12156666Y3025963D01*
G01X12076666Y3025963D01*
G01X12071665Y3030962D01*
G37*
G36*
G01X12161662Y3269966D02*
G01X12161662Y3189966D01*
G01X12156661Y3184964D01*
G01X12133864Y3184964D01*
G01X12133864Y3221965D01*
G01X12100865Y3221965D01*
G01X12100865Y3184964D01*
G01X12076661Y3184964D01*
G01X12071662Y3189966D01*
G01X12071662Y3269966D01*
G01X12076661Y3274964D01*
G01X12156661Y3274964D01*
G01X12161662Y3269966D01*
G37*
G36*
G01X11182899Y4501002D02*
G01X11182899Y4421002D01*
G01X11177897Y4416001D01*
G01X11155101Y4416001D01*
G01X11155101Y4453001D01*
G01X11122101Y4453001D01*
G01X11122101Y4416001D01*
G01X11097898Y4416001D01*
G01X11092899Y4421002D01*
G01X11092899Y4501002D01*
G01X11097898Y4506001D01*
G01X11177897Y4506001D01*
G01X11182899Y4501002D01*
G37*
G36*
G01X11092901Y4261998D02*
G01X11092901Y4341998D01*
G01X11097903Y4346999D01*
G01X11120699Y4346999D01*
G01X11120699Y4309999D01*
G01X11153699Y4309999D01*
G01X11153699Y4346999D01*
G01X11177902Y4346999D01*
G01X11182901Y4341998D01*
G01X11182901Y4261998D01*
G01X11177902Y4256999D01*
G01X11097903Y4256999D01*
G01X11092901Y4261998D01*
G37*
G36*
G01X10928899Y4501002D02*
G01X10928899Y4421002D01*
G01X10923897Y4416001D01*
G01X10901101Y4416001D01*
G01X10901101Y4453001D01*
G01X10868101Y4453001D01*
G01X10868101Y4416001D01*
G01X10843898Y4416001D01*
G01X10838899Y4421002D01*
G01X10838899Y4501002D01*
G01X10843898Y4506001D01*
G01X10923897Y4506001D01*
G01X10928899Y4501002D01*
G37*
G36*
G01X10838901Y4261998D02*
G01X10838901Y4341998D01*
G01X10843903Y4346999D01*
G01X10866699Y4346999D01*
G01X10866699Y4309999D01*
G01X10899699Y4309999D01*
G01X10899699Y4346999D01*
G01X10923902Y4346999D01*
G01X10928901Y4341998D01*
G01X10928901Y4261998D01*
G01X10923902Y4256999D01*
G01X10843903Y4256999D01*
G01X10838901Y4261998D01*
G37*
G36*
G01X11436899Y4501002D02*
G01X11436899Y4421002D01*
G01X11431897Y4416001D01*
G01X11409101Y4416001D01*
G01X11409101Y4453001D01*
G01X11376101Y4453001D01*
G01X11376101Y4416001D01*
G01X11351898Y4416001D01*
G01X11346899Y4421002D01*
G01X11346899Y4501002D01*
G01X11351898Y4506001D01*
G01X11431897Y4506001D01*
G01X11436899Y4501002D01*
G37*
G36*
G01X11346901Y4261998D02*
G01X11346901Y4341998D01*
G01X11351903Y4346999D01*
G01X11374699Y4346999D01*
G01X11374699Y4309999D01*
G01X11407699Y4309999D01*
G01X11407699Y4346999D01*
G01X11431902Y4346999D01*
G01X11436901Y4341998D01*
G01X11436901Y4261998D01*
G01X11431902Y4256999D01*
G01X11351903Y4256999D01*
G01X11346901Y4261998D01*
G37*
G36*
G01X12198899Y4501002D02*
G01X12198899Y4421002D01*
G01X12193897Y4416001D01*
G01X12171101Y4416001D01*
G01X12171101Y4453001D01*
G01X12138101Y4453001D01*
G01X12138101Y4416001D01*
G01X12113898Y4416001D01*
G01X12108899Y4421002D01*
G01X12108899Y4501002D01*
G01X12113898Y4506001D01*
G01X12193897Y4506001D01*
G01X12198899Y4501002D01*
G37*
G36*
G01X12108901Y4261998D02*
G01X12108901Y4341998D01*
G01X12113903Y4346999D01*
G01X12136699Y4346999D01*
G01X12136699Y4309999D01*
G01X12169699Y4309999D01*
G01X12169699Y4346999D01*
G01X12193902Y4346999D01*
G01X12198901Y4341998D01*
G01X12198901Y4261998D01*
G01X12193902Y4256999D01*
G01X12113903Y4256999D01*
G01X12108901Y4261998D01*
G37*
G36*
G01X11944899Y4501002D02*
G01X11944899Y4421002D01*
G01X11939897Y4416001D01*
G01X11917101Y4416001D01*
G01X11917101Y4453001D01*
G01X11884101Y4453001D01*
G01X11884101Y4416001D01*
G01X11859898Y4416001D01*
G01X11854899Y4421002D01*
G01X11854899Y4501002D01*
G01X11859898Y4506001D01*
G01X11939897Y4506001D01*
G01X11944899Y4501002D01*
G37*
G36*
G01X11854901Y4261998D02*
G01X11854901Y4341998D01*
G01X11859903Y4346999D01*
G01X11882699Y4346999D01*
G01X11882699Y4309999D01*
G01X11915699Y4309999D01*
G01X11915699Y4346999D01*
G01X11939902Y4346999D01*
G01X11944901Y4341998D01*
G01X11944901Y4261998D01*
G01X11939902Y4256999D01*
G01X11859903Y4256999D01*
G01X11854901Y4261998D01*
G37*
G36*
G01X11690899Y4501002D02*
G01X11690899Y4421002D01*
G01X11685897Y4416001D01*
G01X11663101Y4416001D01*
G01X11663101Y4453001D01*
G01X11630101Y4453001D01*
G01X11630101Y4416001D01*
G01X11605898Y4416001D01*
G01X11600899Y4421002D01*
G01X11600899Y4501002D01*
G01X11605898Y4506001D01*
G01X11685897Y4506001D01*
G01X11690899Y4501002D01*
G37*
G36*
G01X11600901Y4261998D02*
G01X11600901Y4341998D01*
G01X11605903Y4346999D01*
G01X11628699Y4346999D01*
G01X11628699Y4309999D01*
G01X11661699Y4309999D01*
G01X11661699Y4346999D01*
G01X11685902Y4346999D01*
G01X11690901Y4341998D01*
G01X11690901Y4261998D01*
G01X11685902Y4256999D01*
G01X11605903Y4256999D01*
G01X11600901Y4261998D01*
G37*
G36*
G01X12706899Y4501002D02*
G01X12706899Y4421002D01*
G01X12701897Y4416001D01*
G01X12679101Y4416001D01*
G01X12679101Y4453001D01*
G01X12646101Y4453001D01*
G01X12646101Y4416001D01*
G01X12621898Y4416001D01*
G01X12616899Y4421002D01*
G01X12616899Y4501002D01*
G01X12621898Y4506001D01*
G01X12701897Y4506001D01*
G01X12706899Y4501002D01*
G37*
G36*
G01X12616901Y4261998D02*
G01X12616901Y4341998D01*
G01X12621903Y4346999D01*
G01X12644699Y4346999D01*
G01X12644699Y4309999D01*
G01X12677699Y4309999D01*
G01X12677699Y4346999D01*
G01X12701902Y4346999D01*
G01X12706901Y4341998D01*
G01X12706901Y4261998D01*
G01X12701902Y4256999D01*
G01X12621903Y4256999D01*
G01X12616901Y4261998D01*
G37*
G36*
G01X12452899Y4501002D02*
G01X12452899Y4421002D01*
G01X12447897Y4416001D01*
G01X12425101Y4416001D01*
G01X12425101Y4453001D01*
G01X12392101Y4453001D01*
G01X12392101Y4416001D01*
G01X12367898Y4416001D01*
G01X12362899Y4421002D01*
G01X12362899Y4501002D01*
G01X12367898Y4506001D01*
G01X12447897Y4506001D01*
G01X12452899Y4501002D01*
G37*
G36*
G01X12362901Y4261998D02*
G01X12362901Y4341998D01*
G01X12367903Y4346999D01*
G01X12390699Y4346999D01*
G01X12390699Y4309999D01*
G01X12423699Y4309999D01*
G01X12423699Y4346999D01*
G01X12447902Y4346999D01*
G01X12452901Y4341998D01*
G01X12452901Y4261998D01*
G01X12447902Y4256999D01*
G01X12367903Y4256999D01*
G01X12362901Y4261998D01*
G37*
G36*
G01X12960899Y4501002D02*
G01X12960899Y4421002D01*
G01X12955897Y4416001D01*
G01X12933101Y4416001D01*
G01X12933101Y4453001D01*
G01X12900101Y4453001D01*
G01X12900101Y4416001D01*
G01X12875898Y4416001D01*
G01X12870899Y4421002D01*
G01X12870899Y4501002D01*
G01X12875898Y4506001D01*
G01X12955897Y4506001D01*
G01X12960899Y4501002D01*
G37*
G36*
G01X12870901Y4261998D02*
G01X12870901Y4341998D01*
G01X12875903Y4346999D01*
G01X12898699Y4346999D01*
G01X12898699Y4309999D01*
G01X12931699Y4309999D01*
G01X12931699Y4346999D01*
G01X12955902Y4346999D01*
G01X12960901Y4341998D01*
G01X12960901Y4261998D01*
G01X12955902Y4256999D01*
G01X12875903Y4256999D01*
G01X12870901Y4261998D01*
G37*
G36*
G01X13221077Y4502066D02*
G01X13221077Y4422066D01*
G01X13216076Y4417065D01*
G01X13193279Y4417065D01*
G01X13193279Y4454065D01*
G01X13160280Y4454065D01*
G01X13160280Y4417065D01*
G01X13136076Y4417065D01*
G01X13131077Y4422066D01*
G01X13131077Y4502066D01*
G01X13136076Y4507065D01*
G01X13216076Y4507065D01*
G01X13221077Y4502066D01*
G37*
G36*
G01X13131080Y4263062D02*
G01X13131080Y4343062D01*
G01X13136081Y4348063D01*
G01X13158878Y4348063D01*
G01X13158878Y4311063D01*
G01X13191877Y4311063D01*
G01X13191877Y4348063D01*
G01X13216081Y4348063D01*
G01X13221080Y4343062D01*
G01X13221080Y4263062D01*
G01X13216081Y4258064D01*
G01X13136081Y4258064D01*
G01X13131080Y4263062D01*
G37*

G04 Pad Start*
G54D10*
G01X6508598Y2108200D03*
G01X6648602Y2108200D03*
G01X6508598Y1943100D03*
G01X6648602Y1943100D03*
G54D11*
G01X5924702Y3073400D03*
G01X5784698Y3073400D03*
G54D10*
G01X6343498Y2895600D03*
G01X6483502Y2895600D03*
G01X6648298Y2895600D03*
G01X6788302Y2895600D03*
G54D11*
G01X6521602Y3213100D03*
G01X6381598Y3213100D03*
G54D10*
G01X6686398Y3200400D03*
G01X6826402Y3200400D03*
G54D12*
G01X5727700Y2254402D03*
G01X5727700Y2114398D03*
G54D10*
G01X4921098Y2222500D03*
G01X5061102Y2222500D03*
G54D12*
G01X6210300Y2330602D03*
G01X6210300Y2190598D03*
G54D10*
G01X6914998Y3073400D03*
G01X7055002Y3073400D03*
G01X6838798Y2730500D03*
G01X6978802Y2730500D03*
G54D11*
G01X6547002Y2489200D03*
G01X6406998Y2489200D03*
G01X5797702Y2895600D03*
G01X5657698Y2895600D03*
G54D13*
G01X5816600Y3257398D03*
G01X5816600Y3397402D03*
G01X6604000Y3638398D03*
G01X6604000Y3778402D03*
G01X5842000Y3612998D03*
G01X5842000Y3753002D03*
G54D10*
G01X7003898Y3340100D03*
G01X7143902Y3340100D03*
G01X7003898Y3200400D03*
G01X7143902Y3200400D03*
G54D11*
G01X5632602Y2425700D03*
G01X5492598Y2425700D03*
G01X5962802Y2730500D03*
G01X5822798Y2730500D03*
G54D12*
G01X5892800Y2254402D03*
G01X5892800Y2114398D03*
G54D10*
G01X6508598Y1714500D03*
G01X6648602Y1714500D03*
G54D11*
G01X6369202Y1714500D03*
G01X6229198Y1714500D03*
G01X6369202Y1943100D03*
G01X6229198Y1943100D03*
G54D13*
G01X6121400Y3612998D03*
G01X6121400Y3753002D03*
G54D10*
G01X6508598Y2247900D03*
G01X6648602Y2247900D03*
G54D11*
G01X5556402Y3073400D03*
G01X5416398Y3073400D03*
G54D12*
G01X6362700Y2762402D03*
G01X6362700Y2622398D03*
G54D11*
G01X5365902Y3238500D03*
G01X5225898Y3238500D03*
G54D13*
G01X5511800Y3257398D03*
G01X5511800Y3397402D03*
G01X5664200Y3257398D03*
G01X5664200Y3397402D03*
G01X6451600Y3638398D03*
G01X6451600Y3778402D03*
G01X5981700Y3612998D03*
G01X5981700Y3753002D03*
G54D10*
G01X7003898Y3619500D03*
G01X7143902Y3619500D03*
G01X7003898Y3479800D03*
G01X7143902Y3479800D03*
G54D13*
G01X6286500Y3638398D03*
G01X6286500Y3778402D03*
G54D10*
G01X6762598Y3797300D03*
G01X6902602Y3797300D03*
G04 Pad End*

M02*

