G04 Layer: DrillDrawingLayer*
G04 EasyEDA Pro v2.2.32.3, 2024-12-23 12:01:23*
G04 Gerber Generator version 0.3*
G04 Scale: 100 percent, Rotated: No, Reflected: No*
G04 Dimensions in millimeters*
G04 Leading zeros omitted, absolute positions, 3 integers and 5 decimals*
%FSLAX35Y35*%
%MOMM*%
%AMIconRect*4,1,4,0.2,-0.2,-0.2,-0.2,-0.2,0.2,0.2,0.2,0.2,-0.2,0*4,0,4,0.166667,-0.166667,0.166667,0.166667,-0.166667,0.166667,-0.166667,-0.166667,0.166667,-0.166667,0*%
%AMIconTriangle*4,1,3,-0.242567,0.171767,0.242567,0.171767,0,-0.2706,-0.242567,0.171767,0*4,0,3,-0.189767,0.1386,0,-0.1953,0.190167,0.1386,-0.189767,0.1386,0*%
%AMIconStar6*4,1,12,0.0862,0.1492,0.213233,0.123367,0.172367,0,0.213233,-0.1229,0.0862,-0.148733,0,-0.245767,-0.085767,-0.148733,-0.213267,-0.1229,-0.171933,0,-0.213267,0.1229,-0.085767,0.1492,0,0.245767,0.0862,0.1492,0*4,0,12,-0.000333,0.195333,-0.064333,0.122667,-0.169667,0.097667,-0.138333,-0.005333,-0.169667,-0.098,-0.064333,-0.122667,-0.000333,-0.195667,0.064333,-0.122667,0.169667,-0.098,0.138667,0.005,0.169667,0.098,0.064333,0.122333,-0.000333,0.195333,0*%
%AMIconStar4*4,1,8,-0.222667,0.222667,0,0.144667,0.222667,0.222667,0.144667,0,0.222667,-0.222667,0,-0.144667,-0.217433,-0.222667,-0.144667,0,-0.222667,0.222667,0*4,0,8,0.166667,-0.166667,0.108,0,0.166667,0.166667,0,0.108,-0.166667,0.166667,-0.108,0,-0.166667,-0.166667,0,-0.108,0.166667,-0.166667,0*%
%AMIconPlus*4,1,12,0.124,-0.2,-0.124,-0.2,-0.124,-0.124,-0.2,-0.124,-0.2,0.124,-0.124,0.124,-0.124,0.2,0.124,0.2,0.124,0.124,0.2,0.124,0.2,-0.124,0.124,-0.124,0.124,-0.2,0*4,0,12,0.090667,-0.166667,0.090667,-0.090667,0.166667,-0.090667,0.166667,0.090667,0.090667,0.090667,0.090667,0.166667,-0.090667,0.166667,-0.090667,0.090667,-0.166667,0.090667,-0.166667,-0.090667,-0.090667,-0.090667,-0.090667,-0.166667,0.090667,-0.166667,0*%
%AMIconX*4,1,16,0.2,-0.2,0.054533,-0.2,0,-0.145467,-0.054533,-0.2,-0.2,-0.2,-0.2,-0.054533,-0.145467,0,-0.2,0.054533,-0.2,0.2,-0.054533,0.2,0,0.145467,0.054533,0.2,0.2,0.2,0.2,0.054533,0.145467,0,0.2,-0.054533,0.2,-0.2,0*4,0,16,0.1668,-0.1664,0.1668,-0.068467,0.097933,0.000067,0.1668,0.068467,0.1668,0.1665,0.068467,0.1665,0,0.097933,-0.068467,0.1665,-0.1668,0.1665,-0.1668,0.068467,-0.097933,0.000067,-0.1668,-0.068467,-0.1668,-0.1664,-0.068467,-0.1664,0,-0.097933,0.068467,-0.1664,0.1668,-0.1664,0*%
%AMIconDiamond*4,1,4,0,-0.26,-0.26,0,0,0.26,0.26,0,0,-0.26,0*4,0,4,0,-0.203433,0.203433,0,0,0.2036,-0.203433,0,0,-0.203433,0*%
%AMIconRect2*4,1,6,0.2,-0.2,-0.2,-0.2,-0.2,0.2,-0.1668,0.1665,-0.166667,-0.166667,0.1668,-0.166667,0.2,-0.2,0*4,1,6,0.2,-0.2,0.1668,-0.166667,0.1668,0.1665,-0.1668,0.1665,-0.2,0.2,0.2,0.2,0.2,-0.2,0*4,1,6,0.133467,-0.133333,-0.133333,-0.133333,-0.133333,0.133467,-0.1,0.100133,-0.1,-0.1,0.100133,-0.1,0.133467,-0.133333,0*4,1,6,0.133467,-0.133333,0.100133,-0.1,0.100133,0.100133,-0.1,0.100133,-0.133333,0.133467,0.133467,0.133467,0.133467,-0.133333,0*%
%AMCharA*4,1,8,-0.122067,-0.1864,-0.1532,-0.174533,-0.015133,0.1864,0.016,0.1864,0.1532,-0.174533,0.122067,-0.1864,0.0764,-0.0662,-0.076133,-0.0662,-0.122067,-0.1864,0*4,0,3,-0.063333,-0.032867,0.063667,-0.032867,0.000333,0.1338,-0.063333,-0.032867,0*%
%ADD10IconRect*%
%ADD11C,0.44X0.373333*%
%ADD12IconTriangle*%
%ADD13IconStar6*%
%ADD14IconStar4*%
%ADD15IconPlus*%
%ADD16IconX*%
%ADD17IconDiamond*%
%ADD18IconRect2*%
%ADD19CharA*%
G75*


G04 Drill Drawing Start*
G54D10*
G01X1142284Y288193D03*
G54D11*
G01X4653354Y448711D03*
G54D12*
G01X281584Y3754262D03*
G01X281584Y2889240D03*
G54D13*
G01X699567Y2889240D03*
G01X699567Y3754262D03*
G54D14*
G01X792142Y753191D03*
G01X1392296Y753207D03*
G54D15*
G01X1619975Y2797147D03*
G01X1628223Y3204459D03*
G01X2235200Y495300D03*
G01X2235200Y749300D03*
G01X3152386Y1036302D03*
G01X3406386Y1036302D03*
G01X4172919Y448711D03*
G54D16*
G01X7337547Y4757755D03*
G01X7337547Y4957755D03*
G01X7537547Y4757755D03*
G01X7537547Y4957755D03*
G01X7737546Y4757755D03*
G01X7737546Y4957755D03*
G01X7937546Y4757755D03*
G01X7937546Y4957755D03*
G01X8137545Y4757755D03*
G01X8137545Y4957755D03*
G01X8337545Y4757755D03*
G01X8337545Y4957755D03*
G01X8537545Y4757755D03*
G01X8537545Y4957755D03*
G54D17*
G01X2882900Y190500D03*
G01X2882900Y444500D03*
G01X3136900Y190500D03*
G01X3136900Y444500D03*
G01X3390900Y190500D03*
G01X3390900Y444500D03*
G01X3644900Y190500D03*
G01X3644900Y444500D03*
G01X5168900Y1016000D03*
G01X5168900Y1270000D03*
G01X5422900Y1016000D03*
G01X5422900Y1270000D03*
G01X5676900Y1016000D03*
G01X5676900Y1270000D03*
G01X5930900Y1016000D03*
G01X5930900Y1270000D03*
G01X5941198Y5030107D03*
G01X6184900Y1016000D03*
G01X6184900Y1270000D03*
G01X6195198Y5030107D03*
G01X6438900Y1016000D03*
G01X6438900Y1270000D03*
G01X6449198Y5030107D03*
G01X7112000Y1028700D03*
G01X7112000Y1282700D03*
G01X7366000Y1028700D03*
G01X7366000Y1282700D03*
G01X7620000Y1028700D03*
G01X7620000Y1282700D03*
G01X7874000Y1028700D03*
G01X7874000Y1282700D03*
G01X8128000Y1028700D03*
G01X8128000Y1282700D03*
G01X8382000Y1028700D03*
G01X8382000Y1282700D03*
G01X9055100Y1028700D03*
G01X9055100Y1282700D03*
G01X9179618Y4225075D03*
G01X9179618Y4479075D03*
G01X9309100Y1028700D03*
G01X9309100Y1282700D03*
G01X9433618Y4225075D03*
G01X9433618Y4479075D03*
G01X9563100Y1028700D03*
G01X9563100Y1282700D03*
G01X9687618Y4225075D03*
G01X9687618Y4479075D03*
G01X9817100Y1028700D03*
G01X9817100Y1282700D03*
G01X9941618Y4225075D03*
G01X9941618Y4479075D03*
G01X10071100Y1028700D03*
G01X10071100Y1282700D03*
G01X10195618Y4225075D03*
G01X10195618Y4479075D03*
G01X10325100Y1028700D03*
G01X10325100Y1282700D03*
G01X10449618Y4225075D03*
G01X10449618Y4479075D03*
G01X10845800Y3543300D03*
G01X10881498Y4777128D03*
G01X10932298Y766270D03*
G01X10952541Y2112470D03*
G01X11099800Y3543300D03*
G01X11135498Y4777128D03*
G01X11186298Y766270D03*
G01X11206541Y2112470D03*
G01X11353800Y3543300D03*
G01X11389498Y4777128D03*
G01X11440298Y766270D03*
G01X11460541Y2112470D03*
G01X11607800Y3543300D03*
G01X11643498Y4777128D03*
G01X11694298Y766270D03*
G01X11714541Y2112470D03*
G01X11861800Y3543300D03*
G01X11897498Y4777128D03*
G01X11948298Y766270D03*
G01X11968541Y2112470D03*
G01X12115800Y3543300D03*
G01X12151498Y4777128D03*
G01X12202298Y766270D03*
G01X12222541Y2112470D03*
G01X12369800Y3543300D03*
G01X12405498Y4777128D03*
G01X12456298Y766270D03*
G01X12476541Y2112470D03*
G01X12623800Y3543300D03*
G01X12659498Y4777128D03*
G01X12710298Y766270D03*
G01X12730541Y2112470D03*
G01X12877800Y3543300D03*
G01X12913498Y4777128D03*
G01X12964298Y766270D03*
G01X12984541Y2112470D03*
G01X13131800Y3543300D03*
G01X13167498Y4777128D03*
G01X13218298Y766270D03*
G01X13238541Y2112470D03*
G01X13385800Y3543300D03*
G01X13421498Y4777128D03*
G01X13472298Y766270D03*
G01X13492541Y2112470D03*
G01X13639800Y3543300D03*
G01X13675498Y4777128D03*
G01X13726298Y766270D03*
G01X13746541Y2112470D03*
G01X13893800Y3543300D03*
G01X13929498Y4777128D03*
G01X13980298Y766270D03*
G01X14000541Y2112470D03*
G01X14147800Y3543300D03*
G01X14183498Y4777128D03*
G01X14234298Y766270D03*
G01X14254541Y2112470D03*
G54D18*
G01X918597Y4280442D03*
G01X1689100Y3759200D03*
G01X1778000Y3441700D03*
G01X1909197Y4293142D03*
G01X2298700Y2019300D03*
G01X2298700Y2095500D03*
G01X2298700Y2171700D03*
G01X2298700Y2247900D03*
G01X2298700Y2324100D03*
G01X2405606Y4140200D03*
G01X2692400Y2057400D03*
G01X2692400Y2184400D03*
G01X2692400Y2438400D03*
G01X2692400Y2692400D03*
G01X2692400Y2946400D03*
G01X2692400Y3327400D03*
G01X2819400Y2057400D03*
G01X2819400Y2184400D03*
G01X2819400Y2438400D03*
G01X2819400Y2692400D03*
G01X2819400Y2946400D03*
G01X2819400Y3327400D03*
G01X2912497Y4293142D03*
G01X2946400Y1930400D03*
G01X2946400Y2311400D03*
G01X2946400Y2692400D03*
G01X2946400Y2819400D03*
G01X2946400Y3073400D03*
G01X2946400Y3200400D03*
G01X2946400Y3327400D03*
G01X3073400Y1930400D03*
G01X3073400Y2311400D03*
G01X3073400Y2819400D03*
G01X3073400Y3200400D03*
G01X3195300Y2306300D03*
G01X3327400Y1930400D03*
G01X3327400Y2311400D03*
G01X3327400Y2819400D03*
G01X3327400Y3200400D03*
G01X3332500Y2433300D03*
G01X3365500Y1409700D03*
G01X3454400Y2057400D03*
G01X3454400Y2438400D03*
G01X3454400Y2692400D03*
G01X3581400Y1930400D03*
G01X3581400Y2057400D03*
G01X3581400Y2311400D03*
G01X3903097Y4293142D03*
G01X4152900Y1193800D03*
G01X4471419Y3378200D03*
G01X4686300Y3848100D03*
G01X4725419Y3378200D03*
G01X4978400Y3378200D03*
G01X5003800Y4368800D03*
G01X5054600Y3505200D03*
G01X5207000Y4775200D03*
G01X5448300Y1841500D03*
G01X5448300Y4394200D03*
G01X5485633Y3590570D03*
G01X5600700Y1841500D03*
G01X5981700Y1841500D03*
G01X6337300Y1841500D03*
G01X6502400Y1841500D03*
G01X7213600Y1841500D03*
G01X7315514Y2705100D03*
G01X7620000Y1854200D03*
G01X7734346Y3873500D03*
G01X7772400Y2705100D03*
G01X7785100Y1854200D03*
G01X7937546Y3873500D03*
G01X8128000Y1854200D03*
G01X8140746Y3873500D03*
G01X8255314Y2705100D03*
G01X8305800Y1854200D03*
G01X8331246Y3873500D03*
G01X8482736Y1854200D03*
G01X8703763Y2705100D03*
G01X9131300Y3683000D03*
G01X9182414Y2705100D03*
G01X9232900Y1841500D03*
G01X9296400Y3683000D03*
G01X9398000Y1841500D03*
G01X9467741Y3683000D03*
G01X9563964Y1841500D03*
G01X9639300Y3683000D03*
G01X9695091Y2705100D03*
G01X9728200Y1841500D03*
G01X9804400Y3683000D03*
G01X9893300Y1841500D03*
G01X9969500Y3683000D03*
G01X10071100Y1841500D03*
G01X10134600Y3683000D03*
G01X10172700Y2705100D03*
G01X10248900Y1841500D03*
G01X10299700Y3683000D03*
G01X10426700Y1841500D03*
G01X10568111Y2705100D03*
G01X10883900Y4230827D03*
G01X10944982Y2658770D03*
G01X11137900Y4230827D03*
G01X11211682Y2658770D03*
G01X11391900Y4230827D03*
G01X11452982Y2658770D03*
G01X11645900Y4230827D03*
G01X11719682Y2658770D03*
G01X11860936Y2998064D03*
G01X11899900Y4230827D03*
G01X11945897Y1307513D03*
G01X11973682Y2658770D03*
G01X12116664Y2999791D03*
G01X12153900Y4230827D03*
G01X12199897Y1307513D03*
G01X12214982Y2658770D03*
G01X12369800Y2998927D03*
G01X12407900Y4230827D03*
G01X12453897Y1307513D03*
G01X12481682Y2658770D03*
G01X12623800Y2998927D03*
G01X12661900Y4230827D03*
G01X12707897Y1307513D03*
G01X12722982Y2658770D03*
G01X12877800Y2998927D03*
G01X12915900Y4230827D03*
G01X12961897Y1307513D03*
G01X12989682Y2658770D03*
G01X13131800Y2998927D03*
G01X13176079Y4231891D03*
G01X13215897Y1307513D03*
G01X13230982Y2658770D03*
G01X13385800Y2998927D03*
G01X13469897Y1307513D03*
G01X13639800Y2998927D03*
G01X13723897Y1307513D03*
G01X13893800Y2998927D03*
G01X13977897Y1307513D03*
G01X14147800Y2998927D03*
G01X14231897Y1307513D03*
G54D19*
G01X3073400Y3073400D03*
G01X3213100Y2565757D03*
G01X3568700Y2679700D03*
G01X3632200Y2676143D03*
G01X4470400Y2159000D03*
G01X4602785Y4392591D03*
G01X4645523Y4435329D03*
G01X5118100Y2809494D03*
G01X5295900Y2336800D03*
G01X5334000Y3842858D03*
G01X5346700Y3338906D03*
G01X5410200Y2933700D03*
G01X5453199Y3165094D03*
G01X5499100Y2997200D03*
G01X5537200Y2314194D03*
G01X5613400Y2336800D03*
G01X5724614Y2413699D03*
G01X5724614Y2493709D03*
G01X5724614Y2573719D03*
G01X5739953Y3531120D03*
G01X5753100Y3619500D03*
G01X5804599Y2333714D03*
G01X5804599Y2413699D03*
G01X5804599Y2493709D03*
G01X5804599Y2573719D03*
G01X5804599Y2653703D03*
G01X5804599Y2813698D03*
G01X5880100Y2413000D03*
G01X5884609Y2333714D03*
G01X5884609Y2493709D03*
G01X5884609Y2573719D03*
G01X5884609Y2653703D03*
G01X5884609Y3213697D03*
G01X5930900Y3823482D03*
G01X5964619Y2333714D03*
G01X5964619Y2413699D03*
G01X5964619Y2493709D03*
G01X5964619Y2573719D03*
G01X5964619Y2653703D03*
G01X5964619Y3373692D03*
G01X5964619Y3533686D03*
G01X6044603Y2333714D03*
G01X6044603Y2413699D03*
G01X6044603Y2493709D03*
G01X6044603Y2653703D03*
G01X6044603Y2733713D03*
G01X6044603Y2973692D03*
G01X6044603Y3133687D03*
G01X6044603Y3213697D03*
G01X6044603Y3293682D03*
G01X6044603Y3373692D03*
G01X6044603Y3453702D03*
G01X6044603Y3533686D03*
G01X6045200Y2578100D03*
G01X6121400Y3136900D03*
G01X6121400Y3378200D03*
G01X6124613Y2413699D03*
G01X6124613Y2493709D03*
G01X6124613Y2573719D03*
G01X6124613Y2653703D03*
G01X6124613Y2813698D03*
G01X6124613Y2973692D03*
G01X6124613Y3053702D03*
G01X6124613Y3213697D03*
G01X6124613Y3293682D03*
G01X6124613Y3453702D03*
G01X6124613Y3533686D03*
G01X6204598Y2413699D03*
G01X6204598Y2573719D03*
G01X6204598Y2653703D03*
G01X6204598Y2733713D03*
G01X6204598Y2973692D03*
G01X6204598Y3053702D03*
G01X6204598Y3133687D03*
G01X6204598Y3213697D03*
G01X6204598Y3293682D03*
G01X6204598Y3373692D03*
G01X6204598Y3453702D03*
G01X6204598Y3533686D03*
G01X6210300Y2501900D03*
G01X6284608Y2413699D03*
G01X6284608Y2493709D03*
G01X6284608Y2573719D03*
G01X6284608Y2653703D03*
G01X6284608Y2813698D03*
G01X6284608Y2973692D03*
G01X6284608Y3053702D03*
G01X6284608Y3213697D03*
G01X6284608Y3293682D03*
G01X6284608Y3373692D03*
G01X6284608Y3453702D03*
G01X6284608Y3533686D03*
G01X6359525Y2413699D03*
G01X6362700Y3289300D03*
G01X6444602Y2333714D03*
G01X6444602Y2653703D03*
G01X6444602Y2733713D03*
G01X6444602Y3133687D03*
G01X6444602Y3293682D03*
G01X6444602Y3453702D03*
G01X6508598Y2028563D03*
G01X6515100Y3873500D03*
G01X6524587Y2333714D03*
G01X6524587Y2413699D03*
G01X6524587Y2573719D03*
G01X6524587Y2653703D03*
G01X6524587Y2813698D03*
G01X6524587Y3053702D03*
G01X6524587Y3373692D03*
G01X6527800Y3136900D03*
G01X6604597Y2419359D03*
G01X6604597Y2493709D03*
G01X6604597Y2573719D03*
G01X6604597Y2653703D03*
G01X6604597Y2733713D03*
G01X6604597Y2973692D03*
G01X6604597Y3213697D03*
G01X6684582Y2413699D03*
G01X6684582Y2493709D03*
G01X6684582Y2573719D03*
G01X6684582Y2653703D03*
G01X6684582Y2733713D03*
G01X6684582Y2813698D03*
G01X6684582Y2973692D03*
G01X6684582Y3053702D03*
G01X6684582Y3293682D03*
G01X6684582Y3373692D03*
G01X6684582Y3453702D03*
G01X6684582Y3533686D03*
G01X6684977Y3874920D03*
G01X6764592Y2333714D03*
G01X6764592Y2413699D03*
G01X6764592Y2493709D03*
G01X6764592Y2573719D03*
G01X6764592Y2653703D03*
G01X6764592Y2733713D03*
G01X6764592Y2813698D03*
G01X6764592Y2973692D03*
G01X6764592Y3053702D03*
G01X6764592Y3373692D03*
G01X6764592Y3453702D03*
G01X6764592Y3533686D03*
G01X6844602Y2333714D03*
G01X6844602Y2413699D03*
G01X6844602Y2493709D03*
G01X6844602Y2653703D03*
G01X6844602Y2813698D03*
G01X6844602Y2971811D03*
G01X6844602Y3053702D03*
G01X6844602Y3453702D03*
G01X6845300Y2578100D03*
G01X6845300Y3289300D03*
G01X6924586Y2413699D03*
G01X6924586Y2493709D03*
G01X6924586Y2573719D03*
G01X6924586Y2653703D03*
G01X6924586Y2973692D03*
G01X6924586Y3213697D03*
G01X6924586Y3293682D03*
G01X7073900Y2451100D03*
G01X7099300Y2372106D03*
G01X7099300Y2658770D03*
G01X7239000Y2730500D03*
G01X7264400Y2813698D03*
G01X7428309Y2377694D03*
G01X7429500Y2730500D03*
G01X7581900Y2705100D03*
G01X7594600Y2973692D03*
G01X8255000Y2857500D03*
G01X9542691Y2552700D03*
G01X10007600Y2540000D03*
G01X10415711Y2552700D03*
G04 Drill Drawing End*

M02*

