G04 Layer: InnerLayer4*
G04 EasyEDA Pro v2.2.32.3, 2024-12-23 12:01:23*
G04 Gerber Generator version 0.3*
G04 Scale: 100 percent, Rotated: No, Reflected: No*
G04 Dimensions in millimeters*
G04 Leading zeros omitted, absolute positions, 3 integers and 5 decimals*
%FSLAX35Y35*%
%MOMM*%
%ADD10C,0.2032*%
%ADD11C,1.9*%
%ADD12C,1.5*%
%ADD13R,1.5X1.5*%
%ADD14O,1.5X3.79999*%
%ADD15O,3.39999X1.5*%
%ADD16C,1.8*%
%ADD17R,1.8X1.8*%
%ADD18R,1.8X1.8*%
%ADD19R,1.7010X1.7*%
%ADD20R,1.7X1.7*%
%ADD21C,1.7*%
%ADD22R,2.0X2.0*%
%ADD23C,2.0*%
%ADD24R,2.0X2.0*%
%ADD25R,1.7X1.7*%
%ADD26O,1.8X1.2*%
%ADD27O,2.0X1.2*%
%ADD28C,0.61*%
%ADD29C,0.3048*%
%ADD30C,0.6096*%
%ADD31C,0.381*%
%ADD32C,0.254*%
%ADD33C,0.508*%
%ADD34C,0.1524*%
%ADD35C,1.27*%
%ADD36C,0.762*%
%ADD37C,0.1778*%
G75*


G04 Copper Start*
G36*
G01X14464186Y5464186D02*
G01X14464186Y35814D01*
G01X35814Y35814D01*
G01X35814Y5464186D01*
G01X14464186Y5464186D01*
G37*
%LPC*%
G36*
G01X311584Y3850076D02*
G01X251584Y3850076D01*
G03X251584Y3658448I0J-95814D01*
G01X311584Y3658448D01*
G03X311584Y3850076I0J95814D01*
G37*
G36*
G01X311584Y2985054D02*
G01X251584Y2985054D01*
G03X251584Y2793426I0J-95814D01*
G01X311584Y2793426D01*
G03X311584Y2985054I0J95814D01*
G37*
G36*
G01X659567Y2793426D02*
G01X739567Y2793426D01*
G03X739567Y2985054I0J95814D01*
G01X706066Y2985054D01*
G03X638789Y3104279I-56512J46706D01*
G03X609046Y2970652I10765J-72520D01*
G03X659567Y2793426I50521J-81412D01*
G37*
G36*
G01X739567Y3658448D02*
G03X739567Y3850076I0J95814D01*
G01X659567Y3850076D01*
G03X609046Y3672850I0J-95814D01*
G03X638789Y3539223I40508J-61107D01*
G03X706066Y3658448I10765J72520D01*
G01X739567Y3658448D01*
G37*
G36*
G01X852303Y4280442D02*
G03X984891Y4280442I66294J0D01*
G03X852303Y4280442I-66294J0D01*
G37*
G36*
G01X1281398Y868199D02*
G01X1281398Y638199D01*
G03X1503026Y638199I110814J0D01*
G01X1503026Y868199D01*
G03X1281398Y868199I-110814J0D01*
G37*
G36*
G01X1494161Y2797147D02*
G03X1745789Y2797147I125814J0D01*
G03X1494161Y2797147I-125814J0D01*
G37*
G36*
G01X1502409Y3204459D02*
G03X1754036Y3204459I125814J0D01*
G03X1502409Y3204459I-125814J0D01*
G37*
G36*
G01X1622786Y3759200D02*
G03X1755414Y3759200I66314J0D01*
G03X1622786Y3759200I-66314J0D01*
G37*
G36*
G01X1711686Y3441700D02*
G03X1844314Y3441700I66314J0D01*
G03X1711686Y3441700I-66314J0D01*
G37*
G36*
G01X2070100Y2652014D02*
G03X1999874Y2622926I0J-99314D01*
G01X1809374Y2432426D01*
G03X1780286Y2362200I70226J-70226D01*
G01X1780286Y1409071D01*
G03X1809374Y1338845I99314J0D01*
G01X2263106Y885114D01*
G01X2135200Y885114D01*
G03X2099386Y849300I0J-35814D01*
G01X2099386Y649300D01*
G03X2135200Y613486I35814J0D01*
G01X2335200Y613486D01*
G03X2371014Y649300I0J35814D01*
G01X2371014Y777206D01*
G01X2571703Y576517D01*
G03X2641928Y547428I70226J70226D01*
G01X2819641Y547428D01*
G03X2882900Y323686I63259J-102928D01*
G03X2946159Y547428I0J120814D01*
G01X3467798Y547428D01*
G03X3538023Y576517I0J99314D01*
G01X3636892Y675386D01*
G01X4927600Y675386D01*
G03X4997826Y704474I0J99314D01*
G01X5168900Y875549D01*
G01X5454274Y590174D01*
G03X5524500Y561086I70226J70226D01*
G01X6883400Y561086D01*
G03X6953626Y590174I0J99314D01*
G01X7112000Y748549D01*
G01X7270374Y590174D01*
G03X7340600Y561086I70226J70226D01*
G01X8839200Y561086D01*
G03X8909426Y590174I0J99314D01*
G01X9055100Y735849D01*
G01X9480174Y310774D01*
G03X9550400Y281686I70226J70226D01*
G01X11277600Y281686D01*
G03X11347826Y310774I0J99314D01*
G01X11510524Y473473D01*
G03X11539612Y543698I-70226J70226D01*
G01X11539612Y666956D01*
G01X11617060Y666956D01*
G03X11820112Y766270I77239J99314D01*
G03X11617060Y865584I-125814J0D01*
G01X11539612Y865584D01*
G01X11539612Y1213761D01*
G01X11928337Y1602486D01*
G01X13081871Y1602486D01*
G03X13152097Y1631574I0J99314D01*
G01X13508150Y1987628D01*
G03X13569780Y2013156I-15609J124842D01*
G01X13669302Y2013156D01*
G03X13872355Y2112470I77239J99314D01*
G03X13669302Y2211784I-125814J0D01*
G01X13591855Y2211784D01*
G01X13591855Y2674559D01*
G03X13562767Y2744785I-99314J0D01*
G01X13379826Y2927726D01*
G03X13373100Y2933861I-70226J-70226D01*
G03X13417245Y3057289I12700J65066D01*
G03X13338446Y2952533I-31445J-58362D01*
G03X13309600Y2956814I-28846J-95033D01*
G01X13182999Y2956814D01*
G03X13131800Y3065221I-51199J42113D01*
G03X13080601Y2956814I0J-66294D01*
G01X12928999Y2956814D01*
G03X12877800Y3065221I-51199J42113D01*
G03X12826601Y2956814I0J-66294D01*
G01X12674999Y2956814D01*
G03X12623800Y3065221I-51199J42113D01*
G03X12572601Y2956814I0J-66294D01*
G01X12420999Y2956814D01*
G03X12369800Y3065221I-51199J42113D01*
G03X12318601Y2956814I0J-66294D01*
G01X12167140Y2956814D01*
G03X12116664Y3066085I-50477J42977D01*
G03X12066187Y2956814I0J-66294D01*
G01X11912834Y2956814D01*
G03X11860936Y3064358I-51898J41250D01*
G03X11809039Y2956814I0J-66294D01*
G01X11750537Y2956814D01*
G01X11707114Y3000237D01*
G01X11707114Y3466061D01*
G03X11732642Y3527691I-99314J77239D01*
G01X11736533Y3531582D01*
G03X11950764Y3454336I125267J11718D01*
G03X11873518Y3668567I-88964J88964D01*
G01X12093437Y3888486D01*
G01X13220700Y3888486D01*
G03X13290926Y3917574I0J99314D01*
G01X13491724Y4118373D01*
G03X13520812Y4188598I-70226J70226D01*
G01X13520812Y4677814D01*
G01X13598260Y4677814D01*
G03X13801312Y4777128I77239J99314D01*
G03X13598260Y4876442I-125814J0D01*
G01X13498737Y4876442D01*
G03X13332535Y4866092I-77239J-99314D01*
G03X13322184Y4699889I88964J-88964D01*
G01X13322184Y4229736D01*
G01X13179563Y4087114D01*
G01X12052300Y4087114D01*
G03X11982074Y4058026I0J-99314D01*
G01X11592191Y3668142D01*
G03X11530561Y3642614I15609J-124842D01*
G01X11431039Y3642614D01*
G03X11369409Y3668142I-77239J-99314D01*
G01X11055726Y3981826D01*
G03X10985500Y4010914I-70226J-70226D01*
G01X10548932Y4010914D01*
G01X10548932Y4156281D01*
G03X10548932Y4293870I-99314J68795D01*
G01X10548932Y4361246D01*
G03X10570432Y4394076I-14314J32829D01*
G01X10570432Y4564075D01*
G03X10534618Y4599889I-35814J0D01*
G01X10364619Y4599889D01*
G03X10328805Y4564075I0J-35814D01*
G01X10328805Y4394076D01*
G03X10350304Y4361246I35814J0D01*
G01X10350304Y4293870D01*
G03X10330748Y4246656I99314J-68795D01*
G01X10082306Y3998214D01*
G01X8960832Y3998214D01*
G01X8960832Y4433781D01*
G03X8931744Y4504007I-99314J0D01*
G01X8642530Y4793221D01*
G03X8603314Y4846941I-104985J-35466D01*
G01X8612544Y4846941D01*
G03X8648358Y4882755I0J35814D01*
G01X8648358Y5032755D01*
G03X8612544Y5068569I-35814J0D01*
G01X8462545Y5068569D01*
G03X8426731Y5032755I0J-35814D01*
G01X8426731Y4882755D01*
G03X8462545Y4846941I35814J0D01*
G01X8471775Y4846941D01*
G03X8437545Y4805502I65769J-89186D01*
G03X8237545Y4805502I-100000J-47747D01*
G03X8037546Y4805502I-100000J-47747D01*
G03X7837546Y4805502I-100000J-47747D01*
G03X7637546Y4805502I-100000J-47747D01*
G03X7437547Y4805502I-100000J-47747D01*
G03X7226733Y4757755I-100000J-47747D01*
G03X7437547Y4710009I110814J0D01*
G03X7637546Y4710009I100000J47747D01*
G03X7837546Y4710009I100000J47747D01*
G03X8037546Y4710009I100000J47747D01*
G03X8237545Y4710009I100000J47747D01*
G03X8437545Y4710009I100000J47747D01*
G03X8502078Y4652770I100000J47747D01*
G01X8762204Y4392644D01*
G01X8762204Y3952782D01*
G03X8791293Y3882556I99314J0D01*
G01X8845174Y3828674D01*
G03X8915400Y3799586I70226J70226D01*
G01X10123443Y3799586D01*
G03X10193669Y3828674I0J99314D01*
G01X10350304Y3985310D01*
G01X10350304Y3965482D01*
G03X10379393Y3895256I99314J0D01*
G01X10433274Y3841374D01*
G03X10503500Y3812286I70226J70226D01*
G01X10944363Y3812286D01*
G01X11228958Y3527691D01*
G03X11431039Y3443986I124842J15609D01*
G01X11508486Y3443986D01*
G01X11508486Y2959100D01*
G03X11537574Y2888874I99314J0D01*
G01X11639174Y2787274D01*
G03X11709400Y2758186I70226J70226D01*
G01X13268463Y2758186D01*
G01X13393227Y2633422D01*
G01X13393227Y2189709D01*
G03X13367699Y2128079I99314J-77239D01*
G01X13363808Y2124188D01*
G03X13149577Y2201434I-125267J-11718D01*
G03X13226823Y1987203I88964J-88964D01*
G01X13040734Y1801114D01*
G01X11887200Y1801114D01*
G03X11816974Y1772026I0J-99314D01*
G01X11370073Y1325124D01*
G03X11340984Y1254898I70226J-70226D01*
G01X11340984Y843509D01*
G03X11340984Y689031I99314J-77239D01*
G01X11340984Y584836D01*
G01X11236463Y480314D01*
G01X9591537Y480314D01*
G01X9158735Y913116D01*
G03X9175914Y943700I-18635J30584D01*
G01X9175914Y1113700D01*
G03X9154414Y1146529I-35814J0D01*
G01X9154414Y1213905D01*
G03X9055100Y1403514I-99314J68795D01*
G03X8955786Y1213905I0J-120814D01*
G01X8955786Y1146529D01*
G03X8934286Y1113700I14314J-32829D01*
G01X8934286Y943700D01*
G03X8951465Y913116I35814J0D01*
G01X8798063Y759714D01*
G01X7381737Y759714D01*
G01X7222697Y918754D01*
G03X7232814Y943700I-25697J24946D01*
G01X7232814Y1113700D01*
G03X7211314Y1146529I-35814J0D01*
G01X7211314Y1213905D01*
G03X7112000Y1403514I-99314J68795D01*
G03X7012686Y1213905I0J-120814D01*
G01X7012686Y1146529D01*
G03X6991186Y1113700I14314J-32829D01*
G01X6991186Y943700D01*
G03X7001303Y918754I35814J0D01*
G01X6842263Y759714D01*
G01X5565637Y759714D01*
G01X5289714Y1035637D01*
G01X5289714Y1101000D01*
G03X5268214Y1133829I-35814J0D01*
G01X5268214Y1201205D01*
G03X5168900Y1390814I-99314J68795D01*
G03X5069586Y1201205I0J-120814D01*
G01X5069586Y1133829D01*
G03X5048086Y1101000I14314J-32829D01*
G01X5048086Y1035637D01*
G01X4886463Y874014D01*
G01X3595755Y874014D01*
G03X3525530Y844926I0J-99314D01*
G01X3426660Y746056D01*
G01X2683065Y746056D01*
G01X1978914Y1450208D01*
G01X1978914Y2321063D01*
G01X2111237Y2453386D01*
G01X2536963Y2453386D01*
G01X2605786Y2384563D01*
G01X2605786Y2084809D01*
G01X2461514Y2229081D01*
G01X2461514Y2387600D01*
G03X2425700Y2423414I-35814J0D01*
G01X2233725Y2423414D01*
G03X2197911Y2387600I0J-35814D01*
G01X2197911Y1909031D01*
G03X2208401Y1883707I35814J0D01*
G01X2477749Y1614359D01*
G03X2503073Y1603869I25324J25324D01*
G01X3122484Y1603869D01*
G03X3147808Y1614359I0J35814D01*
G01X3387543Y1854094D01*
G03X3407496Y1886204I-15861J32110D01*
G01X3407496Y1888881D01*
G01X3407496Y1930469D01*
G01X3407496Y2010522D01*
G03X3517900Y2038287I46904J46878D01*
G03X3562287Y1993900I63500J19113D01*
G03X3581400Y1864086I19113J-63500D01*
G03X3600513Y1993900I0J66314D01*
G03X3628291Y2104291I-19113J63500D01*
G03X3517900Y2076513I-46891J-46891D01*
G03X3407496Y2104278I-63500J-19113D01*
G01X3407496Y2357009D01*
G03X3383437Y2390839I-35814J0D01*
G03X3394537Y2409870I-50937J42461D01*
G03X3504592Y2395061I59863J28530D01*
G03X3547823Y2377186I43231J43339D01*
G01X3573048Y2377186D01*
G03X3581400Y2245086I8352J-65786D01*
G03X3589752Y2377186I0J66314D01*
G01X4165644Y2377186D01*
G01X4427115Y2115715D01*
G03X4497549Y2104136I43285J43285D01*
G01X5949899Y2104136D01*
G03X5988694Y2120205I0J54864D01*
G01X6211555Y2343067D01*
G01X6226454Y2328168D01*
G03X6265249Y2312099I38795J38795D01*
G01X6343049Y2312099D01*
G03X6359072Y2275561I54818J2257D01*
G01X6386449Y2248183D01*
G03X6425244Y2232114I38795J38795D01*
G01X6854626Y2232114D01*
G03X6864938Y2231136I10312J53886D01*
G01X7162800Y2231136D01*
G03X7201595Y2247205I0J54864D01*
G01X7277219Y2322830D01*
G01X7428309Y2322830D01*
G03X7428309Y2432558I0J54864D01*
G01X7254494Y2432558D01*
G03X7215699Y2416489I0J-54864D01*
G01X7140075Y2340864D01*
G01X7139679Y2340864D01*
G03X7114924Y2420710I-40379J31242D01*
G03X7098406Y2495888I-41024J30390D01*
G03X7026186Y2469263I-24506J-44788D01*
G01X7026186Y2673062D01*
G03X7010117Y2711856I-54864J0D01*
G01X6982739Y2739234D01*
G03X6943945Y2755303I-38795J-38795D01*
G01X6929891Y2755303D01*
G01X6930132Y2755544D01*
G03X6946202Y2794339I-38795J38795D01*
G01X6946202Y2833056D01*
G03X6930132Y2871851I-54864J0D01*
G01X6929891Y2872092D01*
G01X6943945Y2872092D01*
G03X6982739Y2888162I0J54864D01*
G01X7010117Y2915539D01*
G03X7026186Y2954334I-38795J38795D01*
G01X7026186Y2993051D01*
G03X7010117Y3031846I-54864J0D01*
G01X6982739Y3059223D01*
G03X6943945Y3075292I-38795J-38795D01*
G01X6905227Y3075292D01*
G03X6900781Y3075112I0J-54864D01*
G01X6899466Y3076428D01*
G01X6899466Y3133662D01*
G03X6883396Y3172456I-54864J0D01*
G01X6719452Y3336401D01*
G03X6724587Y3341972I-34870J37291D01*
G03X6800692Y3337591I40005J31719D01*
G03X6796311Y3413697I-36101J36101D01*
G03X6804597Y3421982I-31719J40005D01*
G03X6895656Y3453702I40005J31719D01*
G03X6804597Y3485421I-51054J0D01*
G03X6796327Y3493694I-40005J-31719D01*
G03X6800685Y3569794I-31735J39992D01*
G03X6724587Y3565405I-36093J-36108D01*
G03X6648488Y3569794I-40005J-31719D01*
G03X6652846Y3493694I36093J-36108D01*
G03X6633528Y3453691I31735J-39992D01*
G03X6652862Y3413697I51054J10D01*
G03X6647291Y3408562I31719J-40005D01*
G01X6563356Y3492496D01*
G03X6524562Y3508566I-38795J-38795D01*
G01X6444602Y3508566D01*
G03X6408720Y3495205I0J-54864D01*
G01X6380712Y3523212D01*
G03X6350000Y3535934I-30712J-30712D01*
G01X6335612Y3535934D01*
G03X6300336Y3582257I-51004J-2248D01*
G03X6244603Y3565405I-15729J-48571D01*
G03X6204608Y3584740I-40005J-31719D01*
G03X6164605Y3565421I-10J-51054D01*
G03X6084608Y3565405I-39992J-31735D01*
G03X6004611Y3565421I-40005J-31719D01*
G03X5913614Y3535934I-39992J-31735D01*
G01X5523216Y3535934D01*
G03X5485633Y3656884I-37583J54636D01*
G03X5448050Y3535934I0J-66314D01*
G01X5113362Y3535934D01*
G03X5036432Y3568977I-58762J-30734D01*
G03X4988463Y3500354I18168J-63777D01*
G01X4804138Y3500354D01*
G03X4773426Y3487632I0J-43434D01*
G01X4730139Y3444346D01*
G03X4678483Y3425047I-4721J-66146D01*
G03X4659282Y3373354I46935J-46847D01*
G01X4639290Y3373354D01*
G01X4603731Y3408912D01*
G03X4573019Y3421634I-30712J-30712D01*
G01X4521529Y3421634D01*
G03X4450155Y3441013I-50110J-43434D01*
G03X4405229Y3382264I21263J-62813D01*
G01X3045714Y3382264D01*
G01X3045714Y3389881D01*
G03X3009900Y3425695I-35814J0D01*
G01X2627290Y3425695D01*
G03X2591476Y3389881I0J-35814D01*
G01X2591476Y3263900D01*
G03X2627290Y3228086I35814J0D01*
G01X2886142Y3228086D01*
G03X2927287Y3136900I60258J-27686D01*
G03X2886142Y3045714I19113J-63500D01*
G01X2650863Y3045714D01*
G03X2615049Y3009900I0J-35814D01*
G01X2615049Y2844800D01*
G03X2650863Y2808986I35814J0D01*
G01X2831826Y2808986D01*
G01X2831826Y2794667D01*
G03X2839720Y2766314I54864J0D01*
G01X2507116Y2766314D01*
G01X2207514Y3065916D01*
G01X2207514Y4503284D01*
G01X2316616Y4612386D01*
G01X4278459Y4612386D01*
G01X4550520Y4340326D01*
G03X4655050Y4340326I52265J52265D01*
G01X4697788Y4383064D01*
G03X4603660Y4496245I-52265J52265D01*
G01X4361340Y4738565D01*
G03X4309075Y4760214I-52265J-52265D01*
G01X2286000Y4760214D01*
G03X2233735Y4738565I0J-73914D01*
G01X2081335Y4586165D01*
G03X2059686Y4533900I52265J-52265D01*
G01X2059686Y3035300D01*
G03X2081335Y2983035I73914J0D01*
G01X2412356Y2652014D01*
G01X2070100Y2652014D01*
G37*
G36*
G01X1842903Y4293142D02*
G03X1975491Y4293142I66294J0D01*
G03X1842903Y4293142I-66294J0D01*
G37*
G36*
G01X2339292Y4140200D02*
G03X2471920Y4140200I66314J0D01*
G03X2339292Y4140200I-66314J0D01*
G37*
G36*
G01X2967900Y69686D02*
G03X3003714Y105500I0J35814D01*
G01X3003714Y275500D01*
G03X2967900Y311314I-35814J0D01*
G01X2797900Y311314D01*
G03X2762086Y275500I0J-35814D01*
G01X2762086Y105500D01*
G03X2797900Y69686I35814J0D01*
G01X2967900Y69686D01*
G37*
G36*
G01X2846203Y4293142D02*
G03X2978791Y4293142I66294J0D01*
G03X2846203Y4293142I-66294J0D01*
G37*
G36*
G01X3252386Y900488D02*
G03X3288200Y936302I0J35814D01*
G01X3288200Y1136302D01*
G03X3252386Y1172116I-35814J0D01*
G01X3052387Y1172116D01*
G03X3016573Y1136302I0J-35814D01*
G01X3016573Y936302D01*
G03X3052387Y900488I35814J0D01*
G01X3252386Y900488D01*
G37*
G36*
G01X3299186Y1409700D02*
G03X3431814Y1409700I66314J0D01*
G03X3299186Y1409700I-66314J0D01*
G37*
G36*
G01X3524086Y190500D02*
G03X3765714Y190500I120814J0D01*
G03X3524086Y190500I-120814J0D01*
G37*
G36*
G01X3524086Y444500D02*
G03X3765714Y444500I120814J0D01*
G03X3524086Y444500I-120814J0D01*
G37*
G36*
G01X3836803Y4293142D02*
G03X3969391Y4293142I66294J0D01*
G03X3836803Y4293142I-66294J0D01*
G37*
G36*
G01X4047105Y448711D02*
G03X4298733Y448711I125814J0D01*
G03X4047105Y448711I-125814J0D01*
G37*
G36*
G01X4086586Y1193800D02*
G03X4219214Y1193800I66314J0D01*
G03X4086586Y1193800I-66314J0D01*
G37*
G36*
G01X4619986Y3848100D02*
G03X4752614Y3848100I66314J0D01*
G03X4619986Y3848100I-66314J0D01*
G37*
G36*
G01X4937486Y4368800D02*
G03X5070114Y4368800I66314J0D01*
G03X4937486Y4368800I-66314J0D01*
G37*
G36*
G01X5140686Y4775200D02*
G03X5273314Y4775200I66314J0D01*
G03X5140686Y4775200I-66314J0D01*
G37*
G36*
G01X5282946Y3842858D02*
G03X5385054Y3842858I51054J0D01*
G03X5282946Y3842858I-51054J0D01*
G37*
G36*
G01X5381986Y4394200D02*
G03X5514614Y4394200I66314J0D01*
G03X5381986Y4394200I-66314J0D01*
G37*
G36*
G01X5381986Y1841500D02*
G03X5514614Y1841500I66314J0D01*
G03X5381986Y1841500I-66314J0D01*
G37*
G36*
G01X5534386Y1841500D02*
G03X5667014Y1841500I66314J0D01*
G03X5534386Y1841500I-66314J0D01*
G37*
G36*
G01X5556086Y1016000D02*
G03X5797714Y1016000I120814J0D01*
G03X5556086Y1016000I-120814J0D01*
G37*
G36*
G01X5556086Y1270000D02*
G03X5797714Y1270000I120814J0D01*
G03X5556086Y1270000I-120814J0D01*
G37*
G36*
G01X5702046Y3619500D02*
G03X5804154Y3619500I51054J0D01*
G03X5702046Y3619500I-51054J0D01*
G37*
G36*
G01X5810086Y1016000D02*
G03X6051714Y1016000I120814J0D01*
G03X5810086Y1016000I-120814J0D01*
G37*
G36*
G01X5810086Y1270000D02*
G03X6051714Y1270000I120814J0D01*
G03X5810086Y1270000I-120814J0D01*
G37*
G36*
G01X5879846Y3823482D02*
G03X5981954Y3823482I51054J0D01*
G03X5879846Y3823482I-51054J0D01*
G37*
G36*
G01X5915386Y1841500D02*
G03X6048014Y1841500I66314J0D01*
G03X5915386Y1841500I-66314J0D01*
G37*
G36*
G01X6064086Y1016000D02*
G03X6305714Y1016000I120814J0D01*
G03X6064086Y1016000I-120814J0D01*
G37*
G36*
G01X6064086Y1270000D02*
G03X6305714Y1270000I120814J0D01*
G03X6064086Y1270000I-120814J0D01*
G37*
G36*
G01X6074385Y5030107D02*
G03X6316012Y5030107I120814J0D01*
G03X6074385Y5030107I-120814J0D01*
G37*
G36*
G01X6270986Y1841500D02*
G03X6403614Y1841500I66314J0D01*
G03X6270986Y1841500I-66314J0D01*
G37*
G36*
G01X6318086Y1016000D02*
G03X6559714Y1016000I120814J0D01*
G03X6318086Y1016000I-120814J0D01*
G37*
G36*
G01X6318086Y1270000D02*
G03X6559714Y1270000I120814J0D01*
G03X6318086Y1270000I-120814J0D01*
G37*
G36*
G01X6328385Y5030107D02*
G03X6570012Y5030107I120814J0D01*
G03X6328385Y5030107I-120814J0D01*
G37*
G36*
G01X6436086Y1841500D02*
G03X6568714Y1841500I66314J0D01*
G03X6436086Y1841500I-66314J0D01*
G37*
G36*
G01X6457544Y2028563D02*
G03X6559652Y2028563I51054J0D01*
G03X6457544Y2028563I-51054J0D01*
G37*
G36*
G01X6464046Y3873500D02*
G03X6566154Y3873500I51054J0D01*
G03X6464046Y3873500I-51054J0D01*
G37*
G36*
G01X6633923Y3874920D02*
G03X6736031Y3874920I51054J0D01*
G03X6633923Y3874920I-51054J0D01*
G37*
G36*
G01X6924586Y3162643D02*
G03X6956321Y3253689I0J51054D01*
G03X6924586Y3344736I-31735J39992D01*
G03X6892851Y3253689I0J-51054D01*
G03X6924586Y3162643I31735J-39992D01*
G37*
G36*
G01X7048246Y2658770D02*
G03X7150354Y2658770I51054J0D01*
G03X7048246Y2658770I-51054J0D01*
G37*
G36*
G01X7147286Y1841500D02*
G03X7279914Y1841500I66314J0D01*
G03X7147286Y1841500I-66314J0D01*
G37*
G36*
G01X7189818Y2716803D02*
G03X7253521Y2681555I49182J13697D01*
G03X7381256Y2713796I61993J23545D01*
G03X7479332Y2741604I48244J16704D01*
G03X7378728Y2725139I-49832J-11104D01*
G03X7279909Y2761045I-63214J-20039D01*
G03X7277270Y2764292I-40909J-30545D01*
G03X7279307Y2862527I-12870J49405D01*
G03X7226130Y2779905I-14907J-48829D01*
G03X7189818Y2716803I12870J-49405D01*
G37*
G36*
G01X7499186Y1028700D02*
G03X7740814Y1028700I120814J0D01*
G03X7499186Y1028700I-120814J0D01*
G37*
G36*
G01X7499186Y1282700D02*
G03X7740814Y1282700I120814J0D01*
G03X7499186Y1282700I-120814J0D01*
G37*
G36*
G01X7530846Y2705100D02*
G03X7632954Y2705100I51054J0D01*
G03X7530846Y2705100I-51054J0D01*
G37*
G36*
G01X7543546Y2973692D02*
G03X7645654Y2973692I51054J0D01*
G03X7543546Y2973692I-51054J0D01*
G37*
G36*
G01X7553686Y1854200D02*
G03X7686314Y1854200I66314J0D01*
G03X7553686Y1854200I-66314J0D01*
G37*
G36*
G01X7668032Y3873500D02*
G03X7800660Y3873500I66314J0D01*
G03X7668032Y3873500I-66314J0D01*
G37*
G36*
G01X7706086Y2705100D02*
G03X7838714Y2705100I66314J0D01*
G03X7706086Y2705100I-66314J0D01*
G37*
G36*
G01X7718786Y1854200D02*
G03X7851414Y1854200I66314J0D01*
G03X7718786Y1854200I-66314J0D01*
G37*
G36*
G01X7753186Y1028700D02*
G03X7994814Y1028700I120814J0D01*
G03X7753186Y1028700I-120814J0D01*
G37*
G36*
G01X7753186Y1282700D02*
G03X7994814Y1282700I120814J0D01*
G03X7753186Y1282700I-120814J0D01*
G37*
G36*
G01X7871232Y3873500D02*
G03X8003860Y3873500I66314J0D01*
G03X7871232Y3873500I-66314J0D01*
G37*
G36*
G01X8007186Y1028700D02*
G03X8248814Y1028700I120814J0D01*
G03X8007186Y1028700I-120814J0D01*
G37*
G36*
G01X8007186Y1282700D02*
G03X8248814Y1282700I120814J0D01*
G03X8007186Y1282700I-120814J0D01*
G37*
G36*
G01X8061686Y1854200D02*
G03X8194314Y1854200I66314J0D01*
G03X8061686Y1854200I-66314J0D01*
G37*
G36*
G01X8074432Y3873500D02*
G03X8207060Y3873500I66314J0D01*
G03X8074432Y3873500I-66314J0D01*
G37*
G36*
G01X8189000Y2705100D02*
G03X8321629Y2705100I66314J0D01*
G03X8189000Y2705100I-66314J0D01*
G37*
G36*
G01X8203946Y2857500D02*
G03X8306054Y2857500I51054J0D01*
G03X8203946Y2857500I-51054J0D01*
G37*
G36*
G01X8239486Y1854200D02*
G03X8372114Y1854200I66314J0D01*
G03X8239486Y1854200I-66314J0D01*
G37*
G36*
G01X8261186Y1028700D02*
G03X8502814Y1028700I120814J0D01*
G03X8261186Y1028700I-120814J0D01*
G37*
G36*
G01X8261186Y1282700D02*
G03X8502814Y1282700I120814J0D01*
G03X8261186Y1282700I-120814J0D01*
G37*
G36*
G01X8264932Y3873500D02*
G03X8397560Y3873500I66314J0D01*
G03X8264932Y3873500I-66314J0D01*
G37*
G36*
G01X8416422Y1854200D02*
G03X8549050Y1854200I66314J0D01*
G03X8416422Y1854200I-66314J0D01*
G37*
G36*
G01X8637449Y2705100D02*
G03X8770077Y2705100I66314J0D01*
G03X8637449Y2705100I-66314J0D01*
G37*
G36*
G01X9300432Y4225075D02*
G03X9058805Y4225075I-120814J0D01*
G03X9300432Y4225075I120814J0D01*
G37*
G36*
G01X9300432Y4479075D02*
G03X9058805Y4479075I-120814J0D01*
G03X9300432Y4479075I120814J0D01*
G37*
G36*
G01X9064986Y3683000D02*
G03X9197614Y3683000I66314J0D01*
G03X9064986Y3683000I-66314J0D01*
G37*
G36*
G01X9116100Y2705100D02*
G03X9248729Y2705100I66314J0D01*
G03X9116100Y2705100I-66314J0D01*
G37*
G36*
G01X9166586Y1841500D02*
G03X9299214Y1841500I66314J0D01*
G03X9166586Y1841500I-66314J0D01*
G37*
G36*
G01X9230086Y3683000D02*
G03X9362714Y3683000I66314J0D01*
G03X9230086Y3683000I-66314J0D01*
G37*
G36*
G01X9554432Y4225075D02*
G03X9312805Y4225075I-120814J0D01*
G03X9554432Y4225075I120814J0D01*
G37*
G36*
G01X9554432Y4479075D02*
G03X9312805Y4479075I-120814J0D01*
G03X9554432Y4479075I120814J0D01*
G37*
G36*
G01X9331686Y1841500D02*
G03X9464314Y1841500I66314J0D01*
G03X9331686Y1841500I-66314J0D01*
G37*
G36*
G01X9401427Y3683000D02*
G03X9534055Y3683000I66314J0D01*
G03X9401427Y3683000I-66314J0D01*
G37*
G36*
G01X9442286Y1028700D02*
G03X9683914Y1028700I120814J0D01*
G03X9442286Y1028700I-120814J0D01*
G37*
G36*
G01X9442286Y1282700D02*
G03X9683914Y1282700I120814J0D01*
G03X9442286Y1282700I-120814J0D01*
G37*
G36*
G01X9491637Y2552700D02*
G03X9593745Y2552700I51054J0D01*
G03X9491637Y2552700I-51054J0D01*
G37*
G36*
G01X9497650Y1841500D02*
G03X9630278Y1841500I66314J0D01*
G03X9497650Y1841500I-66314J0D01*
G37*
G36*
G01X9808432Y4479075D02*
G03X9566805Y4479075I-120814J0D01*
G03X9808432Y4479075I120814J0D01*
G37*
G36*
G01X9808432Y4225075D02*
G03X9566805Y4225075I-120814J0D01*
G03X9808432Y4225075I120814J0D01*
G37*
G36*
G01X9572986Y3683000D02*
G03X9705614Y3683000I66314J0D01*
G03X9572986Y3683000I-66314J0D01*
G37*
G36*
G01X9628777Y2705100D02*
G03X9761405Y2705100I66314J0D01*
G03X9628777Y2705100I-66314J0D01*
G37*
G36*
G01X9661886Y1841500D02*
G03X9794514Y1841500I66314J0D01*
G03X9661886Y1841500I-66314J0D01*
G37*
G36*
G01X9696286Y1028700D02*
G03X9937914Y1028700I120814J0D01*
G03X9696286Y1028700I-120814J0D01*
G37*
G36*
G01X9696286Y1282700D02*
G03X9937914Y1282700I120814J0D01*
G03X9696286Y1282700I-120814J0D01*
G37*
G36*
G01X9738086Y3683000D02*
G03X9870714Y3683000I66314J0D01*
G03X9738086Y3683000I-66314J0D01*
G37*
G36*
G01X10062432Y4479075D02*
G03X9820805Y4479075I-120814J0D01*
G03X10062432Y4479075I120814J0D01*
G37*
G36*
G01X10062432Y4225075D02*
G03X9820805Y4225075I-120814J0D01*
G03X10062432Y4225075I120814J0D01*
G37*
G36*
G01X9826986Y1841500D02*
G03X9959614Y1841500I66314J0D01*
G03X9826986Y1841500I-66314J0D01*
G37*
G36*
G01X9903186Y3683000D02*
G03X10035814Y3683000I66314J0D01*
G03X9903186Y3683000I-66314J0D01*
G37*
G36*
G01X9950286Y1028700D02*
G03X10191914Y1028700I120814J0D01*
G03X9950286Y1028700I-120814J0D01*
G37*
G36*
G01X9950286Y1282700D02*
G03X10191914Y1282700I120814J0D01*
G03X9950286Y1282700I-120814J0D01*
G37*
G36*
G01X9956546Y2540000D02*
G03X10058654Y2540000I51054J0D01*
G03X9956546Y2540000I-51054J0D01*
G37*
G36*
G01X10004786Y1841500D02*
G03X10137414Y1841500I66314J0D01*
G03X10004786Y1841500I-66314J0D01*
G37*
G36*
G01X10068286Y3683000D02*
G03X10200914Y3683000I66314J0D01*
G03X10068286Y3683000I-66314J0D01*
G37*
G36*
G01X10106386Y2705100D02*
G03X10239014Y2705100I66314J0D01*
G03X10106386Y2705100I-66314J0D01*
G37*
G36*
G01X10182586Y1841500D02*
G03X10315214Y1841500I66314J0D01*
G03X10182586Y1841500I-66314J0D01*
G37*
G36*
G01X10204286Y1028700D02*
G03X10445914Y1028700I120814J0D01*
G03X10204286Y1028700I-120814J0D01*
G37*
G36*
G01X10204286Y1282700D02*
G03X10445914Y1282700I120814J0D01*
G03X10204286Y1282700I-120814J0D01*
G37*
G36*
G01X10233386Y3683000D02*
G03X10366014Y3683000I66314J0D01*
G03X10233386Y3683000I-66314J0D01*
G37*
G36*
G01X10360386Y1841500D02*
G03X10493014Y1841500I66314J0D01*
G03X10360386Y1841500I-66314J0D01*
G37*
G36*
G01X10364657Y2552700D02*
G03X10466765Y2552700I51054J0D01*
G03X10364657Y2552700I-51054J0D01*
G37*
G36*
G01X10501797Y2705100D02*
G03X10634426Y2705100I66314J0D01*
G03X10501797Y2705100I-66314J0D01*
G37*
G36*
G01X10971498Y4651314D02*
G03X11007312Y4687128I0J35814D01*
G01X11007312Y4867128D01*
G03X10971498Y4902942I-35814J0D01*
G01X10791499Y4902942D01*
G03X10755685Y4867128I0J-35814D01*
G01X10755685Y4687128D01*
G03X10791499Y4651314I35814J0D01*
G01X10971498Y4651314D01*
G37*
G36*
G01X10817606Y4230827D02*
G03X10950194Y4230827I66294J0D01*
G03X10817606Y4230827I-66294J0D01*
G37*
G36*
G01X11078355Y2112470D02*
G03X10826727Y2112470I-125814J0D01*
G03X11078355Y2112470I125814J0D01*
G37*
G36*
G01X10878688Y2658770D02*
G03X11011276Y2658770I66294J0D01*
G03X10878688Y2658770I-66294J0D01*
G37*
G36*
G01X11009685Y4777128D02*
G03X11261312Y4777128I125814J0D01*
G03X11009685Y4777128I-125814J0D01*
G37*
G36*
G01X11071606Y4230827D02*
G03X11204194Y4230827I66294J0D01*
G03X11071606Y4230827I-66294J0D01*
G37*
G36*
G01X11332355Y2112470D02*
G03X11080727Y2112470I-125814J0D01*
G03X11332355Y2112470I125814J0D01*
G37*
G36*
G01X11145388Y2658770D02*
G03X11277976Y2658770I66294J0D01*
G03X11145388Y2658770I-66294J0D01*
G37*
G36*
G01X11263685Y4777128D02*
G03X11515312Y4777128I125814J0D01*
G03X11263685Y4777128I-125814J0D01*
G37*
G36*
G01X11325606Y4230827D02*
G03X11458194Y4230827I66294J0D01*
G03X11325606Y4230827I-66294J0D01*
G37*
G36*
G01X11586355Y2112470D02*
G03X11334727Y2112470I-125814J0D01*
G03X11586355Y2112470I125814J0D01*
G37*
G36*
G01X11386688Y2658770D02*
G03X11519276Y2658770I66294J0D01*
G03X11386688Y2658770I-66294J0D01*
G37*
G36*
G01X11517685Y4777128D02*
G03X11769312Y4777128I125814J0D01*
G03X11517685Y4777128I-125814J0D01*
G37*
G36*
G01X11579606Y4230827D02*
G03X11712194Y4230827I66294J0D01*
G03X11579606Y4230827I-66294J0D01*
G37*
G36*
G01X11840355Y2112470D02*
G03X11588727Y2112470I-125814J0D01*
G03X11840355Y2112470I125814J0D01*
G37*
G36*
G01X11653388Y2658770D02*
G03X11785976Y2658770I66294J0D01*
G03X11653388Y2658770I-66294J0D01*
G37*
G36*
G01X11771685Y4777128D02*
G03X12023312Y4777128I125814J0D01*
G03X11771685Y4777128I-125814J0D01*
G37*
G36*
G01X12074112Y766270D02*
G03X11822485Y766270I-125814J0D01*
G03X12074112Y766270I125814J0D01*
G37*
G36*
G01X11833606Y4230827D02*
G03X11966194Y4230827I66294J0D01*
G03X11833606Y4230827I-66294J0D01*
G37*
G36*
G01X12094355Y2112470D02*
G03X11842727Y2112470I-125814J0D01*
G03X12094355Y2112470I125814J0D01*
G37*
G36*
G01X11879603Y1307513D02*
G03X12012191Y1307513I66294J0D01*
G03X11879603Y1307513I-66294J0D01*
G37*
G36*
G01X11907388Y2658770D02*
G03X12039976Y2658770I66294J0D01*
G03X11907388Y2658770I-66294J0D01*
G37*
G36*
G01X11989986Y3543300D02*
G03X12241614Y3543300I125814J0D01*
G03X11989986Y3543300I-125814J0D01*
G37*
G36*
G01X12025685Y4777128D02*
G03X12277312Y4777128I125814J0D01*
G03X12025685Y4777128I-125814J0D01*
G37*
G36*
G01X12328112Y766270D02*
G03X12076485Y766270I-125814J0D01*
G03X12328112Y766270I125814J0D01*
G37*
G36*
G01X12087606Y4230827D02*
G03X12220194Y4230827I66294J0D01*
G03X12087606Y4230827I-66294J0D01*
G37*
G36*
G01X12348355Y2112470D02*
G03X12096727Y2112470I-125814J0D01*
G03X12348355Y2112470I125814J0D01*
G37*
G36*
G01X12133603Y1307513D02*
G03X12266191Y1307513I66294J0D01*
G03X12133603Y1307513I-66294J0D01*
G37*
G36*
G01X12148688Y2658770D02*
G03X12281276Y2658770I66294J0D01*
G03X12148688Y2658770I-66294J0D01*
G37*
G36*
G01X12243986Y3543300D02*
G03X12495614Y3543300I125814J0D01*
G03X12243986Y3543300I-125814J0D01*
G37*
G36*
G01X12279685Y4777128D02*
G03X12531312Y4777128I125814J0D01*
G03X12279685Y4777128I-125814J0D01*
G37*
G36*
G01X12582112Y766270D02*
G03X12330485Y766270I-125814J0D01*
G03X12582112Y766270I125814J0D01*
G37*
G36*
G01X12341606Y4230827D02*
G03X12474194Y4230827I66294J0D01*
G03X12341606Y4230827I-66294J0D01*
G37*
G36*
G01X12602355Y2112470D02*
G03X12350727Y2112470I-125814J0D01*
G03X12602355Y2112470I125814J0D01*
G37*
G36*
G01X12387603Y1307513D02*
G03X12520191Y1307513I66294J0D01*
G03X12387603Y1307513I-66294J0D01*
G37*
G36*
G01X12415388Y2658770D02*
G03X12547976Y2658770I66294J0D01*
G03X12415388Y2658770I-66294J0D01*
G37*
G36*
G01X12497986Y3543300D02*
G03X12749614Y3543300I125814J0D01*
G03X12497986Y3543300I-125814J0D01*
G37*
G36*
G01X12533685Y4777128D02*
G03X12785312Y4777128I125814J0D01*
G03X12533685Y4777128I-125814J0D01*
G37*
G36*
G01X12836112Y766270D02*
G03X12584485Y766270I-125814J0D01*
G03X12836112Y766270I125814J0D01*
G37*
G36*
G01X12595606Y4230827D02*
G03X12728194Y4230827I66294J0D01*
G03X12595606Y4230827I-66294J0D01*
G37*
G36*
G01X12856355Y2112470D02*
G03X12604727Y2112470I-125814J0D01*
G03X12856355Y2112470I125814J0D01*
G37*
G36*
G01X12641603Y1307513D02*
G03X12774191Y1307513I66294J0D01*
G03X12641603Y1307513I-66294J0D01*
G37*
G36*
G01X12656688Y2658770D02*
G03X12789276Y2658770I66294J0D01*
G03X12656688Y2658770I-66294J0D01*
G37*
G36*
G01X12751986Y3543300D02*
G03X13003614Y3543300I125814J0D01*
G03X12751986Y3543300I-125814J0D01*
G37*
G36*
G01X12787685Y4777128D02*
G03X13039312Y4777128I125814J0D01*
G03X12787685Y4777128I-125814J0D01*
G37*
G36*
G01X13090112Y766270D02*
G03X12838485Y766270I-125814J0D01*
G03X13090112Y766270I125814J0D01*
G37*
G36*
G01X12849606Y4230827D02*
G03X12982194Y4230827I66294J0D01*
G03X12849606Y4230827I-66294J0D01*
G37*
G36*
G01X13110355Y2112470D02*
G03X12858727Y2112470I-125814J0D01*
G03X13110355Y2112470I125814J0D01*
G37*
G36*
G01X12895603Y1307513D02*
G03X13028191Y1307513I66294J0D01*
G03X12895603Y1307513I-66294J0D01*
G37*
G36*
G01X12923388Y2658770D02*
G03X13055976Y2658770I66294J0D01*
G03X12923388Y2658770I-66294J0D01*
G37*
G36*
G01X13005986Y3543300D02*
G03X13257614Y3543300I125814J0D01*
G03X13005986Y3543300I-125814J0D01*
G37*
G36*
G01X13041685Y4777128D02*
G03X13293312Y4777128I125814J0D01*
G03X13041685Y4777128I-125814J0D01*
G37*
G36*
G01X13344112Y766270D02*
G03X13092485Y766270I-125814J0D01*
G03X13344112Y766270I125814J0D01*
G37*
G36*
G01X13109785Y4231891D02*
G03X13242373Y4231891I66294J0D01*
G03X13109785Y4231891I-66294J0D01*
G37*
G36*
G01X13149603Y1307513D02*
G03X13282191Y1307513I66294J0D01*
G03X13149603Y1307513I-66294J0D01*
G37*
G36*
G01X13164688Y2658770D02*
G03X13297276Y2658770I66294J0D01*
G03X13164688Y2658770I-66294J0D01*
G37*
G36*
G01X13259986Y3543300D02*
G03X13511614Y3543300I125814J0D01*
G03X13259986Y3543300I-125814J0D01*
G37*
G36*
G01X13598112Y766270D02*
G03X13346485Y766270I-125814J0D01*
G03X13598112Y766270I125814J0D01*
G37*
G36*
G01X13403603Y1307513D02*
G03X13536191Y1307513I66294J0D01*
G03X13403603Y1307513I-66294J0D01*
G37*
G36*
G01X13513986Y3543300D02*
G03X13765614Y3543300I125814J0D01*
G03X13513986Y3543300I-125814J0D01*
G37*
G36*
G01X13573506Y2998927D02*
G03X13706094Y2998927I66294J0D01*
G03X13573506Y2998927I-66294J0D01*
G37*
G36*
G01X13852112Y766270D02*
G03X13600485Y766270I-125814J0D01*
G03X13852112Y766270I125814J0D01*
G37*
G36*
G01X13657603Y1307513D02*
G03X13790191Y1307513I66294J0D01*
G03X13657603Y1307513I-66294J0D01*
G37*
G36*
G01X13767986Y3543300D02*
G03X14019614Y3543300I125814J0D01*
G03X13767986Y3543300I-125814J0D01*
G37*
G36*
G01X13827506Y2998927D02*
G03X13960094Y2998927I66294J0D01*
G03X13827506Y2998927I-66294J0D01*
G37*
G36*
G01X14106112Y766270D02*
G03X13854485Y766270I-125814J0D01*
G03X14106112Y766270I125814J0D01*
G37*
G36*
G01X13911603Y1307513D02*
G03X14044191Y1307513I66294J0D01*
G03X13911603Y1307513I-66294J0D01*
G37*
G36*
G01X14021986Y3543300D02*
G03X14273614Y3543300I125814J0D01*
G03X14021986Y3543300I-125814J0D01*
G37*
G36*
G01X14081506Y2998927D02*
G03X14214094Y2998927I66294J0D01*
G03X14081506Y2998927I-66294J0D01*
G37*
G36*
G01X14144299Y892084D02*
G03X14108485Y856270I0J-35814D01*
G01X14108485Y676270D01*
G03X14144299Y640456I35814J0D01*
G01X14324298Y640456D01*
G03X14360112Y676270I0J35814D01*
G01X14360112Y856270D01*
G03X14324298Y892084I-35814J0D01*
G01X14144299Y892084D01*
G37*
G36*
G01X14165603Y1307513D02*
G03X14298191Y1307513I66294J0D01*
G03X14165603Y1307513I-66294J0D01*
G37*
%LPD*%
G36*
G01X2418516Y2207062D02*
G01X2605786Y2019792D01*
G01X2605786Y1993900D01*
G03X2641600Y1958086I35814J0D01*
G01X2874950Y1958086D01*
G03X2878744Y1958288I0J35814D01*
G01X2913816Y1923216D01*
G03X2921000Y1920240I7184J7184D01*
G01X3361522Y1920240D01*
G01X3361522Y1893090D01*
G01X3118275Y1649843D01*
G01X2507282Y1649843D01*
G01X2243885Y1913239D01*
G01X2243885Y2377440D01*
G01X2415540Y2377440D01*
G01X2415540Y2214246D01*
G03X2418516Y2207062I10160J0D01*
G37*
G36*
G01X2637450Y3379721D02*
G01X2999740Y3379721D01*
G01X2999740Y3274060D01*
G01X2637450Y3274060D01*
G01X2637450Y3379721D01*
G37*
G36*
G01X2651760Y2720340D02*
G01X2759259Y2720340D01*
G03X2780551Y2638657I60141J-27940D01*
G03X2864790Y2644054I38849J53743D01*
G01X2864790Y2232746D01*
G03X2753086Y2184400I-45390J-48346D01*
G03X2864790Y2136054I66314J0D01*
G01X2864790Y2004060D01*
G01X2651760Y2004060D01*
G01X2651760Y2720340D01*
G37*
G36*
G01X2898140Y2999740D02*
G01X2898140Y2864881D01*
G03X2890426Y2854960I48260J-45481D01*
G01X2661023Y2854960D01*
G01X2661023Y2999740D01*
G01X2898140Y2999740D01*
G37*
G36*
G01X2910764Y1993900D02*
G01X2910764Y2346849D01*
G01X3142828Y2346849D01*
G03X3195300Y2239986I52472J-40549D01*
G03X3247772Y2346849I0J66314D01*
G01X3361522Y2346849D01*
G01X3361522Y1896364D01*
G01X2893060Y1896364D01*
G01X2893060Y1963002D01*
G03X2910764Y1993900I-18110J30898D01*
G37*
G36*
G01X2980398Y2635464D02*
G03X3012537Y2697246I-33998J56936D01*
G01X3388263Y2697246D01*
G03X3445181Y2626730I66137J-4846D01*
G03X3519315Y2678849I9219J65670D01*
G01X5760167Y2678849D01*
G03X5772863Y2613711I44432J-25146D01*
G03X5764606Y2605454I31735J-39992D01*
G03X5688506Y2609812I-39992J-31735D01*
G03X5692895Y2533714I36108J-36093D01*
G03X5673560Y2493709I31719J-40005D01*
G03X5692895Y2453704I51054J0D01*
G03X5688506Y2377605I31719J-40005D01*
G03X5764606Y2381963I36108J36093D01*
G03X5772863Y2373706I39992J31735D01*
G03X5768505Y2297606I31735J-39992D01*
G03X5844604Y2301995I36093J36108D01*
G03X5924614Y2301995I40005J31719D01*
G03X6004611Y2301979I40005J31719D01*
G03X6009733Y2296423I39992J31735D01*
G01X5927174Y2213864D01*
G01X4502106Y2213864D01*
G01X4234285Y2481685D01*
G03X4191000Y2499614I-43285J-43285D01*
G01X3573179Y2499614D01*
G01X3525048Y2547745D01*
G03X3481763Y2565674I-43285J-43285D01*
G01X2910764Y2565674D01*
G01X2910764Y2636475D01*
G03X2980398Y2635464I35636J55925D01*
G37*
%LPC*%
G36*
G01X5488254Y2299673D02*
G03X5584415Y2294772I48946J14521D01*
G03X5662346Y2351321I28985J42028D01*
G03X5566185Y2356222I-48946J-14521D01*
G03X5488254Y2299673I-28985J-42028D01*
G37*
%LPD*%
G36*
G01X4434211Y3253375D02*
G03X4473006Y3237306I38795J38795D01*
G01X5366059Y3237306D01*
G03X5404853Y3253375I0J54864D01*
G01X5424014Y3272536D01*
G01X5828165Y3272536D01*
G01X5849725Y3250975D01*
G03X5848508Y3177596I34883J-37278D01*
G03X5921887Y3178814I36101J36101D01*
G01X5989739Y3110961D01*
G01X5989739Y2973692D01*
G03X6005808Y2934898I54864J0D01*
G01X6069749Y2870957D01*
G01X6069749Y2835007D01*
G03X6063962Y2835313I-5787J-54558D01*
G01X6025244Y2835313D01*
G03X5986450Y2819244I0J-54864D01*
G01X5955783Y2788577D01*
G01X5849045Y2788577D01*
G03X5804599Y2864752I-44446J25121D01*
G03X5760152Y2788577I0J-51054D01*
G01X5166614Y2788577D01*
G01X5166614Y2793591D01*
G03X5118100Y2860548I-48514J15903D01*
G03X5069586Y2793591I0J-51054D01*
G01X5069586Y2788577D01*
G01X3520255Y2788577D01*
G01X3517927Y2790905D01*
G03X3479133Y2806974I-38795J-38795D01*
G01X3392539Y2806974D01*
G03X3327400Y2885714I-65139J12426D01*
G03X3262261Y2806974I0J-66314D01*
G01X3138539Y2806974D01*
G03X3089191Y2883807I-65139J12426D01*
G03X3009900Y2838513I-15791J-64407D01*
G03X2985037Y2873295I-63500J-19113D01*
G03X2944114Y2885675I-38637J-53895D01*
G01X2944114Y3007125D01*
G03X3011831Y3062611I2286J66275D01*
G03X2965513Y3136900I-65431J10789D01*
G03X3009900Y3181287I-19113J63500D01*
G03X3133880Y3173203I63500J19113D01*
G03X3045560Y3260587I-60480J27197D01*
G03X3045714Y3263900I-35660J3313D01*
G01X3045714Y3272536D01*
G01X4415050Y3272536D01*
G01X4434211Y3253375D01*
G37*
%LPC*%
G36*
G01X3261086Y3200400D02*
G03X3393714Y3200400I66314J0D01*
G03X3261086Y3200400I-66314J0D01*
G37*
G36*
G01X5359146Y2933700D02*
G03X5461254Y2933700I51054J0D01*
G03X5359146Y2933700I-51054J0D01*
G37*
G36*
G01X5402145Y3165094D02*
G03X5504253Y3165094I51054J0D01*
G03X5402145Y3165094I-51054J0D01*
G37*
G36*
G01X5448046Y2997200D02*
G03X5550154Y2997200I51054J0D01*
G03X5448046Y2997200I-51054J0D01*
G37*
%LPD*%
G36*
G01X5844604Y2461989D02*
G03X5884609Y2442655I40005J31719D01*
G03X5924614Y2461989I0J51054D01*
G03X5932899Y2453704I40005J31719D01*
G03X5913565Y2413709I31719J-40005D01*
G03X5932883Y2373706I51054J-10D01*
G03X5924614Y2365433I31735J-39992D01*
G03X5844604Y2365433I-40005J-31719D01*
G03X5836334Y2373706I-40005J-31719D01*
G03X5855652Y2413709I-31735J39992D01*
G03X5836318Y2453704I-51054J-10D01*
G03X5844604Y2461989I-31719J40005D01*
G37*
G36*
G01X6036064Y2603368D02*
G03X6084608Y2621984I8539J50335D01*
G03X6092878Y2613711I40005J31719D01*
G03X6073559Y2573708I31735J-39992D01*
G03X6092894Y2533714I51054J10D01*
G03X6084608Y2525428I31719J-40005D01*
G03X6004611Y2525444I-40005J-31719D01*
G03X5996338Y2533714I-39992J-31735D01*
G03X6012288Y2555439I-31719J40005D01*
G03X6014953Y2582258I-47669J18280D01*
G01X6036064Y2603368D01*
G37*
G36*
G01X6083398Y3172482D02*
G01X6079473Y3176406D01*
G03X6084608Y3181978I-34870J37291D01*
G03X6141443Y3165497I40005J31719D01*
G01X6156404Y3150535D01*
G03X6172862Y3093695I48194J-16849D01*
G03X6168497Y3089803I31735J-39992D01*
G03X6164605Y3085438I36101J-36101D01*
G03X6132615Y3104125I-39992J-31735D01*
G03X6116672Y3139208I-54738J-3712D01*
G01X6083398Y3172482D01*
G37*
G36*
G01X6164605Y3421966D02*
G03X6172878Y3413697I39992J31735D01*
G03X6153681Y3369950I31719J-40005D01*
G03X6139237Y3372422I-14444J-40962D01*
G01X6123343Y3372422D01*
G01X6123343Y3388316D01*
G03X6120862Y3402785I-43434J0D01*
G03X6164605Y3421966I3751J50916D01*
G37*
G36*
G01X6156332Y2453704D02*
G03X6175667Y2493709I-31719J40005D01*
G03X6156332Y2533714I-51054J0D01*
G03X6164605Y2541983I-31719J40005D01*
G03X6244603Y2541999I39992J31735D01*
G03X6252888Y2533714I40005J31719D01*
G03X6244640Y2461942I31719J-40005D01*
G03X6218513Y2468563I-26127J-48243D01*
G01X6204598Y2468563D01*
G03X6165803Y2452493I0J-54864D01*
G01X6161891Y2448582D01*
G03X6156332Y2453704I-37278J-34883D01*
G37*
G36*
G01X6436921Y3344154D02*
G03X6393563Y3292437I7682J-50473D01*
G01X6335647Y3292437D01*
G03X6316327Y3333687I-51039J1245D01*
G03X6335662Y3373692I-31719J40005D01*
G03X6316327Y3413697I-51054J0D01*
G03X6335077Y3445998I-31719J40005D01*
G01X6436921Y3344154D01*
G37*
G36*
G01X6556322Y2373706D02*
G03X6574698Y2403931I-31735J39992D01*
G03X6569019Y2438845I-50111J9767D01*
G01X6604597Y2438845D01*
G03X6647112Y2459031I0J54864D01*
G03X6652862Y2453704I37470J34678D01*
G03X6648481Y2377598I31719J-40005D01*
G03X6724587Y2381979I36101J36101D01*
G03X6732856Y2373706I40005J31719D01*
G03X6714189Y2341842I31735J-39992D01*
G01X6574990Y2341842D01*
G03X6556322Y2373706I-50403J-8128D01*
G37*
G36*
G01X6802075Y2619040D02*
G03X6883396Y2614908I42527J34663D01*
G01X6887308Y2618820D01*
G03X6892851Y2613711I37278J34883D01*
G03X6873532Y2573708I31735J-39992D01*
G03X6892867Y2533714I51054J10D01*
G03X6884594Y2525444I31719J-40005D01*
G03X6804597Y2525428I-39992J-31735D01*
G03X6796311Y2533714I-40005J-31719D01*
G03X6815645Y2573708I-31719J40005D01*
G03X6796327Y2613711I-51054J10D01*
G03X6802075Y2619040I-31735J39992D01*
G37*
G36*
G01X6843332Y2976990D02*
G01X6843332Y2977520D01*
G01X6843731Y2977168D01*
G01X6843332Y2976990D01*
G37*
G54D10*
G01X14464186Y5464186D02*
G01X14464186Y35814D01*
G01X35814Y35814D01*
G01X35814Y5464186D01*
G01X14464186Y5464186D01*
G01X311584Y3850076D02*
G01X251584Y3850076D01*
G03X251584Y3658448I0J-95814D01*
G01X311584Y3658448D01*
G03X311584Y3850076I0J95814D01*
G01X311584Y2985054D02*
G01X251584Y2985054D01*
G03X251584Y2793426I0J-95814D01*
G01X311584Y2793426D01*
G03X311584Y2985054I0J95814D01*
G01X659567Y2793426D02*
G01X739567Y2793426D01*
G03X739567Y2985054I0J95814D01*
G01X706066Y2985054D01*
G03X638789Y3104279I-56512J46706D01*
G03X609046Y2970652I10765J-72520D01*
G03X659567Y2793426I50521J-81412D01*
G01X739567Y3658448D02*
G03X739567Y3850076I0J95814D01*
G01X659567Y3850076D01*
G03X609046Y3672850I0J-95814D01*
G03X638789Y3539223I40508J-61107D01*
G03X706066Y3658448I10765J72520D01*
G01X739567Y3658448D01*
G01X852303Y4280442D02*
G03X984891Y4280442I66294J0D01*
G03X852303Y4280442I-66294J0D01*
G01X1281398Y868199D02*
G01X1281398Y638199D01*
G03X1503026Y638199I110814J0D01*
G01X1503026Y868199D01*
G03X1281398Y868199I-110814J0D01*
G01X1494161Y2797147D02*
G03X1745789Y2797147I125814J0D01*
G03X1494161Y2797147I-125814J0D01*
G01X1502409Y3204459D02*
G03X1754036Y3204459I125814J0D01*
G03X1502409Y3204459I-125814J0D01*
G01X1622786Y3759200D02*
G03X1755414Y3759200I66314J0D01*
G03X1622786Y3759200I-66314J0D01*
G01X1711686Y3441700D02*
G03X1844314Y3441700I66314J0D01*
G03X1711686Y3441700I-66314J0D01*
G01X2070100Y2652014D02*
G03X1999874Y2622926I0J-99314D01*
G01X1809374Y2432426D01*
G03X1780286Y2362200I70226J-70226D01*
G01X1780286Y1409071D01*
G03X1809374Y1338845I99314J0D01*
G01X2263106Y885114D01*
G01X2135200Y885114D01*
G03X2099386Y849300I0J-35814D01*
G01X2099386Y649300D01*
G03X2135200Y613486I35814J0D01*
G01X2335200Y613486D01*
G03X2371014Y649300I0J35814D01*
G01X2371014Y777206D01*
G01X2571703Y576517D01*
G03X2641928Y547428I70226J70226D01*
G01X2819641Y547428D01*
G03X2882900Y323686I63259J-102928D01*
G03X2946159Y547428I0J120814D01*
G01X3467798Y547428D01*
G03X3538023Y576517I0J99314D01*
G01X3636892Y675386D01*
G01X4927600Y675386D01*
G03X4997826Y704474I0J99314D01*
G01X5168900Y875549D01*
G01X5454274Y590174D01*
G03X5524500Y561086I70226J70226D01*
G01X6883400Y561086D01*
G03X6953626Y590174I0J99314D01*
G01X7112000Y748549D01*
G01X7270374Y590174D01*
G03X7340600Y561086I70226J70226D01*
G01X8839200Y561086D01*
G03X8909426Y590174I0J99314D01*
G01X9055100Y735849D01*
G01X9480174Y310774D01*
G03X9550400Y281686I70226J70226D01*
G01X11277600Y281686D01*
G03X11347826Y310774I0J99314D01*
G01X11510524Y473473D01*
G03X11539612Y543698I-70226J70226D01*
G01X11539612Y666956D01*
G01X11617060Y666956D01*
G03X11820112Y766270I77239J99314D01*
G03X11617060Y865584I-125814J0D01*
G01X11539612Y865584D01*
G01X11539612Y1213761D01*
G01X11928337Y1602486D01*
G01X13081871Y1602486D01*
G03X13152097Y1631574I0J99314D01*
G01X13508150Y1987628D01*
G03X13569780Y2013156I-15609J124842D01*
G01X13669302Y2013156D01*
G03X13872355Y2112470I77239J99314D01*
G03X13669302Y2211784I-125814J0D01*
G01X13591855Y2211784D01*
G01X13591855Y2674559D01*
G03X13562767Y2744785I-99314J0D01*
G01X13379826Y2927726D01*
G03X13373100Y2933861I-70226J-70226D01*
G03X13417245Y3057289I12700J65066D01*
G03X13338446Y2952533I-31445J-58362D01*
G03X13309600Y2956814I-28846J-95033D01*
G01X13182999Y2956814D01*
G03X13131800Y3065221I-51199J42113D01*
G03X13080601Y2956814I0J-66294D01*
G01X12928999Y2956814D01*
G03X12877800Y3065221I-51199J42113D01*
G03X12826601Y2956814I0J-66294D01*
G01X12674999Y2956814D01*
G03X12623800Y3065221I-51199J42113D01*
G03X12572601Y2956814I0J-66294D01*
G01X12420999Y2956814D01*
G03X12369800Y3065221I-51199J42113D01*
G03X12318601Y2956814I0J-66294D01*
G01X12167140Y2956814D01*
G03X12116664Y3066085I-50477J42977D01*
G03X12066187Y2956814I0J-66294D01*
G01X11912834Y2956814D01*
G03X11860936Y3064358I-51898J41250D01*
G03X11809039Y2956814I0J-66294D01*
G01X11750537Y2956814D01*
G01X11707114Y3000237D01*
G01X11707114Y3466061D01*
G03X11732642Y3527691I-99314J77239D01*
G01X11736533Y3531582D01*
G03X11950764Y3454336I125267J11718D01*
G03X11873518Y3668567I-88964J88964D01*
G01X12093437Y3888486D01*
G01X13220700Y3888486D01*
G03X13290926Y3917574I0J99314D01*
G01X13491724Y4118373D01*
G03X13520812Y4188598I-70226J70226D01*
G01X13520812Y4677814D01*
G01X13598260Y4677814D01*
G03X13801312Y4777128I77239J99314D01*
G03X13598260Y4876442I-125814J0D01*
G01X13498737Y4876442D01*
G03X13332535Y4866092I-77239J-99314D01*
G03X13322184Y4699889I88964J-88964D01*
G01X13322184Y4229736D01*
G01X13179563Y4087114D01*
G01X12052300Y4087114D01*
G03X11982074Y4058026I0J-99314D01*
G01X11592191Y3668142D01*
G03X11530561Y3642614I15609J-124842D01*
G01X11431039Y3642614D01*
G03X11369409Y3668142I-77239J-99314D01*
G01X11055726Y3981826D01*
G03X10985500Y4010914I-70226J-70226D01*
G01X10548932Y4010914D01*
G01X10548932Y4156281D01*
G03X10548932Y4293870I-99314J68795D01*
G01X10548932Y4361246D01*
G03X10570432Y4394076I-14314J32829D01*
G01X10570432Y4564075D01*
G03X10534618Y4599889I-35814J0D01*
G01X10364619Y4599889D01*
G03X10328805Y4564075I0J-35814D01*
G01X10328805Y4394076D01*
G03X10350304Y4361246I35814J0D01*
G01X10350304Y4293870D01*
G03X10330748Y4246656I99314J-68795D01*
G01X10082306Y3998214D01*
G01X8960832Y3998214D01*
G01X8960832Y4433781D01*
G03X8931744Y4504007I-99314J0D01*
G01X8642530Y4793221D01*
G03X8603314Y4846941I-104985J-35466D01*
G01X8612544Y4846941D01*
G03X8648358Y4882755I0J35814D01*
G01X8648358Y5032755D01*
G03X8612544Y5068569I-35814J0D01*
G01X8462545Y5068569D01*
G03X8426731Y5032755I0J-35814D01*
G01X8426731Y4882755D01*
G03X8462545Y4846941I35814J0D01*
G01X8471775Y4846941D01*
G03X8437545Y4805502I65769J-89186D01*
G03X8237545Y4805502I-100000J-47747D01*
G03X8037546Y4805502I-100000J-47747D01*
G03X7837546Y4805502I-100000J-47747D01*
G03X7637546Y4805502I-100000J-47747D01*
G03X7437547Y4805502I-100000J-47747D01*
G03X7226733Y4757755I-100000J-47747D01*
G03X7437547Y4710009I110814J0D01*
G03X7637546Y4710009I100000J47747D01*
G03X7837546Y4710009I100000J47747D01*
G03X8037546Y4710009I100000J47747D01*
G03X8237545Y4710009I100000J47747D01*
G03X8437545Y4710009I100000J47747D01*
G03X8502078Y4652770I100000J47747D01*
G01X8762204Y4392644D01*
G01X8762204Y3952782D01*
G03X8791293Y3882556I99314J0D01*
G01X8845174Y3828674D01*
G03X8915400Y3799586I70226J70226D01*
G01X10123443Y3799586D01*
G03X10193669Y3828674I0J99314D01*
G01X10350304Y3985310D01*
G01X10350304Y3965482D01*
G03X10379393Y3895256I99314J0D01*
G01X10433274Y3841374D01*
G03X10503500Y3812286I70226J70226D01*
G01X10944363Y3812286D01*
G01X11228958Y3527691D01*
G03X11431039Y3443986I124842J15609D01*
G01X11508486Y3443986D01*
G01X11508486Y2959100D01*
G03X11537574Y2888874I99314J0D01*
G01X11639174Y2787274D01*
G03X11709400Y2758186I70226J70226D01*
G01X13268463Y2758186D01*
G01X13393227Y2633422D01*
G01X13393227Y2189709D01*
G03X13367699Y2128079I99314J-77239D01*
G01X13363808Y2124188D01*
G03X13149577Y2201434I-125267J-11718D01*
G03X13226823Y1987203I88964J-88964D01*
G01X13040734Y1801114D01*
G01X11887200Y1801114D01*
G03X11816974Y1772026I0J-99314D01*
G01X11370073Y1325124D01*
G03X11340984Y1254898I70226J-70226D01*
G01X11340984Y843509D01*
G03X11340984Y689031I99314J-77239D01*
G01X11340984Y584836D01*
G01X11236463Y480314D01*
G01X9591537Y480314D01*
G01X9158735Y913116D01*
G03X9175914Y943700I-18635J30584D01*
G01X9175914Y1113700D01*
G03X9154414Y1146529I-35814J0D01*
G01X9154414Y1213905D01*
G03X9055100Y1403514I-99314J68795D01*
G03X8955786Y1213905I0J-120814D01*
G01X8955786Y1146529D01*
G03X8934286Y1113700I14314J-32829D01*
G01X8934286Y943700D01*
G03X8951465Y913116I35814J0D01*
G01X8798063Y759714D01*
G01X7381737Y759714D01*
G01X7222697Y918754D01*
G03X7232814Y943700I-25697J24946D01*
G01X7232814Y1113700D01*
G03X7211314Y1146529I-35814J0D01*
G01X7211314Y1213905D01*
G03X7112000Y1403514I-99314J68795D01*
G03X7012686Y1213905I0J-120814D01*
G01X7012686Y1146529D01*
G03X6991186Y1113700I14314J-32829D01*
G01X6991186Y943700D01*
G03X7001303Y918754I35814J0D01*
G01X6842263Y759714D01*
G01X5565637Y759714D01*
G01X5289714Y1035637D01*
G01X5289714Y1101000D01*
G03X5268214Y1133829I-35814J0D01*
G01X5268214Y1201205D01*
G03X5168900Y1390814I-99314J68795D01*
G03X5069586Y1201205I0J-120814D01*
G01X5069586Y1133829D01*
G03X5048086Y1101000I14314J-32829D01*
G01X5048086Y1035637D01*
G01X4886463Y874014D01*
G01X3595755Y874014D01*
G03X3525530Y844926I0J-99314D01*
G01X3426660Y746056D01*
G01X2683065Y746056D01*
G01X1978914Y1450208D01*
G01X1978914Y2321063D01*
G01X2111237Y2453386D01*
G01X2536963Y2453386D01*
G01X2605786Y2384563D01*
G01X2605786Y2084809D01*
G01X2461514Y2229081D01*
G01X2461514Y2387600D01*
G03X2425700Y2423414I-35814J0D01*
G01X2233725Y2423414D01*
G03X2197911Y2387600I0J-35814D01*
G01X2197911Y1909031D01*
G03X2208401Y1883707I35814J0D01*
G01X2477749Y1614359D01*
G03X2503073Y1603869I25324J25324D01*
G01X3122484Y1603869D01*
G03X3147808Y1614359I0J35814D01*
G01X3387543Y1854094D01*
G03X3407496Y1886204I-15861J32110D01*
G01X3407496Y1888881D01*
G01X3407496Y1930469D01*
G01X3407496Y2010522D01*
G03X3517900Y2038287I46904J46878D01*
G03X3562287Y1993900I63500J19113D01*
G03X3581400Y1864086I19113J-63500D01*
G03X3600513Y1993900I0J66314D01*
G03X3628291Y2104291I-19113J63500D01*
G03X3517900Y2076513I-46891J-46891D01*
G03X3407496Y2104278I-63500J-19113D01*
G01X3407496Y2357009D01*
G03X3383437Y2390839I-35814J0D01*
G03X3394537Y2409870I-50937J42461D01*
G03X3504592Y2395061I59863J28530D01*
G03X3547823Y2377186I43231J43339D01*
G01X3573048Y2377186D01*
G03X3581400Y2245086I8352J-65786D01*
G03X3589752Y2377186I0J66314D01*
G01X4165644Y2377186D01*
G01X4427115Y2115715D01*
G03X4497549Y2104136I43285J43285D01*
G01X5949899Y2104136D01*
G03X5988694Y2120205I0J54864D01*
G01X6211555Y2343067D01*
G01X6226454Y2328168D01*
G03X6265249Y2312099I38795J38795D01*
G01X6343049Y2312099D01*
G03X6359072Y2275561I54818J2257D01*
G01X6386449Y2248183D01*
G03X6425244Y2232114I38795J38795D01*
G01X6854626Y2232114D01*
G03X6864938Y2231136I10312J53886D01*
G01X7162800Y2231136D01*
G03X7201595Y2247205I0J54864D01*
G01X7277219Y2322830D01*
G01X7428309Y2322830D01*
G03X7428309Y2432558I0J54864D01*
G01X7254494Y2432558D01*
G03X7215699Y2416489I0J-54864D01*
G01X7140075Y2340864D01*
G01X7139679Y2340864D01*
G03X7114924Y2420710I-40379J31242D01*
G03X7098406Y2495888I-41024J30390D01*
G03X7026186Y2469263I-24506J-44788D01*
G01X7026186Y2673062D01*
G03X7010117Y2711856I-54864J0D01*
G01X6982739Y2739234D01*
G03X6943945Y2755303I-38795J-38795D01*
G01X6929891Y2755303D01*
G01X6930132Y2755544D01*
G03X6946202Y2794339I-38795J38795D01*
G01X6946202Y2833056D01*
G03X6930132Y2871851I-54864J0D01*
G01X6929891Y2872092D01*
G01X6943945Y2872092D01*
G03X6982739Y2888162I0J54864D01*
G01X7010117Y2915539D01*
G03X7026186Y2954334I-38795J38795D01*
G01X7026186Y2993051D01*
G03X7010117Y3031846I-54864J0D01*
G01X6982739Y3059223D01*
G03X6943945Y3075292I-38795J-38795D01*
G01X6905227Y3075292D01*
G03X6900781Y3075112I0J-54864D01*
G01X6899466Y3076428D01*
G01X6899466Y3133662D01*
G03X6883396Y3172456I-54864J0D01*
G01X6719452Y3336401D01*
G03X6724587Y3341972I-34870J37291D01*
G03X6800692Y3337591I40005J31719D01*
G03X6796311Y3413697I-36101J36101D01*
G03X6804597Y3421982I-31719J40005D01*
G03X6895656Y3453702I40005J31719D01*
G03X6804597Y3485421I-51054J0D01*
G03X6796327Y3493694I-40005J-31719D01*
G03X6800685Y3569794I-31735J39992D01*
G03X6724587Y3565405I-36093J-36108D01*
G03X6648488Y3569794I-40005J-31719D01*
G03X6652846Y3493694I36093J-36108D01*
G03X6633528Y3453691I31735J-39992D01*
G03X6652862Y3413697I51054J10D01*
G03X6647291Y3408562I31719J-40005D01*
G01X6563356Y3492496D01*
G03X6524562Y3508566I-38795J-38795D01*
G01X6444602Y3508566D01*
G03X6408720Y3495205I0J-54864D01*
G01X6380712Y3523212D01*
G03X6350000Y3535934I-30712J-30712D01*
G01X6335612Y3535934D01*
G03X6300336Y3582257I-51004J-2248D01*
G03X6244603Y3565405I-15729J-48571D01*
G03X6204608Y3584740I-40005J-31719D01*
G03X6164605Y3565421I-10J-51054D01*
G03X6084608Y3565405I-39992J-31735D01*
G03X6004611Y3565421I-40005J-31719D01*
G03X5913614Y3535934I-39992J-31735D01*
G01X5523216Y3535934D01*
G03X5485633Y3656884I-37583J54636D01*
G03X5448050Y3535934I0J-66314D01*
G01X5113362Y3535934D01*
G03X5036432Y3568977I-58762J-30734D01*
G03X4988463Y3500354I18168J-63777D01*
G01X4804138Y3500354D01*
G03X4773426Y3487632I0J-43434D01*
G01X4730139Y3444346D01*
G03X4678483Y3425047I-4721J-66146D01*
G03X4659282Y3373354I46935J-46847D01*
G01X4639290Y3373354D01*
G01X4603731Y3408912D01*
G03X4573019Y3421634I-30712J-30712D01*
G01X4521529Y3421634D01*
G03X4450155Y3441013I-50110J-43434D01*
G03X4405229Y3382264I21263J-62813D01*
G01X3045714Y3382264D01*
G01X3045714Y3389881D01*
G03X3009900Y3425695I-35814J0D01*
G01X2627290Y3425695D01*
G03X2591476Y3389881I0J-35814D01*
G01X2591476Y3263900D01*
G03X2627290Y3228086I35814J0D01*
G01X2886142Y3228086D01*
G03X2927287Y3136900I60258J-27686D01*
G03X2886142Y3045714I19113J-63500D01*
G01X2650863Y3045714D01*
G03X2615049Y3009900I0J-35814D01*
G01X2615049Y2844800D01*
G03X2650863Y2808986I35814J0D01*
G01X2831826Y2808986D01*
G01X2831826Y2794667D01*
G03X2839720Y2766314I54864J0D01*
G01X2507116Y2766314D01*
G01X2207514Y3065916D01*
G01X2207514Y4503284D01*
G01X2316616Y4612386D01*
G01X4278459Y4612386D01*
G01X4550520Y4340326D01*
G03X4655050Y4340326I52265J52265D01*
G01X4697788Y4383064D01*
G03X4603660Y4496245I-52265J52265D01*
G01X4361340Y4738565D01*
G03X4309075Y4760214I-52265J-52265D01*
G01X2286000Y4760214D01*
G03X2233735Y4738565I0J-73914D01*
G01X2081335Y4586165D01*
G03X2059686Y4533900I52265J-52265D01*
G01X2059686Y3035300D01*
G03X2081335Y2983035I73914J0D01*
G01X2412356Y2652014D01*
G01X2070100Y2652014D01*
G01X1842903Y4293142D02*
G03X1975491Y4293142I66294J0D01*
G03X1842903Y4293142I-66294J0D01*
G01X2339292Y4140200D02*
G03X2471920Y4140200I66314J0D01*
G03X2339292Y4140200I-66314J0D01*
G01X2967900Y69686D02*
G03X3003714Y105500I0J35814D01*
G01X3003714Y275500D01*
G03X2967900Y311314I-35814J0D01*
G01X2797900Y311314D01*
G03X2762086Y275500I0J-35814D01*
G01X2762086Y105500D01*
G03X2797900Y69686I35814J0D01*
G01X2967900Y69686D01*
G01X2846203Y4293142D02*
G03X2978791Y4293142I66294J0D01*
G03X2846203Y4293142I-66294J0D01*
G01X3252386Y900488D02*
G03X3288200Y936302I0J35814D01*
G01X3288200Y1136302D01*
G03X3252386Y1172116I-35814J0D01*
G01X3052387Y1172116D01*
G03X3016573Y1136302I0J-35814D01*
G01X3016573Y936302D01*
G03X3052387Y900488I35814J0D01*
G01X3252386Y900488D01*
G01X3299186Y1409700D02*
G03X3431814Y1409700I66314J0D01*
G03X3299186Y1409700I-66314J0D01*
G01X3524086Y190500D02*
G03X3765714Y190500I120814J0D01*
G03X3524086Y190500I-120814J0D01*
G01X3524086Y444500D02*
G03X3765714Y444500I120814J0D01*
G03X3524086Y444500I-120814J0D01*
G01X3836803Y4293142D02*
G03X3969391Y4293142I66294J0D01*
G03X3836803Y4293142I-66294J0D01*
G01X4047105Y448711D02*
G03X4298733Y448711I125814J0D01*
G03X4047105Y448711I-125814J0D01*
G01X4086586Y1193800D02*
G03X4219214Y1193800I66314J0D01*
G03X4086586Y1193800I-66314J0D01*
G01X4619986Y3848100D02*
G03X4752614Y3848100I66314J0D01*
G03X4619986Y3848100I-66314J0D01*
G01X4937486Y4368800D02*
G03X5070114Y4368800I66314J0D01*
G03X4937486Y4368800I-66314J0D01*
G01X5140686Y4775200D02*
G03X5273314Y4775200I66314J0D01*
G03X5140686Y4775200I-66314J0D01*
G01X5282946Y3842858D02*
G03X5385054Y3842858I51054J0D01*
G03X5282946Y3842858I-51054J0D01*
G01X5381986Y4394200D02*
G03X5514614Y4394200I66314J0D01*
G03X5381986Y4394200I-66314J0D01*
G01X5381986Y1841500D02*
G03X5514614Y1841500I66314J0D01*
G03X5381986Y1841500I-66314J0D01*
G01X5534386Y1841500D02*
G03X5667014Y1841500I66314J0D01*
G03X5534386Y1841500I-66314J0D01*
G01X5556086Y1016000D02*
G03X5797714Y1016000I120814J0D01*
G03X5556086Y1016000I-120814J0D01*
G01X5556086Y1270000D02*
G03X5797714Y1270000I120814J0D01*
G03X5556086Y1270000I-120814J0D01*
G01X5702046Y3619500D02*
G03X5804154Y3619500I51054J0D01*
G03X5702046Y3619500I-51054J0D01*
G01X5810086Y1016000D02*
G03X6051714Y1016000I120814J0D01*
G03X5810086Y1016000I-120814J0D01*
G01X5810086Y1270000D02*
G03X6051714Y1270000I120814J0D01*
G03X5810086Y1270000I-120814J0D01*
G01X5879846Y3823482D02*
G03X5981954Y3823482I51054J0D01*
G03X5879846Y3823482I-51054J0D01*
G01X5915386Y1841500D02*
G03X6048014Y1841500I66314J0D01*
G03X5915386Y1841500I-66314J0D01*
G01X6064086Y1016000D02*
G03X6305714Y1016000I120814J0D01*
G03X6064086Y1016000I-120814J0D01*
G01X6064086Y1270000D02*
G03X6305714Y1270000I120814J0D01*
G03X6064086Y1270000I-120814J0D01*
G01X6074385Y5030107D02*
G03X6316012Y5030107I120814J0D01*
G03X6074385Y5030107I-120814J0D01*
G01X6270986Y1841500D02*
G03X6403614Y1841500I66314J0D01*
G03X6270986Y1841500I-66314J0D01*
G01X6318086Y1016000D02*
G03X6559714Y1016000I120814J0D01*
G03X6318086Y1016000I-120814J0D01*
G01X6318086Y1270000D02*
G03X6559714Y1270000I120814J0D01*
G03X6318086Y1270000I-120814J0D01*
G01X6328385Y5030107D02*
G03X6570012Y5030107I120814J0D01*
G03X6328385Y5030107I-120814J0D01*
G01X6436086Y1841500D02*
G03X6568714Y1841500I66314J0D01*
G03X6436086Y1841500I-66314J0D01*
G01X6457544Y2028563D02*
G03X6559652Y2028563I51054J0D01*
G03X6457544Y2028563I-51054J0D01*
G01X6464046Y3873500D02*
G03X6566154Y3873500I51054J0D01*
G03X6464046Y3873500I-51054J0D01*
G01X6633923Y3874920D02*
G03X6736031Y3874920I51054J0D01*
G03X6633923Y3874920I-51054J0D01*
G01X6924586Y3162643D02*
G03X6956321Y3253689I0J51054D01*
G03X6924586Y3344736I-31735J39992D01*
G03X6892851Y3253689I0J-51054D01*
G03X6924586Y3162643I31735J-39992D01*
G01X7048246Y2658770D02*
G03X7150354Y2658770I51054J0D01*
G03X7048246Y2658770I-51054J0D01*
G01X7147286Y1841500D02*
G03X7279914Y1841500I66314J0D01*
G03X7147286Y1841500I-66314J0D01*
G01X7189818Y2716803D02*
G03X7253521Y2681555I49182J13697D01*
G03X7381256Y2713796I61993J23545D01*
G03X7479332Y2741604I48244J16704D01*
G03X7378728Y2725139I-49832J-11104D01*
G03X7279909Y2761045I-63214J-20039D01*
G03X7277270Y2764292I-40909J-30545D01*
G03X7279307Y2862527I-12870J49405D01*
G03X7226130Y2779905I-14907J-48829D01*
G03X7189818Y2716803I12870J-49405D01*
G01X7499186Y1028700D02*
G03X7740814Y1028700I120814J0D01*
G03X7499186Y1028700I-120814J0D01*
G01X7499186Y1282700D02*
G03X7740814Y1282700I120814J0D01*
G03X7499186Y1282700I-120814J0D01*
G01X7530846Y2705100D02*
G03X7632954Y2705100I51054J0D01*
G03X7530846Y2705100I-51054J0D01*
G01X7543546Y2973692D02*
G03X7645654Y2973692I51054J0D01*
G03X7543546Y2973692I-51054J0D01*
G01X7553686Y1854200D02*
G03X7686314Y1854200I66314J0D01*
G03X7553686Y1854200I-66314J0D01*
G01X7668032Y3873500D02*
G03X7800660Y3873500I66314J0D01*
G03X7668032Y3873500I-66314J0D01*
G01X7706086Y2705100D02*
G03X7838714Y2705100I66314J0D01*
G03X7706086Y2705100I-66314J0D01*
G01X7718786Y1854200D02*
G03X7851414Y1854200I66314J0D01*
G03X7718786Y1854200I-66314J0D01*
G01X7753186Y1028700D02*
G03X7994814Y1028700I120814J0D01*
G03X7753186Y1028700I-120814J0D01*
G01X7753186Y1282700D02*
G03X7994814Y1282700I120814J0D01*
G03X7753186Y1282700I-120814J0D01*
G01X7871232Y3873500D02*
G03X8003860Y3873500I66314J0D01*
G03X7871232Y3873500I-66314J0D01*
G01X8007186Y1028700D02*
G03X8248814Y1028700I120814J0D01*
G03X8007186Y1028700I-120814J0D01*
G01X8007186Y1282700D02*
G03X8248814Y1282700I120814J0D01*
G03X8007186Y1282700I-120814J0D01*
G01X8061686Y1854200D02*
G03X8194314Y1854200I66314J0D01*
G03X8061686Y1854200I-66314J0D01*
G01X8074432Y3873500D02*
G03X8207060Y3873500I66314J0D01*
G03X8074432Y3873500I-66314J0D01*
G01X8189000Y2705100D02*
G03X8321629Y2705100I66314J0D01*
G03X8189000Y2705100I-66314J0D01*
G01X8203946Y2857500D02*
G03X8306054Y2857500I51054J0D01*
G03X8203946Y2857500I-51054J0D01*
G01X8239486Y1854200D02*
G03X8372114Y1854200I66314J0D01*
G03X8239486Y1854200I-66314J0D01*
G01X8261186Y1028700D02*
G03X8502814Y1028700I120814J0D01*
G03X8261186Y1028700I-120814J0D01*
G01X8261186Y1282700D02*
G03X8502814Y1282700I120814J0D01*
G03X8261186Y1282700I-120814J0D01*
G01X8264932Y3873500D02*
G03X8397560Y3873500I66314J0D01*
G03X8264932Y3873500I-66314J0D01*
G01X8416422Y1854200D02*
G03X8549050Y1854200I66314J0D01*
G03X8416422Y1854200I-66314J0D01*
G01X8637449Y2705100D02*
G03X8770077Y2705100I66314J0D01*
G03X8637449Y2705100I-66314J0D01*
G01X9300432Y4225075D02*
G03X9058805Y4225075I-120814J0D01*
G03X9300432Y4225075I120814J0D01*
G01X9300432Y4479075D02*
G03X9058805Y4479075I-120814J0D01*
G03X9300432Y4479075I120814J0D01*
G01X9064986Y3683000D02*
G03X9197614Y3683000I66314J0D01*
G03X9064986Y3683000I-66314J0D01*
G01X9116100Y2705100D02*
G03X9248729Y2705100I66314J0D01*
G03X9116100Y2705100I-66314J0D01*
G01X9166586Y1841500D02*
G03X9299214Y1841500I66314J0D01*
G03X9166586Y1841500I-66314J0D01*
G01X9230086Y3683000D02*
G03X9362714Y3683000I66314J0D01*
G03X9230086Y3683000I-66314J0D01*
G01X9554432Y4225075D02*
G03X9312805Y4225075I-120814J0D01*
G03X9554432Y4225075I120814J0D01*
G01X9554432Y4479075D02*
G03X9312805Y4479075I-120814J0D01*
G03X9554432Y4479075I120814J0D01*
G01X9331686Y1841500D02*
G03X9464314Y1841500I66314J0D01*
G03X9331686Y1841500I-66314J0D01*
G01X9401427Y3683000D02*
G03X9534055Y3683000I66314J0D01*
G03X9401427Y3683000I-66314J0D01*
G01X9442286Y1028700D02*
G03X9683914Y1028700I120814J0D01*
G03X9442286Y1028700I-120814J0D01*
G01X9442286Y1282700D02*
G03X9683914Y1282700I120814J0D01*
G03X9442286Y1282700I-120814J0D01*
G01X9491637Y2552700D02*
G03X9593745Y2552700I51054J0D01*
G03X9491637Y2552700I-51054J0D01*
G01X9497650Y1841500D02*
G03X9630278Y1841500I66314J0D01*
G03X9497650Y1841500I-66314J0D01*
G01X9808432Y4479075D02*
G03X9566805Y4479075I-120814J0D01*
G03X9808432Y4479075I120814J0D01*
G01X9808432Y4225075D02*
G03X9566805Y4225075I-120814J0D01*
G03X9808432Y4225075I120814J0D01*
G01X9572986Y3683000D02*
G03X9705614Y3683000I66314J0D01*
G03X9572986Y3683000I-66314J0D01*
G01X9628777Y2705100D02*
G03X9761405Y2705100I66314J0D01*
G03X9628777Y2705100I-66314J0D01*
G01X9661886Y1841500D02*
G03X9794514Y1841500I66314J0D01*
G03X9661886Y1841500I-66314J0D01*
G01X9696286Y1028700D02*
G03X9937914Y1028700I120814J0D01*
G03X9696286Y1028700I-120814J0D01*
G01X9696286Y1282700D02*
G03X9937914Y1282700I120814J0D01*
G03X9696286Y1282700I-120814J0D01*
G01X9738086Y3683000D02*
G03X9870714Y3683000I66314J0D01*
G03X9738086Y3683000I-66314J0D01*
G01X10062432Y4479075D02*
G03X9820805Y4479075I-120814J0D01*
G03X10062432Y4479075I120814J0D01*
G01X10062432Y4225075D02*
G03X9820805Y4225075I-120814J0D01*
G03X10062432Y4225075I120814J0D01*
G01X9826986Y1841500D02*
G03X9959614Y1841500I66314J0D01*
G03X9826986Y1841500I-66314J0D01*
G01X9903186Y3683000D02*
G03X10035814Y3683000I66314J0D01*
G03X9903186Y3683000I-66314J0D01*
G01X9950286Y1028700D02*
G03X10191914Y1028700I120814J0D01*
G03X9950286Y1028700I-120814J0D01*
G01X9950286Y1282700D02*
G03X10191914Y1282700I120814J0D01*
G03X9950286Y1282700I-120814J0D01*
G01X9956546Y2540000D02*
G03X10058654Y2540000I51054J0D01*
G03X9956546Y2540000I-51054J0D01*
G01X10004786Y1841500D02*
G03X10137414Y1841500I66314J0D01*
G03X10004786Y1841500I-66314J0D01*
G01X10068286Y3683000D02*
G03X10200914Y3683000I66314J0D01*
G03X10068286Y3683000I-66314J0D01*
G01X10106386Y2705100D02*
G03X10239014Y2705100I66314J0D01*
G03X10106386Y2705100I-66314J0D01*
G01X10182586Y1841500D02*
G03X10315214Y1841500I66314J0D01*
G03X10182586Y1841500I-66314J0D01*
G01X10204286Y1028700D02*
G03X10445914Y1028700I120814J0D01*
G03X10204286Y1028700I-120814J0D01*
G01X10204286Y1282700D02*
G03X10445914Y1282700I120814J0D01*
G03X10204286Y1282700I-120814J0D01*
G01X10233386Y3683000D02*
G03X10366014Y3683000I66314J0D01*
G03X10233386Y3683000I-66314J0D01*
G01X10360386Y1841500D02*
G03X10493014Y1841500I66314J0D01*
G03X10360386Y1841500I-66314J0D01*
G01X10364657Y2552700D02*
G03X10466765Y2552700I51054J0D01*
G03X10364657Y2552700I-51054J0D01*
G01X10501797Y2705100D02*
G03X10634426Y2705100I66314J0D01*
G03X10501797Y2705100I-66314J0D01*
G01X10971498Y4651314D02*
G03X11007312Y4687128I0J35814D01*
G01X11007312Y4867128D01*
G03X10971498Y4902942I-35814J0D01*
G01X10791499Y4902942D01*
G03X10755685Y4867128I0J-35814D01*
G01X10755685Y4687128D01*
G03X10791499Y4651314I35814J0D01*
G01X10971498Y4651314D01*
G01X10817606Y4230827D02*
G03X10950194Y4230827I66294J0D01*
G03X10817606Y4230827I-66294J0D01*
G01X11078355Y2112470D02*
G03X10826727Y2112470I-125814J0D01*
G03X11078355Y2112470I125814J0D01*
G01X10878688Y2658770D02*
G03X11011276Y2658770I66294J0D01*
G03X10878688Y2658770I-66294J0D01*
G01X11009685Y4777128D02*
G03X11261312Y4777128I125814J0D01*
G03X11009685Y4777128I-125814J0D01*
G01X11071606Y4230827D02*
G03X11204194Y4230827I66294J0D01*
G03X11071606Y4230827I-66294J0D01*
G01X11332355Y2112470D02*
G03X11080727Y2112470I-125814J0D01*
G03X11332355Y2112470I125814J0D01*
G01X11145388Y2658770D02*
G03X11277976Y2658770I66294J0D01*
G03X11145388Y2658770I-66294J0D01*
G01X11263685Y4777128D02*
G03X11515312Y4777128I125814J0D01*
G03X11263685Y4777128I-125814J0D01*
G01X11325606Y4230827D02*
G03X11458194Y4230827I66294J0D01*
G03X11325606Y4230827I-66294J0D01*
G01X11586355Y2112470D02*
G03X11334727Y2112470I-125814J0D01*
G03X11586355Y2112470I125814J0D01*
G01X11386688Y2658770D02*
G03X11519276Y2658770I66294J0D01*
G03X11386688Y2658770I-66294J0D01*
G01X11517685Y4777128D02*
G03X11769312Y4777128I125814J0D01*
G03X11517685Y4777128I-125814J0D01*
G01X11579606Y4230827D02*
G03X11712194Y4230827I66294J0D01*
G03X11579606Y4230827I-66294J0D01*
G01X11840355Y2112470D02*
G03X11588727Y2112470I-125814J0D01*
G03X11840355Y2112470I125814J0D01*
G01X11653388Y2658770D02*
G03X11785976Y2658770I66294J0D01*
G03X11653388Y2658770I-66294J0D01*
G01X11771685Y4777128D02*
G03X12023312Y4777128I125814J0D01*
G03X11771685Y4777128I-125814J0D01*
G01X12074112Y766270D02*
G03X11822485Y766270I-125814J0D01*
G03X12074112Y766270I125814J0D01*
G01X11833606Y4230827D02*
G03X11966194Y4230827I66294J0D01*
G03X11833606Y4230827I-66294J0D01*
G01X12094355Y2112470D02*
G03X11842727Y2112470I-125814J0D01*
G03X12094355Y2112470I125814J0D01*
G01X11879603Y1307513D02*
G03X12012191Y1307513I66294J0D01*
G03X11879603Y1307513I-66294J0D01*
G01X11907388Y2658770D02*
G03X12039976Y2658770I66294J0D01*
G03X11907388Y2658770I-66294J0D01*
G01X11989986Y3543300D02*
G03X12241614Y3543300I125814J0D01*
G03X11989986Y3543300I-125814J0D01*
G01X12025685Y4777128D02*
G03X12277312Y4777128I125814J0D01*
G03X12025685Y4777128I-125814J0D01*
G01X12328112Y766270D02*
G03X12076485Y766270I-125814J0D01*
G03X12328112Y766270I125814J0D01*
G01X12087606Y4230827D02*
G03X12220194Y4230827I66294J0D01*
G03X12087606Y4230827I-66294J0D01*
G01X12348355Y2112470D02*
G03X12096727Y2112470I-125814J0D01*
G03X12348355Y2112470I125814J0D01*
G01X12133603Y1307513D02*
G03X12266191Y1307513I66294J0D01*
G03X12133603Y1307513I-66294J0D01*
G01X12148688Y2658770D02*
G03X12281276Y2658770I66294J0D01*
G03X12148688Y2658770I-66294J0D01*
G01X12243986Y3543300D02*
G03X12495614Y3543300I125814J0D01*
G03X12243986Y3543300I-125814J0D01*
G01X12279685Y4777128D02*
G03X12531312Y4777128I125814J0D01*
G03X12279685Y4777128I-125814J0D01*
G01X12582112Y766270D02*
G03X12330485Y766270I-125814J0D01*
G03X12582112Y766270I125814J0D01*
G01X12341606Y4230827D02*
G03X12474194Y4230827I66294J0D01*
G03X12341606Y4230827I-66294J0D01*
G01X12602355Y2112470D02*
G03X12350727Y2112470I-125814J0D01*
G03X12602355Y2112470I125814J0D01*
G01X12387603Y1307513D02*
G03X12520191Y1307513I66294J0D01*
G03X12387603Y1307513I-66294J0D01*
G01X12415388Y2658770D02*
G03X12547976Y2658770I66294J0D01*
G03X12415388Y2658770I-66294J0D01*
G01X12497986Y3543300D02*
G03X12749614Y3543300I125814J0D01*
G03X12497986Y3543300I-125814J0D01*
G01X12533685Y4777128D02*
G03X12785312Y4777128I125814J0D01*
G03X12533685Y4777128I-125814J0D01*
G01X12836112Y766270D02*
G03X12584485Y766270I-125814J0D01*
G03X12836112Y766270I125814J0D01*
G01X12595606Y4230827D02*
G03X12728194Y4230827I66294J0D01*
G03X12595606Y4230827I-66294J0D01*
G01X12856355Y2112470D02*
G03X12604727Y2112470I-125814J0D01*
G03X12856355Y2112470I125814J0D01*
G01X12641603Y1307513D02*
G03X12774191Y1307513I66294J0D01*
G03X12641603Y1307513I-66294J0D01*
G01X12656688Y2658770D02*
G03X12789276Y2658770I66294J0D01*
G03X12656688Y2658770I-66294J0D01*
G01X12751986Y3543300D02*
G03X13003614Y3543300I125814J0D01*
G03X12751986Y3543300I-125814J0D01*
G01X12787685Y4777128D02*
G03X13039312Y4777128I125814J0D01*
G03X12787685Y4777128I-125814J0D01*
G01X13090112Y766270D02*
G03X12838485Y766270I-125814J0D01*
G03X13090112Y766270I125814J0D01*
G01X12849606Y4230827D02*
G03X12982194Y4230827I66294J0D01*
G03X12849606Y4230827I-66294J0D01*
G01X13110355Y2112470D02*
G03X12858727Y2112470I-125814J0D01*
G03X13110355Y2112470I125814J0D01*
G01X12895603Y1307513D02*
G03X13028191Y1307513I66294J0D01*
G03X12895603Y1307513I-66294J0D01*
G01X12923388Y2658770D02*
G03X13055976Y2658770I66294J0D01*
G03X12923388Y2658770I-66294J0D01*
G01X13005986Y3543300D02*
G03X13257614Y3543300I125814J0D01*
G03X13005986Y3543300I-125814J0D01*
G01X13041685Y4777128D02*
G03X13293312Y4777128I125814J0D01*
G03X13041685Y4777128I-125814J0D01*
G01X13344112Y766270D02*
G03X13092485Y766270I-125814J0D01*
G03X13344112Y766270I125814J0D01*
G01X13109785Y4231891D02*
G03X13242373Y4231891I66294J0D01*
G03X13109785Y4231891I-66294J0D01*
G01X13149603Y1307513D02*
G03X13282191Y1307513I66294J0D01*
G03X13149603Y1307513I-66294J0D01*
G01X13164688Y2658770D02*
G03X13297276Y2658770I66294J0D01*
G03X13164688Y2658770I-66294J0D01*
G01X13259986Y3543300D02*
G03X13511614Y3543300I125814J0D01*
G03X13259986Y3543300I-125814J0D01*
G01X13598112Y766270D02*
G03X13346485Y766270I-125814J0D01*
G03X13598112Y766270I125814J0D01*
G01X13403603Y1307513D02*
G03X13536191Y1307513I66294J0D01*
G03X13403603Y1307513I-66294J0D01*
G01X13513986Y3543300D02*
G03X13765614Y3543300I125814J0D01*
G03X13513986Y3543300I-125814J0D01*
G01X13573506Y2998927D02*
G03X13706094Y2998927I66294J0D01*
G03X13573506Y2998927I-66294J0D01*
G01X13852112Y766270D02*
G03X13600485Y766270I-125814J0D01*
G03X13852112Y766270I125814J0D01*
G01X13657603Y1307513D02*
G03X13790191Y1307513I66294J0D01*
G03X13657603Y1307513I-66294J0D01*
G01X13767986Y3543300D02*
G03X14019614Y3543300I125814J0D01*
G03X13767986Y3543300I-125814J0D01*
G01X13827506Y2998927D02*
G03X13960094Y2998927I66294J0D01*
G03X13827506Y2998927I-66294J0D01*
G01X14106112Y766270D02*
G03X13854485Y766270I-125814J0D01*
G03X14106112Y766270I125814J0D01*
G01X13911603Y1307513D02*
G03X14044191Y1307513I66294J0D01*
G03X13911603Y1307513I-66294J0D01*
G01X14021986Y3543300D02*
G03X14273614Y3543300I125814J0D01*
G03X14021986Y3543300I-125814J0D01*
G01X14081506Y2998927D02*
G03X14214094Y2998927I66294J0D01*
G03X14081506Y2998927I-66294J0D01*
G01X14144299Y892084D02*
G03X14108485Y856270I0J-35814D01*
G01X14108485Y676270D01*
G03X14144299Y640456I35814J0D01*
G01X14324298Y640456D01*
G03X14360112Y676270I0J35814D01*
G01X14360112Y856270D01*
G03X14324298Y892084I-35814J0D01*
G01X14144299Y892084D01*
G01X14165603Y1307513D02*
G03X14298191Y1307513I66294J0D01*
G03X14165603Y1307513I-66294J0D01*
G01X2418516Y2207062D02*
G01X2605786Y2019792D01*
G01X2605786Y1993900D01*
G03X2641600Y1958086I35814J0D01*
G01X2874950Y1958086D01*
G03X2878744Y1958288I0J35814D01*
G01X2913816Y1923216D01*
G03X2921000Y1920240I7184J7184D01*
G01X3361522Y1920240D01*
G01X3361522Y1893090D01*
G01X3118275Y1649843D01*
G01X2507282Y1649843D01*
G01X2243885Y1913239D01*
G01X2243885Y2377440D01*
G01X2415540Y2377440D01*
G01X2415540Y2214246D01*
G03X2418516Y2207062I10160J0D01*
G01X2637450Y3379721D02*
G01X2999740Y3379721D01*
G01X2999740Y3274060D01*
G01X2637450Y3274060D01*
G01X2637450Y3379721D01*
G01X2651760Y2720340D02*
G01X2759259Y2720340D01*
G03X2780551Y2638657I60141J-27940D01*
G03X2864790Y2644054I38849J53743D01*
G01X2864790Y2232746D01*
G03X2753086Y2184400I-45390J-48346D01*
G03X2864790Y2136054I66314J0D01*
G01X2864790Y2004060D01*
G01X2651760Y2004060D01*
G01X2651760Y2720340D01*
G01X2898140Y2999740D02*
G01X2898140Y2864881D01*
G03X2890426Y2854960I48260J-45481D01*
G01X2661023Y2854960D01*
G01X2661023Y2999740D01*
G01X2898140Y2999740D01*
G01X2910764Y1993900D02*
G01X2910764Y2346849D01*
G01X3142828Y2346849D01*
G03X3195300Y2239986I52472J-40549D01*
G03X3247772Y2346849I0J66314D01*
G01X3361522Y2346849D01*
G01X3361522Y1896364D01*
G01X2893060Y1896364D01*
G01X2893060Y1963002D01*
G03X2910764Y1993900I-18110J30898D01*
G01X2980398Y2635464D02*
G03X3012537Y2697246I-33998J56936D01*
G01X3388263Y2697246D01*
G03X3445181Y2626730I66137J-4846D01*
G03X3519315Y2678849I9219J65670D01*
G01X5760167Y2678849D01*
G03X5772863Y2613711I44432J-25146D01*
G03X5764606Y2605454I31735J-39992D01*
G03X5688506Y2609812I-39992J-31735D01*
G03X5692895Y2533714I36108J-36093D01*
G03X5673560Y2493709I31719J-40005D01*
G03X5692895Y2453704I51054J0D01*
G03X5688506Y2377605I31719J-40005D01*
G03X5764606Y2381963I36108J36093D01*
G03X5772863Y2373706I39992J31735D01*
G03X5768505Y2297606I31735J-39992D01*
G03X5844604Y2301995I36093J36108D01*
G03X5924614Y2301995I40005J31719D01*
G03X6004611Y2301979I40005J31719D01*
G03X6009733Y2296423I39992J31735D01*
G01X5927174Y2213864D01*
G01X4502106Y2213864D01*
G01X4234285Y2481685D01*
G03X4191000Y2499614I-43285J-43285D01*
G01X3573179Y2499614D01*
G01X3525048Y2547745D01*
G03X3481763Y2565674I-43285J-43285D01*
G01X2910764Y2565674D01*
G01X2910764Y2636475D01*
G03X2980398Y2635464I35636J55925D01*
G01X5488254Y2299673D02*
G03X5584415Y2294772I48946J14521D01*
G03X5662346Y2351321I28985J42028D01*
G03X5566185Y2356222I-48946J-14521D01*
G03X5488254Y2299673I-28985J-42028D01*
G01X4434211Y3253375D02*
G03X4473006Y3237306I38795J38795D01*
G01X5366059Y3237306D01*
G03X5404853Y3253375I0J54864D01*
G01X5424014Y3272536D01*
G01X5828165Y3272536D01*
G01X5849725Y3250975D01*
G03X5848508Y3177596I34883J-37278D01*
G03X5921887Y3178814I36101J36101D01*
G01X5989739Y3110961D01*
G01X5989739Y2973692D01*
G03X6005808Y2934898I54864J0D01*
G01X6069749Y2870957D01*
G01X6069749Y2835007D01*
G03X6063962Y2835313I-5787J-54558D01*
G01X6025244Y2835313D01*
G03X5986450Y2819244I0J-54864D01*
G01X5955783Y2788577D01*
G01X5849045Y2788577D01*
G03X5804599Y2864752I-44446J25121D01*
G03X5760152Y2788577I0J-51054D01*
G01X5166614Y2788577D01*
G01X5166614Y2793591D01*
G03X5118100Y2860548I-48514J15903D01*
G03X5069586Y2793591I0J-51054D01*
G01X5069586Y2788577D01*
G01X3520255Y2788577D01*
G01X3517927Y2790905D01*
G03X3479133Y2806974I-38795J-38795D01*
G01X3392539Y2806974D01*
G03X3327400Y2885714I-65139J12426D01*
G03X3262261Y2806974I0J-66314D01*
G01X3138539Y2806974D01*
G03X3089191Y2883807I-65139J12426D01*
G03X3009900Y2838513I-15791J-64407D01*
G03X2985037Y2873295I-63500J-19113D01*
G03X2944114Y2885675I-38637J-53895D01*
G01X2944114Y3007125D01*
G03X3011831Y3062611I2286J66275D01*
G03X2965513Y3136900I-65431J10789D01*
G03X3009900Y3181287I-19113J63500D01*
G03X3133880Y3173203I63500J19113D01*
G03X3045560Y3260587I-60480J27197D01*
G03X3045714Y3263900I-35660J3313D01*
G01X3045714Y3272536D01*
G01X4415050Y3272536D01*
G01X4434211Y3253375D01*
G01X3261086Y3200400D02*
G03X3393714Y3200400I66314J0D01*
G03X3261086Y3200400I-66314J0D01*
G01X5359146Y2933700D02*
G03X5461254Y2933700I51054J0D01*
G03X5359146Y2933700I-51054J0D01*
G01X5402145Y3165094D02*
G03X5504253Y3165094I51054J0D01*
G03X5402145Y3165094I-51054J0D01*
G01X5448046Y2997200D02*
G03X5550154Y2997200I51054J0D01*
G03X5448046Y2997200I-51054J0D01*
G01X5844604Y2461989D02*
G03X5884609Y2442655I40005J31719D01*
G03X5924614Y2461989I0J51054D01*
G03X5932899Y2453704I40005J31719D01*
G03X5913565Y2413709I31719J-40005D01*
G03X5932883Y2373706I51054J-10D01*
G03X5924614Y2365433I31735J-39992D01*
G03X5844604Y2365433I-40005J-31719D01*
G03X5836334Y2373706I-40005J-31719D01*
G03X5855652Y2413709I-31735J39992D01*
G03X5836318Y2453704I-51054J-10D01*
G03X5844604Y2461989I-31719J40005D01*
G01X6036064Y2603368D02*
G03X6084608Y2621984I8539J50335D01*
G03X6092878Y2613711I40005J31719D01*
G03X6073559Y2573708I31735J-39992D01*
G03X6092894Y2533714I51054J10D01*
G03X6084608Y2525428I31719J-40005D01*
G03X6004611Y2525444I-40005J-31719D01*
G03X5996338Y2533714I-39992J-31735D01*
G03X6012288Y2555439I-31719J40005D01*
G03X6014953Y2582258I-47669J18280D01*
G01X6036064Y2603368D01*
G01X6083398Y3172482D02*
G01X6079473Y3176406D01*
G03X6084608Y3181978I-34870J37291D01*
G03X6141443Y3165497I40005J31719D01*
G01X6156404Y3150535D01*
G03X6172862Y3093695I48194J-16849D01*
G03X6168497Y3089803I31735J-39992D01*
G03X6164605Y3085438I36101J-36101D01*
G03X6132615Y3104125I-39992J-31735D01*
G03X6116672Y3139208I-54738J-3712D01*
G01X6083398Y3172482D01*
G01X6164605Y3421966D02*
G03X6172878Y3413697I39992J31735D01*
G03X6153681Y3369950I31719J-40005D01*
G03X6139237Y3372422I-14444J-40962D01*
G01X6123343Y3372422D01*
G01X6123343Y3388316D01*
G03X6120862Y3402785I-43434J0D01*
G03X6164605Y3421966I3751J50916D01*
G01X6156332Y2453704D02*
G03X6175667Y2493709I-31719J40005D01*
G03X6156332Y2533714I-51054J0D01*
G03X6164605Y2541983I-31719J40005D01*
G03X6244603Y2541999I39992J31735D01*
G03X6252888Y2533714I40005J31719D01*
G03X6244640Y2461942I31719J-40005D01*
G03X6218513Y2468563I-26127J-48243D01*
G01X6204598Y2468563D01*
G03X6165803Y2452493I0J-54864D01*
G01X6161891Y2448582D01*
G03X6156332Y2453704I-37278J-34883D01*
G01X6436921Y3344154D02*
G03X6393563Y3292437I7682J-50473D01*
G01X6335647Y3292437D01*
G03X6316327Y3333687I-51039J1245D01*
G03X6335662Y3373692I-31719J40005D01*
G03X6316327Y3413697I-51054J0D01*
G03X6335077Y3445998I-31719J40005D01*
G01X6436921Y3344154D01*
G01X6556322Y2373706D02*
G03X6574698Y2403931I-31735J39992D01*
G03X6569019Y2438845I-50111J9767D01*
G01X6604597Y2438845D01*
G03X6647112Y2459031I0J54864D01*
G03X6652862Y2453704I37470J34678D01*
G03X6648481Y2377598I31719J-40005D01*
G03X6724587Y2381979I36101J36101D01*
G03X6732856Y2373706I40005J31719D01*
G03X6714189Y2341842I31735J-39992D01*
G01X6574990Y2341842D01*
G03X6556322Y2373706I-50403J-8128D01*
G01X6802075Y2619040D02*
G03X6883396Y2614908I42527J34663D01*
G01X6887308Y2618820D01*
G03X6892851Y2613711I37278J34883D01*
G03X6873532Y2573708I31735J-39992D01*
G03X6892867Y2533714I51054J10D01*
G03X6884594Y2525444I31719J-40005D01*
G03X6804597Y2525428I-39992J-31735D01*
G03X6796311Y2533714I-40005J-31719D01*
G03X6815645Y2573708I-31719J40005D01*
G03X6796327Y2613711I-51054J10D01*
G03X6802075Y2619040I-31735J39992D01*
G01X6843332Y2976990D02*
G01X6843332Y2977520D01*
G01X6843731Y2977168D01*
G01X6843332Y2976990D01*
G04 Copper End*

G04 Pad Start*
G54D11*
G01X4653354Y448711D03*
G54D12*
G01X7337547Y4957755D03*
G01X7537547Y4957755D03*
G01X7737546Y4957755D03*
G01X7937546Y4957755D03*
G01X8137545Y4957755D03*
G01X8337545Y4957755D03*
G54D13*
G01X8537545Y4957755D03*
G54D12*
G01X7337547Y4757755D03*
G01X7537547Y4757755D03*
G01X7737546Y4757755D03*
G01X7937546Y4757755D03*
G01X8137545Y4757755D03*
G01X8337545Y4757755D03*
G01X8537545Y4757755D03*
G54D14*
G01X1392212Y753199D03*
G01X792188Y753199D03*
G54D15*
G01X1142200Y288201D03*
G54D16*
G01X14147800Y3543300D03*
G01X13893800Y3543300D03*
G01X13639800Y3543300D03*
G01X13385800Y3543300D03*
G01X13131800Y3543300D03*
G01X12877800Y3543300D03*
G01X12623800Y3543300D03*
G01X12369800Y3543300D03*
G01X12115800Y3543300D03*
G01X11861800Y3543300D03*
G01X11607800Y3543300D03*
G01X11353800Y3543300D03*
G01X11099800Y3543300D03*
G54D17*
G01X10845800Y3543300D03*
G54D16*
G01X10932298Y766270D03*
G01X11186298Y766270D03*
G01X11440298Y766270D03*
G01X11694298Y766270D03*
G01X11948298Y766270D03*
G01X12202298Y766270D03*
G01X12456298Y766270D03*
G01X12710298Y766270D03*
G01X12964298Y766270D03*
G01X13218298Y766270D03*
G01X13472298Y766270D03*
G01X13726298Y766270D03*
G01X13980298Y766270D03*
G54D18*
G01X14234298Y766270D03*
G54D16*
G01X10952541Y2112470D03*
G01X11206541Y2112470D03*
G01X11460541Y2112470D03*
G01X11714541Y2112470D03*
G01X11968541Y2112470D03*
G01X12222541Y2112470D03*
G01X12476541Y2112470D03*
G01X12730541Y2112470D03*
G01X12984541Y2112470D03*
G01X13238541Y2112470D03*
G01X13492541Y2112470D03*
G01X13746541Y2112470D03*
G01X14000541Y2112470D03*
G54D18*
G01X14254541Y2112470D03*
G54D16*
G01X14183498Y4777128D03*
G01X13929498Y4777128D03*
G01X13675498Y4777128D03*
G01X13421498Y4777128D03*
G01X13167498Y4777128D03*
G01X12913498Y4777128D03*
G01X12659498Y4777128D03*
G01X12405498Y4777128D03*
G01X12151498Y4777128D03*
G01X11897498Y4777128D03*
G01X11643498Y4777128D03*
G01X11389498Y4777128D03*
G01X11135498Y4777128D03*
G54D17*
G01X10881498Y4777128D03*
G54D20*
G01X5941198Y5030107D03*
G54D21*
G01X6195198Y5030107D03*
G01X6449198Y5030107D03*
G54D22*
G01X2235200Y749300D03*
G54D23*
G01X2235200Y495300D03*
G54D24*
G01X3152386Y1036302D03*
G54D23*
G01X3406386Y1036302D03*
G54D20*
G01X2882900Y190500D03*
G54D21*
G01X2882900Y444500D03*
G01X3136900Y190500D03*
G01X3136900Y444500D03*
G01X3390900Y190500D03*
G01X3390900Y444500D03*
G01X3644900Y190500D03*
G01X3644900Y444500D03*
G54D16*
G01X1619975Y2797147D03*
G01X1628223Y3204459D03*
G01X4172919Y448711D03*
G54D21*
G01X6438900Y1270000D03*
G01X6438900Y1016000D03*
G01X6184900Y1270000D03*
G01X6184900Y1016000D03*
G01X5930900Y1270000D03*
G01X5930900Y1016000D03*
G01X5676900Y1270000D03*
G01X5676900Y1016000D03*
G01X5422900Y1270000D03*
G01X5422900Y1016000D03*
G01X5168900Y1270000D03*
G54D20*
G01X5168900Y1016000D03*
G54D21*
G01X8382000Y1282700D03*
G01X8382000Y1028700D03*
G01X8128000Y1282700D03*
G01X8128000Y1028700D03*
G01X7874000Y1282700D03*
G01X7874000Y1028700D03*
G01X7620000Y1282700D03*
G01X7620000Y1028700D03*
G01X7366000Y1282700D03*
G01X7366000Y1028700D03*
G01X7112000Y1282700D03*
G54D20*
G01X7112000Y1028700D03*
G54D21*
G01X10325100Y1282700D03*
G01X10325100Y1028700D03*
G01X10071100Y1282700D03*
G01X10071100Y1028700D03*
G01X9817100Y1282700D03*
G01X9817100Y1028700D03*
G01X9563100Y1282700D03*
G01X9563100Y1028700D03*
G01X9309100Y1282700D03*
G01X9309100Y1028700D03*
G01X9055100Y1282700D03*
G54D20*
G01X9055100Y1028700D03*
G54D21*
G01X9179618Y4225075D03*
G01X9179618Y4479075D03*
G01X9433618Y4225075D03*
G01X9433618Y4479075D03*
G01X9687618Y4225075D03*
G01X9687618Y4479075D03*
G01X9941618Y4225075D03*
G01X9941618Y4479075D03*
G01X10195618Y4225075D03*
G01X10195618Y4479075D03*
G01X10449618Y4225075D03*
G54D25*
G01X10449618Y4479075D03*
G54D26*
G01X281584Y2889240D03*
G54D27*
G01X699567Y2889240D03*
G01X699567Y3754262D03*
G54D26*
G01X281584Y3754262D03*
G04 Pad End*

G04 Via Start*
G54D28*
G01X2946400Y3327400D03*
G01X2819400Y3327400D03*
G01X2692400Y3327400D03*
G01X3073400Y2819400D03*
G01X2692400Y2946400D03*
G01X2692400Y2692400D03*
G01X3073400Y3200400D03*
G01X2819400Y2946400D03*
G01X2819400Y2692400D03*
G01X2946400Y3200400D03*
G01X2946400Y3073400D03*
G01X2946400Y2819400D03*
G01X2946400Y2692400D03*
G01X3195300Y2306300D03*
G01X3073400Y2311400D03*
G01X2692400Y2438400D03*
G01X2692400Y2184400D03*
G01X2692400Y2057400D03*
G01X2819400Y2438400D03*
G01X2819400Y2184400D03*
G01X2819400Y2057400D03*
G01X2946400Y2311400D03*
G01X2946400Y1930400D03*
G01X3073400Y1930400D03*
G01X3327400Y3200400D03*
G01X3327400Y2819400D03*
G01X3454400Y2692400D03*
G01X3327400Y2311400D03*
G01X3327400Y1930400D03*
G01X3454400Y2438400D03*
G01X3332500Y2433300D03*
G01X3454400Y2057400D03*
G01X3581400Y1930400D03*
G01X3581400Y2057400D03*
G01X3581400Y2311400D03*
G01X2405606Y4140200D03*
G01X2298700Y2324100D03*
G01X2298700Y2247900D03*
G01X2298700Y2171700D03*
G01X2298700Y2095500D03*
G01X2298700Y2019300D03*
G01X1778000Y3441700D03*
G01X1689100Y3759200D03*
G01X3365500Y1409700D03*
G01X4152900Y1193800D03*
G54D29*
G01X6044603Y3453702D03*
G01X6124613Y3453702D03*
G01X6204598Y3453702D03*
G01X6284608Y3453702D03*
G01X6284608Y3373692D03*
G01X6204598Y3373692D03*
G01X6044603Y3373692D03*
G01X5964619Y3373692D03*
G01X5964619Y3533686D03*
G01X6044603Y3533686D03*
G01X6124613Y3533686D03*
G01X6204598Y3533686D03*
G01X6284608Y3533686D03*
G01X6284608Y3293682D03*
G01X6204598Y3293682D03*
G01X6124613Y3293682D03*
G01X6044603Y3293682D03*
G01X6284608Y2973692D03*
G01X5884609Y3213697D03*
G01X6044603Y3213697D03*
G01X6124613Y3213697D03*
G01X6124613Y3053702D03*
G01X6204598Y3213697D03*
G01X6204598Y3053702D03*
G01X6284608Y3213697D03*
G01X6284608Y3053702D03*
G01X6204598Y3133687D03*
G01X6044603Y3133687D03*
G01X6044603Y2973692D03*
G01X6124613Y2973692D03*
G01X6204598Y2973692D03*
G01X5804599Y2333714D03*
G01X5884609Y2333714D03*
G01X5724614Y2493709D03*
G01X5964619Y2333714D03*
G01X5804599Y2493709D03*
G01X6044603Y2333714D03*
G01X5884609Y2493709D03*
G01X5804599Y2653703D03*
G01X5964619Y2493709D03*
G01X5884609Y2653703D03*
G01X6044603Y2493709D03*
G01X5964619Y2653703D03*
G01X6124613Y2493709D03*
G01X5804599Y2813698D03*
G01X6044603Y2653703D03*
G01X6124613Y2653703D03*
G01X6284608Y2493709D03*
G01X6204598Y2653703D03*
G01X6284608Y2653703D03*
G01X6124613Y2813698D03*
G01X6284608Y2813698D03*
G01X5724614Y2413699D03*
G01X5804599Y2413699D03*
G01X5724614Y2573719D03*
G01X5964619Y2413699D03*
G01X5804599Y2573719D03*
G01X6044603Y2413699D03*
G01X5884609Y2573719D03*
G01X6124613Y2413699D03*
G01X5964619Y2573719D03*
G01X6204598Y2413699D03*
G01X6284608Y2413699D03*
G01X6124613Y2573719D03*
G01X6044603Y2733713D03*
G01X6204598Y2573719D03*
G01X6284608Y2573719D03*
G01X6204598Y2733713D03*
G01X6764592Y3373692D03*
G01X6684582Y3373692D03*
G01X6524587Y3373692D03*
G01X6444602Y3453702D03*
G01X6684582Y3453702D03*
G01X6764592Y3453702D03*
G01X6844602Y3453702D03*
G01X6684582Y3533686D03*
G01X6764592Y3533686D03*
G01X6924586Y3293682D03*
G01X6684582Y3293682D03*
G01X6444602Y3293682D03*
G01X6444602Y3133687D03*
G01X6604597Y2973692D03*
G01X6684582Y2973692D03*
G01X6764592Y2973692D03*
G01X6924586Y2973692D03*
G01X6524587Y3053702D03*
G01X6604597Y3213697D03*
G01X6684582Y3053702D03*
G01X6764592Y3053702D03*
G01X6844602Y3053702D03*
G01X6924586Y3213697D03*
G01X6684582Y2573719D03*
G01X6844602Y2413699D03*
G01X6764592Y2573719D03*
G01X6924586Y2413699D03*
G01X6604597Y2733713D03*
G01X6684582Y2733713D03*
G01X6924586Y2573719D03*
G01X6764592Y2733713D03*
G01X6444602Y2333714D03*
G01X6524587Y2333714D03*
G01X6764592Y2333714D03*
G01X6444602Y2653703D03*
G01X6604597Y2493709D03*
G01X6844602Y2333714D03*
G01X6524587Y2653703D03*
G01X6684582Y2493709D03*
G01X6604597Y2653703D03*
G01X6764592Y2493709D03*
G01X6684582Y2653703D03*
G01X6844602Y2493709D03*
G01X6524587Y2813698D03*
G01X6764592Y2653703D03*
G01X6924586Y2493709D03*
G01X6844602Y2653703D03*
G01X6684582Y2813698D03*
G01X6924586Y2653703D03*
G01X6764592Y2813698D03*
G01X6844602Y2813698D03*
G01X6359525Y2413699D03*
G01X6524587Y2413699D03*
G01X6684582Y2413699D03*
G01X6524587Y2573719D03*
G01X6764592Y2413699D03*
G01X6444602Y2733713D03*
G01X6604597Y2573719D03*
G54D28*
G01X5448300Y1841500D03*
G01X5600700Y1841500D03*
G01X5981700Y1841500D03*
G01X6337300Y1841500D03*
G01X6502400Y1841500D03*
G01X4471419Y3378200D03*
G01X4725419Y3378200D03*
G01X4978400Y3378200D03*
G01X5207000Y4775200D03*
G01X5003800Y4368800D03*
G01X5448300Y4394200D03*
G01X5485633Y3590570D03*
G01X5054600Y3505200D03*
G01X7213600Y1841500D03*
G01X7620000Y1854200D03*
G01X7785100Y1854200D03*
G01X8128000Y1854200D03*
G01X8482736Y1854200D03*
G01X8305800Y1854200D03*
G01X7734346Y3873500D03*
G01X7937546Y3873500D03*
G01X8140746Y3873500D03*
G01X8331246Y3873500D03*
G01X9131300Y3683000D03*
G01X9296400Y3683000D03*
G01X9467741Y3683000D03*
G01X9639300Y3683000D03*
G01X9804400Y3683000D03*
G01X9969500Y3683000D03*
G01X10134600Y3683000D03*
G01X10299700Y3683000D03*
G01X9232900Y1841500D03*
G01X9398000Y1841500D03*
G01X9563964Y1841500D03*
G01X9728200Y1841500D03*
G01X9893300Y1841500D03*
G01X10071100Y1841500D03*
G01X10248900Y1841500D03*
G01X10426700Y1841500D03*
G01X7315514Y2705100D03*
G01X7772400Y2705100D03*
G01X8255314Y2705100D03*
G01X8703763Y2705100D03*
G01X9182414Y2705100D03*
G01X9695091Y2705100D03*
G01X10172700Y2705100D03*
G01X10568111Y2705100D03*
G54D30*
G01X14231897Y1307513D03*
G01X13977897Y1307513D03*
G01X12707897Y1307513D03*
G01X12961897Y1307513D03*
G01X13215897Y1307513D03*
G01X13469897Y1307513D03*
G01X13723897Y1307513D03*
G01X11945897Y1307513D03*
G01X12199897Y1307513D03*
G01X12453897Y1307513D03*
G01X12481682Y2658770D03*
G01X12214982Y2658770D03*
G01X11973682Y2658770D03*
G01X11719682Y2658770D03*
G01X11452982Y2658770D03*
G01X11211682Y2658770D03*
G01X10944982Y2658770D03*
G01X13230982Y2658770D03*
G01X12989682Y2658770D03*
G01X12722982Y2658770D03*
G01X12369800Y2998927D03*
G01X12623800Y2998927D03*
G01X12877800Y2998927D03*
G01X13131800Y2998927D03*
G01X13385800Y2998927D03*
G01X13639800Y2998927D03*
G01X13893800Y2998927D03*
G01X14147800Y2998927D03*
G01X11860936Y2998064D03*
G01X12116664Y2999791D03*
G01X13176079Y4231891D03*
G01X12661900Y4230827D03*
G01X12915900Y4230827D03*
G01X11391900Y4230827D03*
G01X11645900Y4230827D03*
G01X11899900Y4230827D03*
G01X12153900Y4230827D03*
G01X12407900Y4230827D03*
G01X10883900Y4230827D03*
G01X11137900Y4230827D03*
G01X918597Y4280442D03*
G01X1909197Y4293142D03*
G01X2912497Y4293142D03*
G01X3903097Y4293142D03*
G54D28*
G01X4686300Y3848100D03*
G54D29*
G01X7099300Y2658770D03*
G01X7264400Y2813698D03*
G01X8255000Y2857500D03*
G01X7429500Y2730500D03*
G01X7239000Y2730500D03*
G01X7581900Y2705100D03*
G01X7594600Y2973692D03*
G01X7073900Y2451100D03*
G01X5753100Y3619500D03*
G01X5930900Y3823482D03*
G01X6515100Y3873500D03*
G01X5613400Y2336800D03*
G01X5346700Y3338906D03*
G01X5334000Y3842858D03*
G01X5499100Y2997200D03*
G01X5410200Y2933700D03*
G01X6508598Y2028563D03*
G01X5537200Y2314194D03*
G01X6684977Y3874920D03*
G01X10415711Y2552700D03*
G01X10007600Y2540000D03*
G01X9542691Y2552700D03*
G01X7099300Y2372106D03*
G01X6527800Y3136900D03*
G01X6845300Y3289300D03*
G01X6362700Y3289300D03*
G01X6121400Y3378200D03*
G01X6121400Y3136900D03*
G01X6210300Y2501900D03*
G01X6604597Y2419359D03*
G01X6845300Y2578100D03*
G01X5118100Y2809494D03*
G01X4470400Y2159000D03*
G01X5453199Y3165094D03*
G01X4645523Y4435329D03*
G01X4602785Y4392591D03*
G01X5739953Y3531120D03*
G01X3568700Y2679700D03*
G01X3632200Y2676143D03*
G01X3213100Y2565757D03*
G01X7428309Y2377694D03*
G01X3073400Y3073400D03*
G01X5880100Y2413000D03*
G01X5295900Y2336800D03*
G01X6045200Y2578100D03*
G01X6844602Y2971811D03*
G04 Via End*

G04 Track Start*
G54D31*
G01X3497530Y2733713D02*
G01X3479133Y2752110D01*
G01X5978508Y2733713D02*
G01X6025244Y2780449D01*
G01X6063962Y2780449D01*
G01X6091339Y2753072D01*
G01X6157862Y2753072D01*
G01X6185239Y2780449D01*
G01X6223956Y2780449D01*
G01X6251334Y2753072D01*
G01X6397866Y2753072D01*
G01X6425244Y2780449D01*
G01X6463961Y2780449D01*
G01X6510697Y2733713D01*
G01X6604597Y2733713D01*
G01X6604597Y2973692D02*
G01X6604597Y2733713D01*
G54D32*
G01X5118100Y2809494D02*
G01X5118100Y2736488D01*
G01X5120874Y2733713D01*
G54D31*
G01X5120874Y2733713D02*
G01X3497530Y2733713D01*
G01X5120874Y2733713D02*
G01X5978508Y2733713D01*
G01X2886690Y2794667D02*
G01X2886690Y2879110D01*
G01X2819400Y2946400D01*
G01X2929247Y2752110D02*
G01X2886690Y2794667D01*
G01X3479133Y2752110D02*
G01X2929247Y2752110D01*
G01X5850890Y3327400D02*
G01X6044603Y3133687D01*
G01X2946400Y3327400D02*
G01X4437776Y3327400D01*
G01X5366059Y3292170D02*
G01X5401288Y3327400D01*
G01X5850890Y3327400D01*
G01X4437776Y3327400D02*
G01X4473006Y3292170D01*
G01X5366059Y3292170D01*
G01X6284608Y2813698D02*
G01X6258958Y2813698D01*
G01X6243946Y2828709D01*
G01X6165249Y2828709D01*
G01X6150238Y2813698D01*
G01X6124613Y2813698D01*
G01X6044603Y3133687D02*
G01X6044603Y2973692D01*
G01X6124613Y2893682D01*
G01X6124613Y2813698D01*
G01X6105254Y2926956D02*
G01X6077877Y2954334D01*
G01X6303966Y2926956D02*
G01X6105254Y2926956D01*
G01X6331344Y2954334D02*
G01X6303966Y2926956D01*
G01X6331344Y3073061D02*
G01X6331344Y2954334D01*
G01X6077877Y3100413D02*
G01X6044603Y3133687D01*
G01X6077877Y2954334D02*
G01X6077877Y3100413D01*
G01X6270718Y3133687D02*
G01X6331344Y3073061D01*
G01X6444602Y3133687D02*
G01X6270718Y3133687D01*
G01X6444602Y3133687D02*
G01X6524587Y3053702D01*
G01X6524587Y2813698D01*
G54D33*
G01X4191000Y2438400D02*
G01X4470400Y2159000D01*
G01X3481763Y2504460D02*
G01X3547823Y2438400D01*
G01X4191000Y2438400D01*
G54D31*
G01X4470400Y2159000D02*
G01X5949899Y2159000D01*
G01X6204598Y2413699D01*
G01X6218513Y2413699D01*
G01X6265249Y2366963D01*
G01X6411756Y2366963D01*
G01X6943945Y2700439D02*
G01X6971322Y2673062D01*
G01X6971322Y2394340D01*
G01X6425244Y2286978D02*
G01X6397866Y2314355D01*
G01X6397866Y2353073D01*
G01X6844602Y2653703D02*
G01X6891338Y2700439D01*
G01X6943945Y2700439D01*
G01X6971322Y2394340D02*
G01X6863960Y2286978D01*
G01X6425244Y2286978D01*
G01X6538502Y2493709D02*
G01X6604597Y2493709D01*
G01X6397866Y2353073D02*
G01X6411756Y2366963D01*
G01X6538502Y2493709D01*
G01X6844602Y2747603D02*
G01X6844602Y2653703D01*
G01X6891338Y2794339D02*
G01X6844602Y2747603D01*
G01X6891338Y2833056D02*
G01X6891338Y2794339D01*
G01X6844602Y3053702D02*
G01X6844602Y3133662D01*
G01X6684582Y3293682D01*
G01X6524562Y3453702D01*
G01X6444602Y3453702D01*
G54D34*
G01X6684582Y2733713D02*
G01X6641427Y2776868D01*
G01X6189973Y3178391D02*
G01X6169292Y3199073D01*
G01X6169292Y3228321D01*
G01X6139237Y3258376D01*
G01X6109989Y3258376D01*
G01X6089307Y3279057D01*
G01X6089307Y3308306D01*
G01X6059227Y3338386D01*
G01X6029979Y3338386D01*
G01X5999925Y3388316D02*
G01X5979243Y3408998D01*
G01X5949994Y3408998D01*
G01X5919197Y3378200D01*
G01X4978400Y3378200D01*
G01X6029979Y3338386D02*
G01X5999925Y3368440D01*
G01X5999925Y3388316D01*
G01X6641427Y2776868D02*
G01X6641427Y3073203D01*
G01X6536239Y3178391D01*
G01X6189973Y3178391D01*
G01X6799898Y2748337D02*
G01X6794500Y2753735D01*
G01X6764592Y2653703D02*
G01X6799898Y2689009D01*
G01X6799898Y2748337D01*
G01X6794500Y2793676D02*
G01X6799898Y2799073D01*
G01X6619221Y3249003D02*
G01X6593497Y3249003D01*
G01X6794500Y2753735D02*
G01X6794500Y2793676D01*
G01X6799898Y2799073D02*
G01X6799898Y3068327D01*
G01X6619221Y3249003D01*
G01X5110178Y3492500D02*
G01X5074598Y3456920D01*
G01X6350000Y3492500D02*
G01X5110178Y3492500D01*
G01X6593497Y3249003D02*
G01X6350000Y3492500D01*
G01X4804138Y3456920D02*
G01X4725419Y3378200D01*
G01X5074598Y3456920D02*
G01X4804138Y3456920D01*
G01X6684582Y2653703D02*
G01X6684582Y2683783D01*
G01X6719888Y2719089D01*
G01X6699206Y3089008D02*
G01X6661543Y3089008D01*
G01X6184531Y3249003D02*
G01X6159919Y3273615D01*
G01X6159919Y3308306D01*
G01X6139237Y3328988D01*
G01X6104546Y3328988D01*
G01X6079909Y3353625D01*
G01X6079909Y3388316D01*
G01X6059227Y3408998D01*
G01X6015164Y3408998D01*
G01X5989764Y3434398D01*
G01X5939473Y3434398D01*
G01X6719888Y2719089D02*
G01X6719888Y3068327D01*
G01X6699206Y3089008D01*
G01X6661543Y3089008D02*
G01X6501548Y3249003D01*
G01X6184531Y3249003D01*
G01X5939473Y3434398D02*
G01X5934076Y3429000D01*
G01X4812139Y3429000D02*
G01X4773699Y3390559D01*
G01X4773699Y3358202D01*
G01X4745417Y3329920D01*
G01X5934076Y3429000D02*
G01X4812139Y3429000D01*
G01X4745417Y3329920D02*
G01X4621299Y3329920D01*
G01X4573019Y3378200D01*
G01X4471419Y3378200D01*
G54D33*
G01X2692400Y2692400D02*
G01X2880340Y2504460D01*
G01X3481763Y2504460D01*
G54D35*
G01X5168900Y1016000D02*
G01X5168900Y1270000D01*
G01X5168900Y1016000D02*
G01X5524500Y660400D01*
G01X6883400Y660400D01*
G01X7112000Y889000D01*
G54D36*
G01X7112000Y889000D02*
G01X7112000Y1028700D01*
G54D35*
G01X7112000Y1028700D02*
G01X7112000Y1282700D01*
G01X7112000Y889000D02*
G01X7340600Y660400D01*
G01X8839200Y660400D01*
G01X9055100Y876300D01*
G54D36*
G01X9055100Y876300D02*
G01X9055100Y1028700D01*
G54D35*
G01X9055100Y1028700D02*
G01X9055100Y1282700D01*
G01X9055100Y876300D02*
G01X9550400Y381000D01*
G01X11277600Y381000D01*
G01X11440298Y543698D01*
G01X11440298Y766270D01*
G01X11694298Y766270D01*
G01X11440298Y766270D02*
G01X11440298Y1254898D01*
G01X11887200Y1701800D01*
G01X13081871Y1701800D01*
G01X13492541Y2112470D01*
G01X13746541Y2112470D01*
G01X13492541Y2112470D02*
G01X13492541Y2674559D01*
G01X13309600Y2857500D01*
G01X11709400Y2857500D01*
G01X11607800Y2959100D01*
G01X11607800Y3543300D01*
G01X11353800Y3543300D01*
G01X10985500Y3911600D01*
G01X10503500Y3911600D01*
G01X10449618Y3965482D01*
G01X10449618Y4225075D01*
G01X10449618Y4479075D01*
G01X11607800Y3543300D02*
G01X12052300Y3987800D01*
G01X13220700Y3987800D01*
G01X13421498Y4188598D01*
G01X13421498Y4777128D01*
G01X13675498Y4777128D02*
G01X13421498Y4777128D01*
G54D36*
G01X4645523Y4435329D02*
G01X4602785Y4392591D01*
G01X4309075Y4686300D01*
G01X2133600Y3035300D02*
G01X2476500Y2692400D01*
G01X2692400Y2692400D01*
G01X4309075Y4686300D02*
G01X2286000Y4686300D01*
G01X2133600Y4533900D01*
G01X2133600Y3035300D01*
G54D35*
G01X10449618Y4225075D02*
G01X10123443Y3898900D01*
G01X8915400Y3898900D01*
G01X8861518Y3952782D01*
G01X8861518Y4433781D01*
G01X8537545Y4757755D01*
G01X3467797Y646742D02*
G01X3595755Y774700D01*
G01X4927600Y774700D01*
G01X5168900Y1016000D01*
G01X2641928Y646742D02*
G01X3467797Y646742D01*
G01X1879600Y1409071D02*
G01X2641928Y646742D01*
G01X1879600Y2362200D02*
G01X1879600Y1409071D01*
G01X2692400Y2438400D02*
G01X2578100Y2552700D01*
G01X2070100Y2552700D01*
G01X1879600Y2362200D01*
G54D37*
G01X6044603Y2733713D02*
G01X6044603Y2705429D01*
G01X6008027Y2668853D01*
G01X6008027Y2638553D01*
G01X5979769Y2610295D01*
G01X5949468Y2610295D01*
G01X5928043Y2588869D01*
G01X5928043Y2537143D01*
G01X5884609Y2493709D01*
G54D31*
G01X7428309Y2377694D02*
G01X7254494Y2377694D01*
G01X7162800Y2286000D01*
G01X6864938Y2286000D01*
G01X6863960Y2286978D01*
G01X6844602Y2879792D02*
G01X6891338Y2833056D01*
G01X6903347Y3018547D02*
G01X6905227Y3020428D01*
G01X6943945Y3020428D01*
G01X6971322Y2993051D01*
G01X6971322Y2954334D01*
G01X6943945Y2926956D01*
G01X6865841Y2926956D01*
G01X6844602Y2905717D01*
G01X6844602Y2879792D01*
G01X6844602Y3053702D02*
G01X6879756Y3018547D01*
G01X6903347Y3018547D01*
G04 Track End*

M02*

